{
.appVersion = "3151";
.formatVersion = 3;
classes = (
{
code = "zero one two three four five six seven eight nine A B C D E F G H I J K L M N O P Q R S T U V W X Y Z uni0410 uni0411 uni0412 uni0413 uni0414 uni0415 uni0416 uni0417 uni0418 uni0419 uni041A uni041B uni041C uni041D uni041E uni041F uni0420 uni0421 uni0422 uni0423 uni0424 uni0425 uni0426 uni0427 uni0428 uni0429 uni042A uni042B uni042C uni042D uni042E uni042F uni0401 K_alt W_alt Acircumflex Adieresis Ccedilla Ecircumflex Icircumflex Odieresis Udieresis Abreve Idotaccent Scedilla uni0162 uni0218 uni021A uni04C1";
name = calt1;
},
{
code = "o a c d e g q s u y t acircumflex adieresis ccedilla ecircumflex odieresis udieresis u_alt y_alt s_alt c_alt t_alt t2.alt g_alt a_alt abreve scedilla uni0163 uni0219 uni021B uni0430 uni0431 uni0435 uni0437 uni043E uni0441 uni0444 uni044D uni0451 space zero one three five six seven eight nine f v endash emdash uni00AD hyphen.uc uni00AD.uc endash.uc emdash.uc minus hyphen t0163.alt t021b.alt a2_alt a00E2.alt a00E4.alt a0103.alt";
name = calt2;
},
{
code = "uniE000 uniE001 uniE002 uniE003 uniE004 uniE005 uniE006 uniE007 uniE008 uniE009 uniE010 uniE011 uniE012 uniE013 uniE014 uniE015 uniE016 uniE017 uniE018 uniE019 uniE020 uniE021 uniE022";
name = tnum1;
},
{
code = "zero one two three four five six seven eight nine period comma colon semicolon quotesingle quotedbl quoteright quotedblright quoteleft quotedblleft quotesinglbase quotedblbase colon.uc";
name = pnum1;
}
);
customParameters = (
{
name = glyphOrder;
value = (
.notdef,
NULL,
CR,
space,
B,
D,
E,
F,
H,
I,
L,
M,
N,
P,
R,
U,
V,
W,
X,
Y,
Z,
b,
d,
h,
i,
l,
m,
n,
p,
q,
u,
v,
w,
x,
z,
period,
comma,
A,
breve,
circumflex,
uni0326,
exclam,
quotedbl,
quotesingle,
numbersign,
percent,
asterisk,
plus,
slash,
colon,
semicolon,
less,
equal,
greater,
at,
bracketleft,
bracketright,
backslash,
asciicircum,
underscore,
braceleft,
bar,
braceright,
Euro,
quotedblbase,
quotesinglbase,
quotedblright,
quoteright,
quotedblleft,
quoteleft,

glyphs = (
{
glyphname = .notdef;
layers = (
{
layerId = "421C3252-9543-41E3-AA96-2937FA2B9555";
shapes = (
{
closed = 1;
nodes = (
(20,960,l),
(540,960,l),
(540,-295,l),
(20,-295,l)
);
},
{
closed = 1;
nodes = (
(30,-285,l),
(530,-285,l),
(530,950,l),
(30,950,l)
);
}
);
width = 560;
}
);
},
{
glyphname = B;
kernLeft = _kern1;
layers = (
{
layerId = "421C3252-9543-41E3-AA96-2937FA2B9555";
shapes = (
{
closed = 1;
nodes = (
(73,0,l),
(73,708,l),
(406,708,ls),
(521,708,o),
(624,661,o),
(624,525,cs),
(624,466,o),
(602,416,o),
(551,385,c),
(620,358,o),
(656,298,o),
(656,217,cs),
(656,42,o),
(496,0,o),
(358,0,cs)
);
},
{
closed = 1;
nodes = (
(351,427,ls),
(418,427,o),
(464,445,o),
(464,498,cs),
(464,552,o),
(416,560,o),
(366,560,cs),
(236,560,l),
(236,427,l)
);
},
{
closed = 1;
nodes = (
(236,147,l),
(359,147,ls),
(434,147,o),
(493,158,o),
(493,225,cs),
(493,285,o),
(438,292,o),
(377,292,cs),
(236,292,l)
);
}
);
width = 692;
}
);
unicode = 66;
},
{
glyphname = D;
kernLeft = _kern1;
kernRight = _kern4;
layers = (
{
layerId = "421C3252-9543-41E3-AA96-2937FA2B9555";
shapes = (
{
closed = 1;
nodes = (
(74,0,l),
(74,708,l),
(343,708,ls),
(564,708,o),
(702,586,o),
(702,354,cs),
(702,121,o),
(576,0,o),
(347,0,cs)
);
},
{
closed = 1;
nodes = (
(349,147,ls),
(485,147,o),
(536,228,o),
(536,353,cs),
(536,489,o),
(474,559,o),
(341,559,cs),
(237,559,l),
(237,147,l)
);
}
);
width = 738;
}
);
unicode = 68;
},
{
glyphname = E;
kernLeft = _kern1;
layers = (
{
layerId = "421C3252-9543-41E3-AA96-2937FA2B9555";
shapes = (
{
closed = 1;
nodes = (
(594,708,l),
(594,559,l),
(237,559,l),
(237,423,l),
(540,423,l),
(540,278,l),
(237,278,l),
(237,147,l),
(594,147,l),
(594,0,l),
(74,0,l),
(74,708,l)
);
}
);
width = 629;
}
);
unicode = 69;
},
{
glyphname = F;
kernLeft = _kern1;
layers = (
{
layerId = "421C3252-9543-41E3-AA96-2937FA2B9555";
shapes = (
{
closed = 1;
nodes = (
(582,708,l),
(582,559,l),
(237,559,l),
(237,403,l),
(524,403,l),
(524,257,l),
(237,257,l),
(237,0,l),
(74,0,l),
(74,708,l)
);
}
);
width = 606;
}
);
unicode = 70;
},
{
glyphname = H;
kernLeft = _kern1;
kernRight = _kern2;
layers = (
{
layerId = "421C3252-9543-41E3-AA96-2937FA2B9555";
shapes = (
{
closed = 1;
nodes = (
(237,423,l),
(522,423,l),
(522,708,l),
(685,708,l),
(685,0,l),
(522,0,l),
(522,276,l),
(237,276,l),
(237,0,l),
(74,0,l),
(74,708,l),
(237,708,l)
);
}
);
width = 759;
}
);
unicode = 72;
},
{
glyphname = I;
kernLeft = _kern1;
kernRight = _kern2;
layers = (
{
layerId = "421C3252-9543-41E3-AA96-2937FA2B9555";
shapes = (
{
closed = 1;
nodes = (
(237,0,l),
(74,0,l),
(74,708,l),
(237,708,l)
);
}
);
width = 311;
}
);
unicode = 73;
},
{
glyphname = L;
layers = (
{
layerId = "421C3252-9543-41E3-AA96-2937FA2B9555";
shapes = (
{
closed = 1;
nodes = (
(237,147,l),
(580,147,l),
(580,0,l),
(74,0,l),
(74,708,l),
(237,708,l)
);
}
);
width = 607;
}
);
unicode = 76;
},
{
glyphname = M;
kernLeft = _kern1;
kernRight = _kern2;
layers = (
{
layerId = "421C3252-9543-41E3-AA96-2937FA2B9555";
shapes = (
{
closed = 1;
nodes = (
(268,708,l),
(461,386,l),
(652,708,l),
(840,708,l),
(840,0,l),
(677,0,l),
(677,469,l),
(492,161,l),
(424,161,l),
(237,469,l),
(237,0,l),
(74,0,l),
(74,708,l)
);
}
);
width = 914;
}
);
unicode = 77;
},
{
glyphname = N;
kernLeft = _kern1;
kernRight = _kern2;
layers = (
{
layerId = "421C3252-9543-41E3-AA96-2937FA2B9555";
shapes = (
{
closed = 1;
nodes = (
(230,708,l),
(547,270,l),
(547,708,l),
(710,708,l),
(710,0,l),
(557,0,l),
(237,435,l),
(237,0,l),
(74,0,l),
(74,708,l)
);
}
);
width = 784;
}
);
unicode = 78;
},
{
glyphname = P;
kernLeft = _kern1;
layers = (
{
layerId = "421C3252-9543-41E3-AA96-2937FA2B9555";
shapes = (
{
closed = 1;
nodes = (
(358,708,ls),
(523,708,o),
(638,643,o),
(638,462,cs),
(638,290,o),
(518,204,o),
(360,204,cs),
(237,204,l),
(237,0,l),
(74,0,l),
(74,708,l)
);
},
{
closed = 1;
nodes = (
(356,348,ls),
(428,348,o),
(475,385,o),
(478,453,c),
(478,529,o),
(436,559,o),
(355,559,cs),
(237,559,l),
(237,348,l)
);
}
);
width = 674;
}
);
unicode = 80;
},
{
glyphname = R;
kernLeft = _kern1;
layers = (
{
layerId = "421C3252-9543-41E3-AA96-2937FA2B9555";
shapes = (
{
closed = 1;
nodes = (
(367,708,ls),
(499,708,o),
(646,669,o),
(646,481,c),
(643,377,o),
(596,296,o),
(501,267,c),
(661,0,l),
(477,0,l),
(338,246,l),
(237,246,l),
(237,0,l),
(74,0,l),
(74,708,l)
);
},
{
closed = 1;
nodes = (
(366,387,ls),
(437,387,o),
(482,411,o),
(485,475,cs),
(488,543,o),
(435,559,o),
(369,559,cs),
(237,559,l),
(237,387,l)
);
}
);
width = 701;
}
);
unicode = 82;
},
{
glyphname = U;
layers = (
{
layerId = "421C3252-9543-41E3-AA96-2937FA2B9555";
shapes = (
{
closed = 1;
nodes = (
(160,-8,o),
(69,115,o),
(69,327,cs),
(69,708,l),
(232,708,l),
(232,315,ls),
(232,224,o),
(266,141,o),
(379,141,cs),
(495,141,o),
(523,227,o),
(523,315,cs),
(523,708,l),
(686,708,l),
(686,327,ls),
(686,115,o),
(596,-8,o),
(377,-8,cs)
);
}
);
width = 755;
}
);
unicode = 85;
},
{
glyphname = V;
layers = (
{
layerId = "421C3252-9543-41E3-AA96-2937FA2B9555";
shapes = (
{
closed = 1;
nodes = (
(539,708,l),
(716,708,l),
(440,0,l),
(276,0,l),
(1,708,l),
(180,708,l),
(362,204,l)
);
}
);
width = 717;
}
);
unicode = 86;
},
{
glyphname = W;
kernLeft = _kern19;
kernRight = _kern19;
layers = (
{
layerId = "421C3252-9543-41E3-AA96-2937FA2B9555";
shapes = (
{
closed = 1;
nodes = (
(389,0,l),
(176,0,l),
(0,708,l),
(184,708,l),
(284,206,l),
(395,708,l),
(603,708,l),
(712,206,l),
(812,708,l),
(995,708,l),
(819,0,l),
(604,0,l),
(497,492,l)
);
}
);
width = 995;
}
);
unicode = 87;
},
{
glyphname = X;
layers = (
{
layerId = "421C3252-9543-41E3-AA96-2937FA2B9555";
shapes = (
{
closed = 1;
nodes = (
(496,708,l),
(686,708,l),
(447,354,l),
(692,0,l),
(499,0,l),
(345,234,l),
(185,0,l),
(1,0,l),
(249,355,l),
(9,708,l),
(202,708,l),
(350,473,l)
);
}
);
width = 693;
}
);
unicode = 88;
},
{
glyphname = Y;
kernLeft = _kern31;
kernRight = _kern31;
layers = (
{
layerId = "421C3252-9543-41E3-AA96-2937FA2B9555";
shapes = (
{
closed = 1;
nodes = (
(355,414,l),
(519,708,l),
(703,708,l),
(435,264,l),
(434,264,l),
(435,264,l),
(435,0,l),
(272,0,l),
(272,263,l),
(1,708,l),
(189,708,l)
);
}
);
width = 704;
}
);
unicode = 89;
},
{
glyphname = Z;
layers = (
{
layerId = "421C3252-9543-41E3-AA96-2937FA2B9555";
shapes = (
{
closed = 1;
nodes = (
(39,559,l),
(39,708,l),
(604,708,l),
(604,580,l),
(241,147,l),
(597,147,l),
(597,0,l),
(31,0,l),
(31,128,l),
(394,559,l)
);
}
);
width = 635;
}
);
unicode = 90;
},
{
glyphname = b;
kernRight = _kern6;
layers = (
{
layerId = "421C3252-9543-41E3-AA96-2937FA2B9555";
shapes = (
{
closed = 1;
nodes = (
(212,467,l),
(255,514,o),
(316,538,o),
(381,538,cs),
(524,538,o),
(608,430,o),
(608,268,cs),
(608,104,o),
(527,-8,o),
(379,-8,cs),
(306,-8,o),
(255,15,o),
(211,62,c),
(212,0,l),
(55,0,l),
(55,708,l),
(212,708,l)
);
},
{
closed = 1;
nodes = (
(255,394,o),
(212,332,o),
(212,267,cs),
(212,194,o),
(254,137,o),
(335,134,c),
(420,134,o),
(450,196,o),
(450,266,cs),
(450,331,o),
(415,394,o),
(332,394,cs)
);
}
);
width = 642;
}
);
unicode = 98;
},
{
glyphname = d;
kernLeft = _kern5;
layers = (
{
layerId = "421C3252-9543-41E3-AA96-2937FA2B9555";
shapes = (
{
closed = 1;
nodes = (
(438,0,l),
(434,57,l),
(393,12,o),
(348,-5,o),
(273,-8,c),
(118,-8,o),
(34,109,o),
(34,262,cs),
(34,422,o),
(128,538,o),
(284,538,cs),
(343,538,o),
(393,522,o),
(430,489,c),
(430,708,l),
(588,708,l),
(588,0,l)
);
},
{
closed = 1;
nodes = (
(392,136,o),
(430,194,o),
(430,264,cs),
(430,333,o),
(393,392,o),
(311,392,cs),
(226,392,o),
(192,329,o),
(192,262,cs),
(192,193,o),
(228,133,o),
(311,133,c)
);
}
);
width = 642;
}
);
unicode = 100;
},
{
glyphname = h;
layers = (
{
layerId = "421C3252-9543-41E3-AA96-2937FA2B9555";
shapes = (
{
closed = 1;
nodes = (
(212,474,l),
(261,526,o),
(322,538,o),
(366,538,cs),
(510,538,o),
(567,432,o),
(567,290,cs),
(567,0,l),
(409,0,l),
(409,277,ls),
(409,326,o),
(388,394,o),
(311,394,cs),
(234,394,o),
(212,327,o),
(212,271,cs),
(212,0,l),
(55,0,l),
(55,708,l),
(212,708,l)
);
}
);
width = 618;
}
);
unicode = 104;
},
{
glyphname = i;
layers = (
{
layerId = "421C3252-9543-41E3-AA96-2937FA2B9555";
shapes = (
{
closed = 1;
nodes = (
(222,0,l),
(65,0,l),
(65,527,l),
(222,527,l)
);
},
{
closed = 1;
nodes = (
(199,774,o),
(240,739,o),
(240,680,cs),
(240,619,o),
(199,585,o),
(143,585,cs),
(90,585,o),
(46,617,o),
(46,680,cs),
(46,739,o),
(91,774,o),
(143,774,cs)
);
}
);
width = 287;
}
);
unicode = 105;
},
{
glyphname = l;
layers = (
{
layerId = "421C3252-9543-41E3-AA96-2937FA2B9555";
shapes = (
{
closed = 1;
nodes = (
(212,0,l),
(55,0,l),
(55,708,l),
(212,708,l)
);
}
);
width = 267;
}
);
unicode = 108;
},
{
glyphname = m;
layers = (
{
layerId = "421C3252-9543-41E3-AA96-2937FA2B9555";
shapes = (
{
closed = 1;
nodes = (
(210,465,l),
(253,521,o),
(306,537,o),
(355,537,cs),
(416,537,o),
(462,516,o),
(493,460,c),
(540,517,o),
(595,537,o),
(655,537,cs),
(778,537,o),
(826,453,o),
(826,331,cs),
(826,0,l),
(669,0,l),
(669,300,ls),
(669,334,o),
(662,394,o),
(597,394,cs),
(558,394,o),
(534,369,o),
(526,338,cs),
(518,307,o),
(520,273,o),
(520,254,cs),
(520,0,l),
(363,0,l),
(363,300,ls),
(363,327,o),
(360,394,o),
(293,394,cs),
(219,394,o),
(212,329,o),
(212,278,cs),
(212,0,l),
(55,0,l),
(55,527,l),
(198,527,l)
);
}
);
width = 876;
}
);
unicode = 109;
},
{
glyphname = n;
layers = (
{
layerId = "421C3252-9543-41E3-AA96-2937FA2B9555";
shapes = (
{
closed = 1;
nodes = (
(210,469,l),
(257,520,o),
(314,537,o),
(365,538,c),
(432,538,o),
(481,515,o),
(516,476,c),
(555,429,o),
(567,366,o),
(567,290,cs),
(567,0,l),
(409,0,l),
(409,277,ls),
(409,336,o),
(390,394,o),
(313,394,cs),
(233,394,o),
(212,322,o),
(212,266,cs),
(212,0,l),
(55,0,l),
(55,527,l),
(202,527,l)
);
}
);
width = 618;
}
);
unicode = 110;
},
{
glyphname = p;
kernRight = _kern6;
layers = (
{
layerId = "421C3252-9543-41E3-AA96-2937FA2B9555";
shapes = (
{
closed = 1;
nodes = (
(211,465,l),
(254,517,o),
(312,538,o),
(375,538,cs),
(519,538,o),
(608,429,o),
(608,269,cs),
(608,106,o),
(523,-8,o),
(377,-8,cs),
(307,-8,o),
(252,12,o),
(212,52,c),
(212,-210,l),
(55,-210,l),
(55,527,l),
(202,527,l)
);
},
{
closed = 1;
nodes = (
(256,394,o),
(212,333,o),
(212,267,cs),
(212,194,o),
(254,137,o),
(335,134,c),
(420,134,o),
(450,196,o),
(450,266,cs),
(450,331,o),
(415,394,o),
(332,394,cs)
);
}
);
width = 642;
}
);
unicode = 112;
},
{
glyphname = q;
kernLeft = _kern5;
layers = (
{
layerId = "421C3252-9543-41E3-AA96-2937FA2B9555";
shapes = (
{
closed = 1;
nodes = (
(431,43,l),
(392,4,o),
(335,-9,o),
(280,-9,cs),
(115,-9,o),
(34,113,o),
(34,263,cs),
(34,423,o),
(133,538,o),
(289,538,cs),
(349,538,o),
(401,519,o),
(436,475,c),
(447,527,l),
(589,527,l),
(589,-210,l),
(431,-210,l)
);
},
{
closed = 1;
nodes = (
(390,133,o),
(430,194,o),
(430,264,cs),
(430,336,o),
(391,392,o),
(312,392,cs),
(230,392,o),
(192,332,o),
(192,265,cs),
(192,195,o),
(231,133,o),
(312,133,cs)
);
}
);
width = 643;
}
);
unicode = 113;
},
{
glyphname = u;
layers = (
{
layerId = "421C3252-9543-41E3-AA96-2937FA2B9555";
shapes = (
{
closed = 1;
nodes = (
(372,134,o),
(387,187,o),
(387,245,cs),
(387,527,l),
(544,527,l),
(544,236,ls),
(544,55,o),
(439,-8,o),
(298,-8,cs),
(144,-8,o),
(53,66,o),
(53,236,cs),
(53,527,l),
(210,527,l),
(210,245,ls),
(210,181,o),
(234,135,o),
(299,134,c)
);
}
);
width = 597;
}
);
unicode = 117;
},
{
glyphname = v;
layers = (
{
layerId = "421C3252-9543-41E3-AA96-2937FA2B9555";
shapes = (
{
closed = 1;
nodes = (
(401,527,l),
(574,527,l),
(380,0,l),
(195,0,l),
(1,527,l),
(175,527,l),
(288,174,l)
);
}
);
width = 575;
}
);
unicode = 118;
},
{
glyphname = w;
kernLeft = _kern20;
kernRight = _kern20;
layers = (
{
layerId = "421C3252-9543-41E3-AA96-2937FA2B9555";
shapes = (
{
closed = 1;
nodes = (
(166,0,l),
(1,527,l),
(175,527,l),
(262,186,l),
(359,527,l),
(522,527,l),
(619,186,l),
(705,527,l),
(872,527,l),
(707,0,l),
(534,0,l),
(437,328,l),
(341,0,l)
);
}
);
width = 873;
}
);
unicode = 119;
},
{
glyphname = x;
layers = (
{
layerId = "421C3252-9543-41E3-AA96-2937FA2B9555";
shapes = (
{
closed = 1;
nodes = (
(372,527,l),
(550,527,l),
(379,266,l),
(562,0,l),
(379,0,l),
(278,164,l),
(178,0,l),
(1,0,l),
(179,268,l),
(10,527,l),
(193,527,l),
(283,370,l)
);
}
);
width = 563;
}
);
unicode = 120;
},
{
glyphname = z;
layers = (
{
layerId = "421C3252-9543-41E3-AA96-2937FA2B9555";
shapes = (
{
closed = 1;
nodes = (
(480,412,l),
(240,140,l),
(480,140,l),
(480,0,l),
(34,0,l),
(34,115,l),
(273,387,l),
(34,387,l),
(34,527,l),
(480,527,l)
);
}
);
width = 514;
}
);
unicode = 122;
},
{
glyphname = period;
kernLeft = _kern14;
kernRight = _kern14;
layers = (
{
layerId = "421C3252-9543-41E3-AA96-2937FA2B9555";
shapes = (
{
closed = 1;
nodes = (
(202,180,o),
(243,146,o),
(243,83,cs),
(243,19,o),
(202,-13,o),
(149,-13,cs),
(94,-13,o),
(54,19,o),
(54,83,cs),
(54,144,o),
(96,180,o),
(149,180,cs)
);
}
);
width = 297;
}
);
unicode = 46;
},
{
glyphname = comma;
kernLeft = _kern14;
kernRight = _kern14;
layers = (
{
layerId = "421C3252-9543-41E3-AA96-2937FA2B9555";
shapes = (
{
closed = 1;
nodes = (
(103,-5,o),
(64,25,o),
(64,81,cs),
(64,144,o),
(111,176,o),
(164,176,cs),
(233,176,o),
(270,120,o),
(267,48,c),
(264,-58,o),
(180,-148,o),
(97,-175,c),
(54,-110,l),
(89,-91,o),
(135,-49,o),
(148,-9,c)
);
}
);
width = 322;
}
);
unicode = 44;
},
{
glyphname = A;
kernLeft = _kern30;
kernRight = _kern30;
layers = (
{
layerId = "421C3252-9543-41E3-AA96-2937FA2B9555";
shapes = (
{
closed = 1;
nodes = (
(269,263,l),
(459,263,l),
(365,530,l)
);
},
{
closed = 1;
nodes = (
(219,117,l),
(176,0,l),
(0,0,l),
(279,708,l),
(453,708,l),
(728,0,l),
(551,0,l),
(509,117,l)
);
}
);
width = 730;
}
);
unicode = 65;
},
{
glyphname = breve;
layers = (
{
layerId = "421C3252-9543-41E3-AA96-2937FA2B9555";
shapes = (
{
closed = 1;
nodes = (
(226,760,l),
(227,715,o),
(248,690,o),
(295,690,cs),
(342,690,o),
(363,715,o),
(364,760,c),
(490,760,l),
(489,637,o),
(412,583,o),
(295,583,cs),
(178,583,o),
(101,637,o),
(100,760,c)
);
}
);
width = 590;
}
);
unicode = 728;
},
{
glyphname = circumflex;
layers = (
{
layerId = "421C3252-9543-41E3-AA96-2937FA2B9555";
shapes = (
{
closed = 1;
nodes = (
(520,584,l),
(374,584,l),
(309,671,l),
(246,584,l),
(100,584,l),
(258,769,l),
(360,769,l)
);
}
);
width = 620;
}
);
unicode = 710;
},
{
glyphname = uni0326;
layers = (
{
layerId = "421C3252-9543-41E3-AA96-2937FA2B9555";
shapes = (
{
closed = 1;
nodes = (
(-335,-177,o),
(-363,-155,o),
(-363,-115,cs),
(-363,-71,o),
(-333,-46,o),
(-290,-46,cs),
(-239,-46,o),
(-210,-88,o),
(-210,-136,cs),
(-210,-215,o),
(-271,-276,o),
(-337,-301,c),
(-370,-253,l),
(-342,-236,o),
(-309,-209,o),
(-300,-180,c)
);
}
);
width = 0;
}
);
unicode = 806;
},
{
glyphname = exclam;
layers = (
{
layerId = "421C3252-9543-41E3-AA96-2937FA2B9555";
shapes = (
{
closed = 1;
nodes = (
(214,179,o),
(256,147,o),
(256,84,cs),
(256,23,o),
(211,-9,o),
(161,-9,cs),
(109,-9,o),
(64,21,o),
(64,84,cs),
(64,147,o),
(108,179,o),
(161,179,cs)
);
},
{
closed = 1;
nodes = (
(233,242,l),
(88,242,l),
(76,708,l),
(246,708,l)
);
}
);
width = 320;
}
);
unicode = 33;
},
{
glyphname = quotedbl;
layers = (
{
layerId = "421C3252-9543-41E3-AA96-2937FA2B9555";
shapes = (
{
closed = 1;
nodes = (
(367,425,l),
(261,425,l),
(241,708,l),
(391,708,l)
);
},
{
closed = 1;
nodes = (
(171,425,l),
(65,425,l),
(46,708,l),
(194,708,l)
);
}
);
width = 437;
}
);
unicode = 34;
},
{
glyphname = quotesingle;
layers = (
{
layerId = "421C3252-9543-41E3-AA96-2937FA2B9555";
shapes = (
{
closed = 1;
nodes = (
(182,425,l),
(76,425,l),
(54,708,l),
(206,708,l)
);
}
);
width = 260;
}
);
unicode = 39;
},
{
glyphname = numbersign;
layers = (
{
layerId = "421C3252-9543-41E3-AA96-2937FA2B9555";
shapes = (
{
closed = 1;
nodes = (
(548,542,l),
(640,542,l),
(640,406,l),
(532,406,l),
(519,301,l),
(611,301,l),
(611,165,l),
(503,165,l),
(495,108,o),
(489,56,o),
(482,0,c),
(354,0,l),
(373,165,l),
(268,165,l),
(248,0,l),
(117,0,l),
(138,165,l),
(46,165,l),
(46,301,l),
(155,301,l),
(154,301,l),
(167,406,l),
(74,406,l),
(74,542,l),
(183,542,l),
(204,708,l),
(332,708,l),
(313,542,l),
(418,542,l),
(439,708,l),
(568,708,l)
);
},
{
closed = 1;
nodes = (
(390,301,l),
(402,406,l),
(296,406,l),
(284,301,l)
);
}
);
width = 686;
}
);
unicode = 35;
},
{
glyphname = percent;
layers = (
{
layerId = "421C3252-9543-41E3-AA96-2937FA2B9555";
shapes = (
{
closed = 1;
nodes = (
(574,-11,o),
(502,61,o),
(502,167,cs),
(502,276,o),
(574,348,o),
(682,348,cs),
(791,348,o),
(861,279,o),
(861,167,cs),
(861,61,o),
(789,-11,o),
(682,-11,cs)
);
},
{
closed = 1;
nodes = (
(115,361,o),
(46,433,o),
(46,540,cs),
(46,648,o),
(117,720,o),
(225,720,cs),
(334,720,o),
(404,651,o),
(404,540,cs),
(404,433,o),
(333,361,o),
(225,361,cs)
);
},
{
closed = 1;
nodes = (
(138,0,l),
(604,708,l),
(764,708,l),
(301,0,l)
);
},
{
closed = 1;
nodes = (
(182,603,o),
(165,574,o),
(165,542,cs),
(165,507,o),
(180,477,o),
(225,477,cs),
(268,477,o),
(284,507,o),
(284,540,cs),
(284,572,o),
(268,603,o),
(225,603,cs)
);
},
{
closed = 1;
nodes = (
(641,231,o),
(622,201,o),
(622,168,cs),
(622,133,o),
(637,104,o),
(682,104,cs),
(725,104,o),
(741,134,o),
(741,167,cs),
(741,200,o),
(725,231,o),
(682,231,cs)
);
}
);
width = 907;
}
);
unicode = 37;
},
{
glyphname = asterisk;
layers = (
{
layerId = "421C3252-9543-41E3-AA96-2937FA2B9555";
shapes = (
{
closed = 1;
nodes = (
(189,627,l),
(179,727,l),
(308,727,l),
(298,627,l),
(391,668,l),
(431,545,l),
(332,523,l),
(399,447,l),
(294,371,l),
(243,458,l),
(192,371,l),
(87,447,l),
(155,523,l),
(56,545,l),
(96,668,l)
);
}
);
width = 487;
}
);
unicode = 42;
},
{
glyphname = plus;
layers = (
{
layerId = "421C3252-9543-41E3-AA96-2937FA2B9555";
shapes = (
{
closed = 1;
nodes = (
(370,292,l),
(370,117,l),
(233,117,l),
(233,292,l),
(61,292,l),
(61,430,l),
(233,430,l),
(233,603,l),
(370,603,l),
(370,430,l),
(543,430,l),
(543,292,l)
);
}
);
width = 604;
}
);
unicode = 43;
},
{
glyphname = slash;
layers = (
{
layerId = "421C3252-9543-41E3-AA96-2937FA2B9555";
shapes = (
{
closed = 1;
nodes = (
(26,-165,l),
(339,781,l),
(493,781,l),
(180,-165,l)
);
}
);
width = 519;
}
);
unicode = 47;
},
{
glyphname = colon;
kernLeft = _kern15;
layers = (
{
layerId = "421C3252-9543-41E3-AA96-2937FA2B9555";
shapes = (
{
closed = 1;
nodes = (
(206,528,o),
(246,490,o),
(246,430,cs),
(246,366,o),
(206,334,o),
(150,334,cs),
(95,334,o),
(54,366,o),
(54,430,cs),
(54,490,o),
(97,528,o),
(150,528,cs)
);
},
{
closed = 1;
nodes = (
(206,184,o),
(246,147,o),
(246,87,cs),
(246,23,o),
(206,-9,o),
(150,-9,cs),
(95,-9,o),
(54,23,o),
(54,87,cs),
(54,147,o),
(97,184,o),
(150,184,cs)
);
}
);
width = 300;
}
);
unicode = 58;
},
{
glyphname = semicolon;
kernLeft = _kern15;
layers = (
{
layerId = "421C3252-9543-41E3-AA96-2937FA2B9555";
shapes = (
{
closed = 1;
nodes = (
(101,-4,o),
(65,27,o),
(65,82,cs),
(65,146,o),
(109,177,o),
(164,177,cs),
(235,177,o),
(267,119,o),
(267,51,cs),
(267,-53,o),
(186,-146,o),
(98,-175,c),
(54,-109,l),
(91,-89,o),
(134,-46,o),
(148,-8,c)
);
},
{
closed = 1;
nodes = (
(220,528,o),
(260,490,o),
(260,430,cs),
(260,366,o),
(220,334,o),
(165,334,cs),
(109,334,o),
(68,366,o),
(68,430,cs),
(68,490,o),
(110,528,o),
(165,528,cs)
);
}
);
width = 321;
}
);
unicode = 59;
},
{
glyphname = less;
layers = (
{
layerId = "421C3252-9543-41E3-AA96-2937FA2B9555";
shapes = (
{
closed = 1;
nodes = (
(443,491,l),
(221,363,l),
(443,232,l),
(443,71,l),
(26,318,l),
(26,398,l),
(443,648,l)
);
}
);
width = 499;
}
);
unicode = 60;
},
{
glyphname = equal;
layers = (
{
layerId = "421C3252-9543-41E3-AA96-2937FA2B9555";
shapes = (
{
closed = 1;
nodes = (
(56,410,l),
(56,547,l),
(520,547,l),
(520,410,l)
);
},
{
closed = 1;
nodes = (
(56,156,l),
(56,294,l),
(520,294,l),
(520,156,l)
);
}
);
width = 576;
}
);
unicode = 61;
},
{
glyphname = greater;
layers = (
{
layerId = "421C3252-9543-41E3-AA96-2937FA2B9555";
shapes = (
{
closed = 1;
nodes = (
(56,230,l),
(277,359,l),
(56,489,l),
(56,649,l),
(472,403,l),
(472,323,l),
(56,72,l)
);
}
);
width = 498;
}
);
unicode = 62;
},
{
glyphname = at;
layers = (
{
layerId = "421C3252-9543-41E3-AA96-2937FA2B9555";
shapes = (
{
closed = 1;
nodes = (
(402,221,o),
(428,171,o),
(489,168,c),
(566,168,o),
(588,246,o),
(588,299,cs),
(588,347,o),
(564,397,o),
(508,397,cs),
(439,397,o),
(405,342,o),
(402,280,c)
);
},
{
closed = 1;
nodes = (
(231,-159,o),
(57,-2,o),
(57,261,cs),
(57,571,o),
(273,726,o),
(527,726,cs),
(776,726,o),
(949,576,o),
(949,315,cs),
(949,176,o),
(889,47,o),
(753,44,c),
(707,44,o),
(646,57,o),
(619,127,c),
(584,73,o),
(520,49,o),
(468,49,cs),
(346,49,o),
(279,146,o),
(279,270,c),
(282,416,o),
(375,516,o),
(499,516,cs),
(546,516,o),
(606,499,o),
(628,447,c),
(648,494,l),
(736,483,l),
(717,387,o),
(701,300,o),
(701,235,cs),
(701,202,o),
(709,168,o),
(751,165,c),
(811,165,o),
(822,254,o),
(822,312,cs),
(822,490,o),
(716,600,o),
(527,600,cs),
(312,600,o),
(194,459,o),
(191,273,c),
(191,98,o),
(293,-31,o),
(485,-31,cs),
(540,-31,o),
(571,-26,o),
(611,-15,c),
(629,-143,l),
(581,-156,o),
(531,-162,o),
(480,-162,c)
);
}
);
width = 1005;
}
);
unicode = 64;
},
{
glyphname = bracketleft;
layers = (
{
layerId = "421C3252-9543-41E3-AA96-2937FA2B9555";
shapes = (
{
closed = 1;
nodes = (
(74,781,l),
(347,781,l),
(347,645,l),
(227,645,l),
(227,-30,l),
(347,-30,l),
(347,-166,l),
(74,-166,l)
);
}
);
width = 369;
}
);
unicode = 91;
},
{
glyphname = bracketright;
layers = (
{
layerId = "421C3252-9543-41E3-AA96-2937FA2B9555";
shapes = (
{
closed = 1;
nodes = (
(294,-166,l),
(22,-166,l),
(22,-30,l),
(141,-30,l),
(141,645,l),
(22,645,l),
(22,781,l),
(294,781,l)
);
}
);
width = 368;
}
);
unicode = 93;
},
{
glyphname = backslash;
layers = (
{
layerId = "421C3252-9543-41E3-AA96-2937FA2B9555";
shapes = (
{
closed = 1;
nodes = (
(339,-166,l),
(26,781,l),
(180,781,l),
(494,-166,l)
);
}
);
width = 520;
}
);
unicode = 92;
},
{
glyphname = asciicircum;
layers = (
{
layerId = "421C3252-9543-41E3-AA96-2937FA2B9555";
shapes = (
{
closed = 1;
nodes = (
(363,444,l),
(279,585,l),
(193,444,l),
(46,444,l),
(222,709,l),
(332,709,l),
(514,444,l)
);
}
);
width = 560;
}
);
unicode = 94;
},
{
glyphname = underscore;
layers = (
{
layerId = "421C3252-9543-41E3-AA96-2937FA2B9555";
shapes = (
{
closed = 1;
nodes = (
(-16,-153,l),
(-16,-17,l),
(448,-17,l),
(448,-153,l)
);
}
);
width = 432;
}
);
unicode = 95;
},
{
glyphname = braceleft;
layers = (
{
layerId = "421C3252-9543-41E3-AA96-2937FA2B9555";
shapes = (
{
closed = 1;
nodes = (
(255,287,o),
(267,234,o),
(267,189,cs),
(267,24,ls),
(267,2,o),
(269,-29,o),
(313,-29,cs),
(377,-29,l),
(377,-165,l),
(260,-165,ls),
(172,-165,o),
(116,-130,o),
(116,-31,cs),
(116,163,ls),
(116,189,o),
(116,240,o),
(57,240,cs),
(24,240,l),
(24,376,l),
(57,376,ls),
(116,376,o),
(116,427,o),
(116,454,cs),
(116,648,ls),
(116,745,o),
(171,781,o),
(260,781,cs),
(377,781,l),
(377,645,l),
(313,645,ls),
(269,645,o),
(267,616,o),
(267,592,cs),
(267,427,ls),
(267,380,o),
(255,329,o),
(218,308,c)
);
}
);
width = 423;
}
);
unicode = 123;
},
{
glyphname = bar;
layers = (
{
layerId = "421C3252-9543-41E3-AA96-2937FA2B9555";
shapes = (
{
closed = 1;
nodes = (
(74,-169,l),
(74,797,l),
(219,797,l),
(219,-169,l)
);
}
);
width = 293;
}
);
unicode = 124;
},
{
glyphname = braceright;
layers = (
{
layerId = "421C3252-9543-41E3-AA96-2937FA2B9555";
shapes = (
{
closed = 1;
nodes = (
(167,324,o),
(156,382,o),
(156,427,cs),
(156,592,ls),
(156,616,o),
(154,645,o),
(110,645,cs),
(46,645,l),
(46,781,l),
(164,781,ls),
(255,781,o),
(307,744,o),
(307,648,cs),
(307,454,ls),
(307,425,o),
(307,376,o),
(366,376,cs),
(399,376,l),
(399,240,l),
(366,240,ls),
(307,240,o),
(307,189,o),
(307,163,cs),
(307,-31,ls),
(307,-127,o),
(253,-165,o),
(164,-165,cs),
(46,-165,l),
(46,-29,l),
(110,-29,ls),
(154,-29,o),
(156,0,o),
(156,25,cs),
(156,189,ls),
(156,233,o),
(169,287,o),
(206,308,c)
);
}
);
width = 423;
}
);
unicode = 125;
},
{
glyphname = Euro;
layers = (
{
layerId = "421C3252-9543-41E3-AA96-2937FA2B9555";
shapes = (
{
closed = 1;
nodes = (
(316,-8,o),
(191,69,o),
(154,210,c),
(36,210,l),
(60,331,l),
(136,331,l),
(136,378,l),
(43,378,l),
(50,418,o),
(59,458,o),
(66,499,c),
(156,499,l),
(207,643,o),
(328,715,o),
(472,715,cs),
(569,715,o),
(639,693,o),
(707,625,c),
(626,516,l),
(589,550,o),
(549,575,o),
(478,575,cs),
(419,575,o),
(358,552,o),
(329,499,c),
(567,499,l),
(544,378,l),
(296,378,l),
(295,362,o),
(296,346,o),
(296,331,c),
(538,331,l),
(530,290,o),
(522,251,o),
(515,210,c),
(328,210,l),
(351,159,o),
(413,137,o),
(478,137,cs),
(541,137,o),
(589,156,o),
(632,199,c),
(715,88,l),
(654,20,o),
(575,-8,o),
(475,-8,cs)
);
}
);
width = 751;
}
);
unicode = 8364;
},
{
glyphname = quotedblbase;
kernLeft = _kern14;
kernRight = _kern14;
layers = (
{
layerId = "421C3252-9543-41E3-AA96-2937FA2B9555";
shapes = (
{
closed = 1;
nodes = (
(98,-4,o),
(64,27,o),
(64,79,cs),
(64,139,o),
(106,169,o),
(158,169,cs),
(225,169,o),
(256,112,o),
(256,49,cs),
(256,-49,o),
(178,-138,o),
(95,-165,c),
(54,-104,l),
(89,-85,o),
(133,-43,o),
(143,-7,c)
);
},
{
closed = 1;
nodes = (
(337,-4,o),
(303,27,o),
(303,79,cs),
(303,139,o),
(346,169,o),
(398,169,cs),
(466,169,o),
(495,112,o),
(495,49,cs),
(495,-49,o),
(417,-138,o),
(334,-165,c),
(293,-104,l),
(328,-85,o),
(372,-43,o),
(382,-7,c)
);
}
);
width = 550;
}
);
unicode = 8222;
},
{
glyphname = quotesinglbase;
layers = (
{
layerId = "421C3252-9543-41E3-AA96-2937FA2B9555";
shapes = (
{
closed = 1;
nodes = (
(98,-4,o),
(64,27,o),
(64,79,cs),
(64,139,o),
(106,169,o),
(158,169,cs),
(225,169,o),
(256,112,o),
(256,49,cs),
(256,-49,o),
(175,-141,o),
(95,-165,c),
(54,-104,l),
(88,-86,o),
(134,-42,o),
(142,-7,c)
);
}
);
width = 311;
}
);
unicode = 8218;
},
{
glyphname = quotedblright;
layers = (
{
layerId = "421C3252-9543-41E3-AA96-2937FA2B9555";
shapes = (
{
closed = 1;
nodes = (
(98,566,o),
(64,597,o),
(64,649,cs),
(64,709,o),
(106,739,o),
(158,739,cs),
(225,739,o),
(256,682,o),
(256,619,cs),
(256,520,o),
(178,432,o),
(95,405,c),
(54,467,l),
(89,486,o),
(132,528,o),
(143,563,c)
);
},
{
closed = 1;
nodes = (
(337,566,o),
(303,597,o),
(303,649,cs),
(303,709,o),
(346,739,o),
(398,739,cs),
(466,739,o),
(495,682,o),
(495,619,cs),
(495,520,o),
(417,432,o),
(334,405,c),
(293,467,l),
(328,486,o),
(371,528,o),
(382,563,c)
);
}
);
width = 550;
}
);
unicode = 8221;
},
{
glyphname = quoteright;
layers = (
{
layerId = "421C3252-9543-41E3-AA96-2937FA2B9555";
shapes = (
{
closed = 1;
nodes = (
(98,566,o),
(64,597,o),
(64,649,cs),
(64,709,o),
(106,739,o),
(158,739,cs),
(225,739,o),
(256,682,o),
(256,619,cs),
(256,521,o),
(175,429,o),
(95,405,c),
(54,467,l),
(88,485,o),
(134,529,o),
(142,563,c)
);
}
);
width = 311;
}
);
unicode = 8217;
},
{
glyphname = quotedblleft;
layers = (
{
layerId = "421C3252-9543-41E3-AA96-2937FA2B9555";
shapes = (
{
closed = 1;
nodes = (
(452,605,o),
(486,574,o),
(486,523,cs),
(486,463,o),
(443,431,o),
(392,432,c),
(323,432,o),
(294,489,o),
(294,553,cs),
(294,652,o),
(372,738,o),
(455,767,c),
(496,705,l),
(462,684,o),
(418,646,o),
(407,608,c)
);
},
{
closed = 1;
nodes = (
(213,605,o),
(247,574,o),
(247,523,cs),
(247,463,o),
(204,431,o),
(152,432,c),
(84,432,o),
(55,489,o),
(55,553,cs),
(55,652,o),
(133,738,o),
(216,767,c),
(257,705,l),
(223,684,o),
(179,646,o),
(168,608,c)
);
}
);
width = 550;
}
);
unicode = 8220;
},
{
glyphname = quoteleft;
layers = (
{
layerId = "421C3252-9543-41E3-AA96-2937FA2B9555";
shapes = (
{
closed = 1;
nodes = (
(212,605,o),
(247,574,o),
(247,523,cs),
(247,463,o),
(203,431,o),
(152,432,c),
(84,432,o),
(55,489,o),
(55,553,cs),
(55,651,o),
(133,738,o),
(215,767,c),
(257,705,l),
(223,684,o),
(179,646,o),
(168,608,c)
);
}
);
width = 311;
}
);
unicode = 8216;
},
{
glyphname = minus;
layers = (
{
layerId = "421C3252-9543-41E3-AA96-2937FA2B9555";
shapes = (
{
closed = 1;
nodes = (
(61,292,l),
(61,430,l),
(524,430,l),
(524,292,l)
);
}
);
width = 585;
}
);
unicode = 8722;
},
{
glyphname = hyphen;
layers = (
{
layerId = "421C3252-9543-41E3-AA96-2937FA2B9555";
shapes = (
{
closed = 1;
nodes = (
(406,224,l),
(61,224,l),
(61,362,l),
(406,362,l)
);
}
);
width = 467;
}
);
unicode = 45;
},
{
glyphname = endash;
layers = (
{
layerId = "421C3252-9543-41E3-AA96-2937FA2B9555";
shapes = (
{
closed = 1;
nodes = (
(574,224,l),
(61,224,l),
(61,362,l),
(574,362,l)
);
}
);
width = 635;
}
);
unicode = 8211;
},
{
glyphname = emdash;
layers = (
{
layerId = "421C3252-9543-41E3-AA96-2937FA2B9555";
shapes = (
{
closed = 1;
nodes = (
(795,224,l),
(61,224,l),
(61,362,l),
(795,362,l)
);
}
);
width = 856;
}
);
unicode = 8212;
},
{
glyphname = grave;
layers = (
{
layerId = "421C3252-9543-41E3-AA96-2937FA2B9555";
shapes = (
{
closed = 1;
nodes = (
(199,584,l),
(46,769,l),
(209,769,l),
(329,584,l)
);
}
);
width = 421;
}
);
unicode = 96;
},
{
glyphname = acute;
layers = (
{
layerId = "421C3252-9543-41E3-AA96-2937FA2B9555";
shapes = (
{
closed = 1;
nodes = (
(92,584,l),
(212,769,l),
(375,769,l),
(222,584,l)
);
}
);
width = 421;
}
);
unicode = 180;
},
{
glyphname = guillemotright;
layers = (
{
layerId = "421C3252-9543-41E3-AA96-2937FA2B9555";
shapes = (
{
closed = 1;
nodes = (
(46,468,l),
(197,468,l),
(332,273,l),
(197,79,l),
(46,79,l),
(184,273,l)
);
},
{
closed = 1;
nodes = (
(288,468,l),
(439,468,l),
(576,273,l),
(439,79,l),
(288,79,l),
(426,273,l)
);
}
);
width = 602;
}
);
unicode = 187;
},
{
glyphname = guilsinglright;
layers = (
{
layerId = "421C3252-9543-41E3-AA96-2937FA2B9555";
shapes = (
{
closed = 1;
nodes = (
(46,468,l),
(210,468,l),
(346,274,l),
(210,79,l),
(46,79,l),
(185,274,l)
);
}
);
width = 372;
}
);
unicode = 8250;
},
{
glyphname = guillemotleft;
layers = (
{
layerId = "421C3252-9543-41E3-AA96-2937FA2B9555";
shapes = (
{
closed = 1;
nodes = (
(176,274,l),
(314,79,l),
(162,79,l),
(26,274,l),
(162,468,l),
(314,468,l)
);
},
{
closed = 1;
nodes = (
(418,274,l),
(556,79,l),
(403,79,l),
(268,274,l),
(403,468,l),
(556,468,l)
);
}
);
width = 602;
}
);
unicode = 171;
},
{
glyphname = guilsinglleft;
layers = (
{
layerId = "421C3252-9543-41E3-AA96-2937FA2B9555";
shapes = (
{
closed = 1;
nodes = (
(187,274,l),
(325,79,l),
(161,79,l),
(26,274,l),
(161,468,l),
(325,468,l)
);
}
);
width = 371;
}
);
unicode = 8249;
},
{
glyphname = uni00AD;
layers = (
{
layerId = "421C3252-9543-41E3-AA96-2937FA2B9555";
shapes = (
{
closed = 1;
nodes = (
(406,225,l),
(61,225,l),
(61,361,l),
(406,361,l)
);
}
);
width = 467;
}
);
unicode = 173;
},
{
glyphname = ellipsis;
layers = (
{
layerId = "421C3252-9543-41E3-AA96-2937FA2B9555";
shapes = (
{
closed = 1;
nodes = (
(195,184,o),
(236,148,o),
(236,87,cs),
(236,23,o),
(195,-9,o),
(140,-9,cs),
(87,-9,o),
(44,23,o),
(44,87,cs),
(44,148,o),
(88,184,o),
(140,184,cs)
);
},
{
closed = 1;
nodes = (
(456,184,o),
(497,148,o),
(497,87,cs),
(497,23,o),
(456,-9,o),
(401,-9,cs),
(348,-9,o),
(305,23,o),
(305,87,cs),
(305,148,o),
(349,184,o),
(401,184,cs)
);
},
{
closed = 1;
nodes = (
(714,184,o),
(756,148,o),
(756,87,cs),
(756,23,o),
(714,-9,o),
(661,-9,cs),
(606,-9,o),
(564,23,o),
(564,87,cs),
(564,148,o),
(609,184,o),
(661,184,cs)
);
}
);
width = 800;
}
);
unicode = 8230;
},
{
glyphname = uni0445;
layers = (
{
layerId = "421C3252-9543-41E3-AA96-2937FA2B9555";
shapes = (
{
closed = 1;
nodes = (
(372,527,l),
(550,527,l),
(379,266,l),
(562,0,l),
(379,0,l),
(278,164,l),
(178,0,l),
(1,0,l),
(179,268,l),
(10,527,l),
(193,527,l),
(283,370,l)
);
}
);
width = 563;
}
);
unicode = 1093;
},
{
glyphname = uni0431;
kernRight = _kern10;
layers = (
{
layerId = "421C3252-9543-41E3-AA96-2937FA2B9555";
shapes = (
{
closed = 1;
nodes = (
(33,466,o),
(55,572,o),
(127,644,cs),
(197,713,o),
(297,726,o),
(399,735,cs),
(440,738,o),
(479,744,o),
(504,748,cs),
(529,752,o),
(547,753,o),
(563,760,c),
(563,600,l),
(531,589,o),
(490,586,o),
(446,584,cs),
(340,579,o),
(181,585,o),
(181,422,c),
(229,484,o),
(300,504,o),
(364,504,cs),
(507,504,o),
(594,401,o),
(594,265,cs),
(594,94,o),
(481,-9,o),
(318,-8,cs),
(107,-6,o),
(36,165,o),
(34,334,cs)
);
},
{
closed = 1;
nodes = (
(396,133,o),
(435,187,o),
(435,246,cs),
(435,307,o),
(397,358,o),
(324,358,cs),
(253,358,o),
(204,313,o),
(204,249,cs),
(204,193,o),
(237,133,o),
(319,133,cs)
);
}
);
width = 628;
}
);
unicode = 1073;
},
{
glyphname = uni0432;
kernLeft = _kern11;
layers = (
{
layerId = "421C3252-9543-41E3-AA96-2937FA2B9555";
shapes = (
{
closed = 1;
nodes = (
(344,527,ls),
(429,527,o),
(524,499,o),
(524,385,cs),
(524,344,o),
(503,302,o),
(468,282,c),
(516,262,o),
(541,218,o),
(541,162,cs),
(541,25,o),
(415,0,o),
(324,0,cs),
(55,0,l),
(55,527,l)
);
},
{
closed = 1;
nodes = (
(322,124,ls),
(354,124,o),
(384,136,o),
(384,171,cs),
(384,199,o),
(365,211,o),
(332,211,cs),
(212,211,l),
(212,124,l)
);
},
{
closed = 1;
nodes = (
(322,323,ls),
(349,323,o),
(371,338,o),
(372,363,cs),
(372,387,o),
(354,403,o),
(325,403,cs),
(212,403,l),
(212,323,l)
);
}
);
width = 578;
}
);
unicode = 1074;
},
{
glyphname = uni0433;
kernLeft = _kern11;
kernRight = _kern24;
layers = (
{
layerId = "421C3252-9543-41E3-AA96-2937FA2B9555";
shapes = (
{
closed = 1;
nodes = (
(446,527,l),
(446,387,l),
(212,387,l),
(212,0,l),
(55,0,l),
(55,527,l)
);
}
);
width = 457;
}
);
unicode = 1075;
},
{
glyphname = uni0434;
kernRight = _kern13;
layers = (
{
layerId = "421C3252-9543-41E3-AA96-2937FA2B9555";
shapes = (
{
closed = 1;
nodes = (
(563,527,l),
(563,140,l),
(630,140,l),
(630,-142,l),
(474,-142,l),
(474,0,l),
(164,0,l),
(164,-142,l),
(9,-142,l),
(9,138,l),
(74,138,o),
(97,226,o),
(105,284,cs),
(116,365,o),
(117,447,o),
(117,527,c)
);
},
{
closed = 1;
nodes = (
(405,140,l),
(405,387,l),
(257,387,l),
(252,308,o),
(256,214,o),
(222,140,c)
);
}
);
width = 639;
}
);
unicode = 1076;
},
{
glyphname = uni0436;
layers = (
{
layerId = "421C3252-9543-41E3-AA96-2937FA2B9555";
shapes = (
{
closed = 1;
nodes = (
(508,191,l),
(508,0,l),
(350,0,l),
(350,191,l),
(274,191,l),
(182,0,l),
(1,0,l),
(146,276,l),
(9,527,l),
(182,527,l),
(278,331,l),
(350,331,l),
(350,527,l),
(508,527,l),
(508,331,l),
(581,331,l),
(675,527,l),
(849,527,l),
(710,276,l),
(857,0,l),
(676,0,l),
(585,191,l)
);
}
);
width = 859;
}
);
unicode = 1078;
},
{
glyphname = uni043A;
kernLeft = _kern11;
layers = (
{
layerId = "421C3252-9543-41E3-AA96-2937FA2B9555";
shapes = (
{
closed = 1;
nodes = (
(212,191,l),
(212,0,l),
(55,0,l),
(55,527,l),
(212,527,l),
(212,332,l),
(286,332,l),
(398,527,l),
(579,527,l),
(422,279,l),
(581,0,l),
(397,0,l),
(292,191,l)
);
}
);
width = 581;
}
);
unicode = 1082;
},
{
glyphname = uni0438;
kernLeft = _kern11;
layers = (
{
layerId = "421C3252-9543-41E3-AA96-2937FA2B9555";
shapes = (
{
closed = 1;
nodes = (
(212,244,l),
(437,527,l),
(569,527,l),
(569,0,l),
(411,0,l),
(411,272,l),
(194,0,l),
(55,0,l),
(55,527,l),
(212,527,l)
);
}
);
width = 623;
}
);
unicode = 1080;
},
{
glyphname = uni0439;
layers = (
{
layerId = "421C3252-9543-41E3-AA96-2937FA2B9555";
shapes = (
{
closed = 1;
nodes = (
(210,562,o),
(128,618,o),
(120,731,c),
(253,731,l),
(260,692,o),
(286,672,o),
(321,672,cs),
(361,672,o),
(384,692,o),
(390,731,c),
(522,731,l),
(511,616,o),
(436,562,o),
(321,562,cs)
);
},
{
closed = 1;
nodes = (
(212,244,l),
(437,527,l),
(569,527,l),
(569,0,l),
(411,0,l),
(411,272,l),
(194,0,l),
(55,0,l),
(55,527,l),
(212,527,l)
);
}
);
width = 623;
}
);
unicode = 1081;
},
{
glyphname = uni043B;
layers = (
{
layerId = "421C3252-9543-41E3-AA96-2937FA2B9555";
shapes = (
{
closed = 1;
nodes = (
(534,527,l),
(534,0,l),
(377,0,l),
(377,386,l),
(246,386,l),
(245,313,o),
(245,227,o),
(231,148,cs),
(208,21,o),
(135,0,o),
(48,0,cs),
(6,0,l),
(6,137,l),
(77,137,o),
(92,215,o),
(98,306,cs),
(100,342,o),
(102,390,o),
(103,429,cs),
(103,468,o),
(103,503,o),
(103,527,c)
);
}
);
width = 589;
}
);
unicode = 1083;
},
{
glyphname = uni043C;
kernLeft = _kern11;
layers = (
{
layerId = "421C3252-9543-41E3-AA96-2937FA2B9555";
shapes = (
{
closed = 1;
nodes = (
(351,94,l),
(212,299,l),
(212,0,l),
(55,0,l),
(55,527,l),
(227,527,l),
(373,307,l),
(518,527,l),
(688,527,l),
(688,0,l),
(530,0,l),
(530,298,l),
(394,94,l)
);
}
);
width = 742;
}
);
unicode = 1084;
},
{
glyphname = uni043D;
kernLeft = _kern11;
layers = (
{
layerId = "421C3252-9543-41E3-AA96-2937FA2B9555";
shapes = (
{
closed = 1;
nodes = (
(212,333,l),
(392,333,l),
(392,527,l),
(549,527,l),
(549,0,l),
(392,0,l),
(392,193,l),
(212,193,l),
(212,0,l),
(55,0,l),
(55,527,l),
(212,527,l)
);
}
);
width = 604;
}
);
unicode = 1085;
},
{
glyphname = uni043F;
kernLeft = _kern11;
layers = (
{
layerId = "421C3252-9543-41E3-AA96-2937FA2B9555";
shapes = (
{
closed = 1;
nodes = (
(546,527,l),
(546,0,l),
(389,0,l),
(389,387,l),
(212,387,l),
(212,0,l),
(55,0,l),
(55,527,l)
);
}
);
width = 601;
}
);
unicode = 1087;
},
{
glyphname = uni0442;
layers = (
{
layerId = "421C3252-9543-41E3-AA96-2937FA2B9555";
shapes = (
{
closed = 1;
nodes = (
(-4,387,l),
(-4,527,l),
(495,527,l),
(495,387,l),
(324,387,l),
(324,0,l),
(167,0,l),
(167,387,l)
);
}
);
width = 491;
}
);
unicode = 1090;
},
{
glyphname = uni0444;
kernLeft = _kern9;
kernRight = _kern10;
layers = (
{
layerId = "421C3252-9543-41E3-AA96-2937FA2B9555";
shapes = (
{
closed = 1;
nodes = (
(481,705,l),
(481,537,l),
(651,534,o),
(773,446,o),
(773,261,c),
(768,82,o),
(647,1,o),
(481,-7,c),
(481,-211,l),
(323,-211,l),
(323,-6,l),
(158,-1,o),
(34,84,o),
(31,264,cs),
(28,445,o),
(155,537,o),
(323,537,c),
(323,705,l)
);
},
{
closed = 1;
nodes = (
(323,395,l),
(239,395,o),
(192,342,o),
(192,265,cs),
(192,186,o),
(240,134,o),
(323,133,c)
);
},
{
closed = 1;
nodes = (
(481,133,l),
(564,134,o),
(612,186,o),
(612,265,cs),
(612,342,o),
(565,395,o),
(481,395,c)
);
}
);
width = 803;
}
);
unicode = 1092;
},
{
glyphname = uni0446;
kernLeft = _kern11;
kernRight = _kern13;
layers = (
{
layerId = "421C3252-9543-41E3-AA96-2937FA2B9555";
shapes = (
{
closed = 1;
nodes = (
(55,0,l),
(55,527,l),
(212,527,l),
(212,140,l),
(393,140,l),
(393,527,l),
(550,527,l),
(550,140,l),
(621,140,l),
(621,-142,l),
(467,-142,l),
(467,0,l)
);
}
);
width = 630;
}
);
unicode = 1094;
},
{
glyphname = uni0447;
kernLeft = _kern11;
layers = (
{
layerId = "421C3252-9543-41E3-AA96-2937FA2B9555";
shapes = (
{
closed = 1;
nodes = (
(31,527,l),
(189,527,l),
(189,396,ls),
(189,335,o),
(200,308,o),
(271,305,c),
(298,305,o),
(327,308,o),
(347,311,c),
(347,527,l),
(505,527,l),
(505,0,l),
(347,0,l),
(347,170,l),
(304,165,o),
(279,163,o),
(243,163,c),
(175,166,o),
(119,179,o),
(82,218,cs),
(46,255,o),
(31,306,o),
(31,386,cs)
);
}
);
width = 560;
}
);
unicode = 1095;
},
{
glyphname = uni0448;
kernLeft = _kern11;
layers = (
{
layerId = "421C3252-9543-41E3-AA96-2937FA2B9555";
shapes = (
{
closed = 1;
nodes = (
(55,0,l),
(55,527,l),
(212,527,l),
(212,140,l),
(350,140,l),
(350,527,l),
(508,527,l),
(508,140,l),
(646,140,l),
(646,527,l),
(804,527,l),
(804,0,l)
);
}
);
width = 859;
}
);
unicode = 1096;
},
{
glyphname = uni0449;
kernLeft = _kern11;
kernRight = _kern13;
layers = (
{
layerId = "421C3252-9543-41E3-AA96-2937FA2B9555";
shapes = (
{
closed = 1;
nodes = (
(55,0,l),
(55,527,l),
(212,527,l),
(212,140,l),
(351,140,l),
(351,527,l),
(509,527,l),
(509,140,l),
(647,140,l),
(647,527,l),
(805,527,l),
(805,140,l),
(876,140,l),
(876,-142,l),
(720,-142,l),
(720,0,l)
);
}
);
width = 885;
}
);
unicode = 1097;
},
{
glyphname = uni044A;
layers = (
{
layerId = "421C3252-9543-41E3-AA96-2937FA2B9555";
shapes = (
{
closed = 1;
nodes = (
(1,387,l),
(1,527,l),
(274,527,l),
(274,375,l),
(373,375,ls),
(492,375,o),
(587,331,o),
(587,198,cs),
(587,39,o),
(453,0,o),
(342,0,cs),
(116,0,l),
(116,387,l)
);
},
{
closed = 1;
nodes = (
(354,136,ls),
(401,136,o),
(429,152,o),
(429,192,cs),
(429,227,o),
(400,241,o),
(363,241,cs),
(274,241,l),
(274,136,l)
);
}
);
width = 614;
}
);
unicode = 1098;
},
{
glyphname = uni044B;
kernLeft = _kern11;
layers = (
{
layerId = "421C3252-9543-41E3-AA96-2937FA2B9555";
shapes = (
{
closed = 1;
nodes = (
(212,527,l),
(212,375,l),
(294,375,ls),
(410,375,o),
(507,334,o),
(507,196,cs),
(507,40,o),
(373,0,o),
(268,0,cs),
(55,0,l),
(55,527,l)
);
},
{
closed = 1;
nodes = (
(275,136,ls),
(322,136,o),
(349,153,o),
(349,192,cs),
(349,228,o),
(318,241,o),
(283,241,cs),
(212,241,l),
(212,136,l)
);
},
{
closed = 1;
nodes = (
(724,0,l),
(567,0,l),
(567,527,l),
(724,527,l)
);
}
);
width = 779;
}
);
unicode = 1099;
},
{
glyphname = uni044C;
kernLeft = _kern11;
layers = (
{
layerId = "421C3252-9543-41E3-AA96-2937FA2B9555";
shapes = (
{
closed = 1;
nodes = (
(212,527,l),
(212,375,l),
(322,375,ls),
(443,375,o),
(535,329,o),
(535,196,cs),
(535,40,o),
(401,0,o),
(294,0,cs),
(55,0,l),
(55,527,l)
);
},
{
closed = 1;
nodes = (
(303,136,ls),
(346,136,o),
(377,153,o),
(377,192,cs),
(377,231,o),
(346,241,o),
(310,241,cs),
(212,241,l),
(212,136,l)
);
}
);
width = 567;
}
);
unicode = 1100;
},
{
glyphname = uni044E;
kernLeft = _kern11;
kernRight = _kern10;
layers = (
{
layerId = "421C3252-9543-41E3-AA96-2937FA2B9555";
shapes = (
{
closed = 1;
nodes = (
(450,394,o),
(415,330,o),
(415,263,cs),
(415,194,o),
(450,134,o),
(526,134,cs),
(603,134,o),
(635,196,o),
(635,263,cs),
(635,330,o),
(605,394,o),
(526,394,cs)
);
},
{
closed = 1;
nodes = (
(212,334,l),
(273,334,l),
(296,458,o),
(385,538,o),
(526,538,cs),
(688,538,o),
(792,435,o),
(792,265,cs),
(792,90,o),
(695,-8,o),
(526,-8,cs),
(383,-8,o),
(294,65,o),
(273,193,c),
(212,193,l),
(212,0,l),
(55,0,l),
(55,527,l),
(212,527,l)
);
}
);
width = 822;
}
);
unicode = 1102;
},
{
glyphname = uni044F;
kernLeft = _kern11;
layers = (
{
layerId = "421C3252-9543-41E3-AA96-2937FA2B9555";
shapes = (
{
closed = 1;
nodes = (
(536,527,l),
(536,0,l),
(379,0,l),
(379,159,l),
(319,159,l),
(210,0,l),
(21,0,l),
(167,188,l),
(98,211,o),
(52,271,o),
(52,347,cs),
(52,487,o),
(161,527,o),
(273,527,cs)
);
},
{
closed = 1;
nodes = (
(379,288,l),
(379,394,l),
(275,394,ls),
(235,394,o),
(211,377,o),
(211,342,cs),
(211,299,o),
(251,288,o),
(287,288,cs)
);
}
);
width = 591;
}
);
unicode = 1103;
},
{
glyphname = u_alt;
layers = (
{
layerId = "421C3252-9543-41E3-AA96-2937FA2B9555";
shapes = (
{
closed = 1;
nodes = (
(414,64,l),
(373,5,o),
(311,-8,o),
(251,-8,cs),
(92,-8,o),
(49,104,o),
(49,235,cs),
(49,527,l),
(207,527,l),
(207,254,l),
(208,209,o),
(216,166,o),
(255,144,cs),
(268,137,o),
(284,133,o),
(304,134,cs),
(344,135,o),
(371,155,o),
(386,178,cs),
(403,205,o),
(405,244,o),
(405,267,cs),
(405,527,l),
(563,527,l),
(563,0,l),
(419,0,l)
);
}
);
width = 617;
}
);
},
{
glyphname = uni0410;
kernLeft = _kern30;
kernRight = _kern30;
layers = (
{
layerId = "421C3252-9543-41E3-AA96-2937FA2B9555";
shapes = (
{
closed = 1;
nodes = (
(269,263,l),
(459,263,l),
(428,352,o),
(397,441,o),
(365,530,c)
);
},
{
closed = 1;
nodes = (
(219,117,l),
(176,0,l),
(0,0,l),
(279,708,l),
(453,708,l),
(728,0,l),
(551,0,l),
(509,117,l)
);
}
);
width = 730;
}
);
unicode = 1040;
},
{
glyphname = uni0415;
layers = (
{
layerId = "421C3252-9543-41E3-AA96-2937FA2B9555";
shapes = (
{
closed = 1;
nodes = (
(594,708,l),
(594,559,l),
(237,559,l),
(237,423,l),
(540,423,l),
(540,278,l),
(237,278,l),
(237,147,l),
(594,147,l),
(594,0,l),
(74,0,l),
(74,708,l)
);
}
);
width = 629;
}
);
unicode = 1045;
},
{
glyphname = uni041C;
layers = (
{
layerId = "421C3252-9543-41E3-AA96-2937FA2B9555";
shapes = (
{
closed = 1;
nodes = (
(269,708,l),
(461,386,l),
(651,708,l),
(840,708,l),
(840,0,l),
(677,0,l),
(677,470,l),
(492,161,l),
(424,161,l),
(237,470,l),
(237,0,l),
(74,0,l),
(74,708,l)
);
}
);
width = 914;
}
);
unicode = 1052;
},
{
glyphname = uni041D;
layers = (
{
layerId = "421C3252-9543-41E3-AA96-2937FA2B9555";
shapes = (
{
closed = 1;
nodes = (
(237,423,l),
(515,423,l),
(515,708,l),
(678,708,l),
(678,0,l),
(515,0,l),
(515,276,l),
(237,276,l),
(237,0,l),
(74,0,l),
(74,708,l),
(237,708,l)
);
}
);
width = 752;
}
);
unicode = 1053;
},
{
glyphname = uni0420;
layers = (
{
layerId = "421C3252-9543-41E3-AA96-2937FA2B9555";
shapes = (
{
closed = 1;
nodes = (
(358,708,ls),
(523,708,o),
(638,643,o),
(638,462,cs),
(638,290,o),
(518,204,o),
(360,204,cs),
(237,204,l),
(237,0,l),
(74,0,l),
(74,708,l)
);
},
{
closed = 1;
nodes = (
(356,348,ls),
(427,348,o),
(475,385,o),
(478,453,c),
(478,529,o),
(436,559,o),
(355,559,cs),
(237,559,l),
(237,348,l)
);
}
);
width = 669;
}
);
unicode = 1056;
},
{
glyphname = uni0422;
kernLeft = _kern28;
kernRight = _kern28;
layers = (
{
layerId = "421C3252-9543-41E3-AA96-2937FA2B9555";
shapes = (
{
closed = 1;
nodes = (
(5,559,l),
(5,708,l),
(601,708,l),
(601,559,l),
(384,559,l),
(384,0,l),
(221,0,l),
(221,559,l)
);
}
);
width = 606;
}
);
unicode = 1058;
},
{
glyphname = uni0425;
layers = (
{
layerId = "421C3252-9543-41E3-AA96-2937FA2B9555";
shapes = (
{
closed = 1;
nodes = (
(496,708,l),
(686,708,l),
(447,354,l),
(692,0,l),
(499,0,l),
(345,234,l),
(185,0,l),
(1,0,l),
(249,355,l),
(9,708,l),
(202,708,l),
(350,473,l)
);
}
);
width = 693;
}
);
unicode = 1061;
},
{
glyphname = T;
kernLeft = _kern28;
kernRight = _kern28;
layers = (
{
layerId = "421C3252-9543-41E3-AA96-2937FA2B9555";
shapes = (
{
closed = 1;
nodes = (
(5,559,l),
(5,708,l),
(600,708,l),
(600,559,l),
(384,559,l),
(384,0,l),
(221,0,l),
(221,559,l)
);
}
);
width = 605;
}
);
unicode = 84;
},
{
glyphname = uni0412;
layers = (
{
layerId = "421C3252-9543-41E3-AA96-2937FA2B9555";
shapes = (
{
closed = 1;
nodes = (
(73,0,l),
(73,708,l),
(406,708,ls),
(521,708,o),
(624,661,o),
(624,525,cs),
(624,466,o),
(602,416,o),
(551,385,c),
(620,358,o),
(656,298,o),
(656,217,cs),
(656,42,o),
(496,0,o),
(358,0,cs)
);
},
{
closed = 1;
nodes = (
(351,427,ls),
(418,427,o),
(464,445,o),
(464,498,cs),
(464,552,o),
(416,560,o),
(366,560,cs),
(236,560,l),
(236,427,l)
);
},
{
closed = 1;
nodes = (
(236,147,l),
(359,147,ls),
(434,147,o),
(493,158,o),
(493,225,cs),
(493,285,o),
(438,292,o),
(377,292,cs),
(236,292,l)
);
}
);
width = 692;
}
);
unicode = 1042;
},
{
glyphname = uni041F;
layers = (
{
layerId = "421C3252-9543-41E3-AA96-2937FA2B9555";
shapes = (
{
closed = 1;
nodes = (
(674,708,l),
(674,0,l),
(511,0,l),
(511,560,l),
(237,560,l),
(237,0,l),
(74,0,l),
(74,708,l)
);
}
);
width = 748;
}
);
unicode = 1055;
},
{
glyphname = uni0413;
kernLeft = _kern23;
kernRight = _kern23;
layers = (
{
layerId = "421C3252-9543-41E3-AA96-2937FA2B9555";
shapes = (
{
closed = 1;
nodes = (
(74,0,l),
(74,708,l),
(575,708,l),
(575,559,l),
(237,559,l),
(237,0,l)
);
}
);
width = 595;
}
);
unicode = 1043;
},
{
glyphname = uni041B;
layers = (
{
layerId = "421C3252-9543-41E3-AA96-2937FA2B9555";
shapes = (
{
closed = 1;
nodes = (
(270,559,l),
(269,390,ls),
(268,294,o),
(268,167,o),
(223,88,cs),
(187,24,o),
(121,-1,o),
(30,-1,cs),
(1,-1,l),
(1,148,l),
(88,148,o),
(104,213,o),
(109,283,cs),
(120,456,o),
(115,567,o),
(118,708,c),
(628,708,l),
(628,0,l),
(465,0,l),
(465,559,l)
);
}
);
width = 702;
}
);
unicode = 1051;
},
{
glyphname = uni0414;
kernRight = _kern12;
layers = (
{
layerId = "421C3252-9543-41E3-AA96-2937FA2B9555";
shapes = (
{
closed = 1;
nodes = (
(491,147,l),
(491,559,l),
(284,559,l),
(283,460,o),
(282,405,o),
(280,352,cs),
(279,299,o),
(269,190,o),
(245,147,c)
);
},
{
closed = 1;
nodes = (
(740,-173,l),
(580,-173,l),
(580,0,l),
(168,0,l),
(168,-173,l),
(9,-173,l),
(9,147,l),
(104,155,o),
(115,256,o),
(121,338,cs),
(130,461,o),
(133,638,o),
(133,708,c),
(654,708,l),
(654,147,l),
(740,147,l)
);
}
);
width = 749;
}
);
unicode = 1044;
},
{
glyphname = uni0411;
layers = (
{
layerId = "421C3252-9543-41E3-AA96-2937FA2B9555";
shapes = (
{
closed = 1;
nodes = (
(74,0,l),
(74,708,l),
(604,708,l),
(604,559,l),
(237,559,l),
(237,442,l),
(394,442,ls),
(543,442,o),
(650,394,o),
(650,231,c),
(647,44,o),
(492,3,o),
(355,0,c)
);
},
{
closed = 1;
nodes = (
(237,147,l),
(359,147,ls),
(420,147,o),
(489,155,o),
(489,228,cs),
(489,294,o),
(428,300,o),
(367,300,cs),
(237,300,l)
);
}
);
width = 692;
}
);
unicode = 1041;
},
{
glyphname = uni0416;
layers = (
{
layerId = "421C3252-9543-41E3-AA96-2937FA2B9555";
shapes = (
{
closed = 1;
nodes = (
(581,279,l),
(581,0,l),
(418,0,l),
(418,279,l),
(334,279,l),
(189,0,l),
(1,0,l),
(205,369,l),
(2,708,l),
(188,708,l),
(341,425,l),
(418,425,l),
(418,708,l),
(581,708,l),
(581,425,l),
(657,425,l),
(812,708,l),
(997,708,l),
(794,369,l),
(998,0,l),
(809,0,l),
(665,279,l)
);
}
);
width = 999;
}
);
unicode = 1046;
},
{
glyphname = uni0417;
kernLeft = _kern7;
kernRight = _kern8;
layers = (
{
layerId = "421C3252-9543-41E3-AA96-2937FA2B9555";
shapes = (
{
closed = 1;
nodes = (
(186,232,l),
(202,158,o),
(280,144,o),
(349,144,cs),
(409,144,o),
(476,160,o),
(476,225,cs),
(476,284,o),
(420,294,o),
(367,294,cs),
(255,294,l),
(255,427,l),
(337,427,ls),
(397,427,o),
(451,443,o),
(451,500,c),
(448,555,o),
(386,568,o),
(333,568,cs),
(261,568,o),
(209,545,o),
(202,489,c),
(46,489,l),
(51,656,o),
(186,716,o),
(338,716,cs),
(458,716,o),
(612,677,o),
(612,525,cs),
(612,464,o),
(587,417,o),
(537,383,c),
(609,356,o),
(638,295,o),
(638,223,cs),
(638,39,o),
(475,-7,o),
(345,-7,cs),
(182,-7,o),
(44,52,o),
(31,232,c)
);
}
);
width = 674;
}
);
unicode = 1047;
},
{
glyphname = uni0418;
layers = (
{
layerId = "421C3252-9543-41E3-AA96-2937FA2B9555";
shapes = (
{
closed = 1;
nodes = (
(237,281,l),
(566,708,l),
(696,708,l),
(696,0,l),
(533,0,l),
(533,421,l),
(204,0,l),
(74,0,l),
(74,708,l),
(237,708,l)
);
}
);
width = 770;
}
);
unicode = 1048;
},
{
glyphname = uni0419;
layers = (
{
layerId = "421C3252-9543-41E3-AA96-2937FA2B9555";
shapes = (
{
closed = 1;
nodes = (
(279,745,o),
(201,799,o),
(192,916,c),
(324,916,l),
(329,877,o),
(356,857,o),
(392,857,cs),
(429,857,o),
(455,877,o),
(459,916,c),
(592,916,l),
(581,799,o),
(504,745,o),
(392,745,cs)
);
},
{
closed = 1;
nodes = (
(237,281,l),
(566,708,l),
(696,708,l),
(696,0,l),
(533,0,l),
(533,421,l),
(204,0,l),
(74,0,l),
(74,708,l),
(237,708,l)
);
}
);
width = 770;
}
);
unicode = 1049;
},
{
glyphname = uni041A;
layers = (
{
layerId = "421C3252-9543-41E3-AA96-2937FA2B9555";
shapes = (
{
closed = 1;
nodes = (
(237,278,l),
(237,0,l),
(74,0,l),
(74,708,l),
(237,708,l),
(237,426,l),
(324,426,l),
(503,708,l),
(690,708,l),
(460,370,l),
(691,0,l),
(501,0,l),
(333,278,l)
);
}
);
width = 692;
}
);
unicode = 1050;
},
{
glyphname = uni0423;
layers = (
{
layerId = "421C3252-9543-41E3-AA96-2937FA2B9555";
shapes = (
{
closed = 1;
nodes = (
(482,708,l),
(660,708,l),
(470,266,ls),
(406,121,o),
(359,0,o),
(158,0,cs),
(114,0,l),
(114,150,l),
(142,150,ls),
(193,150,o),
(240,159,o),
(272,217,c),
(17,708,l),
(206,708,l),
(357,378,l)
);
}
);
width = 655;
}
);
unicode = 1059;
},
{
glyphname = uni0424;
kernLeft = _kern7;
kernRight = _kern8;
layers = (
{
layerId = "421C3252-9543-41E3-AA96-2937FA2B9555";
shapes = (
{
closed = 1;
nodes = (
(360,639,l),
(360,737,l),
(523,737,l),
(523,639,l),
(711,639,o),
(849,559,o),
(849,367,c),
(846,168,o),
(725,92,o),
(523,92,c),
(523,-17,l),
(360,-17,l),
(360,92,l),
(168,92,o),
(35,168,o),
(35,363,c),
(38,550,o),
(154,639,o),
(339,639,cs)
);
},
{
closed = 1;
nodes = (
(523,500,l),
(523,231,l),
(636,231,o),
(690,270,o),
(690,365,cs),
(690,446,o),
(638,500,o),
(542,500,cs)
);
},
{
closed = 1;
nodes = (
(360,231,l),
(360,500,l),
(260,500,o),
(193,470,o),
(193,366,cs),
(193,282,o),
(245,231,o),
(341,231,cs)
);
}
);
width = 884;
}
);
unicode = 1060;
},
{
glyphname = uni0426;
kernRight = _kern12;
layers = (
{
layerId = "421C3252-9543-41E3-AA96-2937FA2B9555";
shapes = (
{
closed = 1;
nodes = (
(499,147,l),
(499,708,l),
(662,708,l),
(662,147,l),
(746,147,l),
(746,-174,l),
(583,-174,l),
(583,0,l),
(74,0,l),
(74,708,l),
(237,708,l),
(237,147,l)
);
}
);
width = 752;
}
);
unicode = 1062;
},
{
glyphname = uni0427;
layers = (
{
layerId = "421C3252-9543-41E3-AA96-2937FA2B9555";
shapes = (
{
closed = 1;
nodes = (
(51,708,l),
(214,708,l),
(214,488,ls),
(214,397,o),
(254,374,o),
(348,374,cs),
(388,374,o),
(423,377,o),
(466,385,c),
(466,708,l),
(629,708,l),
(629,0,l),
(466,0,l),
(466,233,l),
(414,225,o),
(363,222,o),
(314,223,cs),
(242,224,o),
(175,238,o),
(126,277,cs),
(73,320,o),
(51,386,o),
(51,474,cs)
);
}
);
width = 703;
}
);
unicode = 1063;
},
{
glyphname = uni0428;
layers = (
{
layerId = "421C3252-9543-41E3-AA96-2937FA2B9555";
shapes = (
{
closed = 1;
nodes = (
(74,0,l),
(74,708,l),
(237,708,l),
(237,147,l),
(428,147,l),
(428,708,l),
(591,708,l),
(591,147,l),
(782,147,l),
(782,708,l),
(945,708,l),
(945,0,l)
);
}
);
width = 1019;
}
);
unicode = 1064;
},
{
glyphname = uni0429;
kernRight = _kern12;
layers = (
{
layerId = "421C3252-9543-41E3-AA96-2937FA2B9555";
shapes = (
{
closed = 1;
nodes = (
(74,0,l),
(74,708,l),
(237,708,l),
(237,147,l),
(428,147,l),
(428,708,l),
(591,708,l),
(591,147,l),
(781,147,l),
(781,708,l),
(944,708,l),
(944,147,l),
(1028,147,l),
(1028,-174,l),
(865,-174,l),
(865,0,l)
);
}
);
width = 1034;
}
);
unicode = 1065;
},
{
glyphname = uni042A;
layers = (
{
layerId = "421C3252-9543-41E3-AA96-2937FA2B9555";
shapes = (
{
closed = 1;
nodes = (
(159,0,l),
(159,559,l),
(1,559,l),
(1,708,l),
(322,708,l),
(322,459,l),
(474,459,ls),
(613,459,o),
(734,408,o),
(734,236,cs),
(734,52,o),
(592,0,o),
(444,0,cs)
);
},
{
closed = 1;
nodes = (
(322,147,l),
(438,147,ls),
(510,147,o),
(575,159,o),
(575,237,cs),
(575,297,o),
(527,315,o),
(463,315,cs),
(322,315,l)
);
}
);
width = 771;
}
);
unicode = 1066;
},
{
glyphname = uni042B;
layers = (
{
layerId = "421C3252-9543-41E3-AA96-2937FA2B9555";
shapes = (
{
closed = 1;
nodes = (
(74,0,l),
(74,708,l),
(237,708,l),
(237,459,l),
(351,459,ls),
(492,459,o),
(613,403,o),
(613,236,c),
(608,52,o),
(472,0,o),
(315,0,cs)
);
},
{
closed = 1;
nodes = (
(237,147,l),
(318,147,ls),
(390,147,o),
(453,162,o),
(453,237,cs),
(453,304,o),
(394,315,o),
(330,315,cs),
(237,315,l)
);
},
{
closed = 1;
nodes = (
(699,708,l),
(862,708,l),
(862,0,l),
(699,0,l)
);
}
);
width = 936;
}
);
unicode = 1067;
},
{
glyphname = uni042C;
layers = (
{
layerId = "421C3252-9543-41E3-AA96-2937FA2B9555";
shapes = (
{
closed = 1;
nodes = (
(73,0,l),
(73,708,l),
(236,708,l),
(236,459,l),
(386,459,ls),
(541,459,o),
(647,401,o),
(647,236,cs),
(647,52,o),
(500,0,o),
(346,0,cs)
);
},
{
closed = 1;
nodes = (
(236,147,l),
(353,147,ls),
(425,147,o),
(487,161,o),
(487,237,cs),
(487,300,o),
(434,315,o),
(371,315,cs),
(236,315,l)
);
}
);
width = 684;
}
);
unicode = 1068;
},
{
glyphname = uni042D;
kernLeft = _kern7;
kernRight = _kern8;
layers = (
{
layerId = "421C3252-9543-41E3-AA96-2937FA2B9555";
shapes = (
{
closed = 1;
nodes = (
(518,425,l),
(513,501,o),
(464,568,o),
(357,568,cs),
(269,568,o),
(213,528,o),
(197,464,c),
(39,464,l),
(58,631,o),
(201,717,o),
(358,717,cs),
(583,717,o),
(690,561,o),
(690,355,cs),
(690,142,o),
(572,-7,o),
(353,-7,cs),
(204,-7,o),
(54,68,o),
(35,244,c),
(192,244,l),
(213,164,o),
(298,143,o),
(357,143,c),
(456,146,o),
(514,199,o),
(519,283,c),
(257,283,l),
(257,425,l)
);
}
);
width = 725;
}
);
unicode = 1069;
},
{
glyphname = uni042E;
kernRight = _kern8;
layers = (
{
layerId = "421C3252-9543-41E3-AA96-2937FA2B9555";
shapes = (
{
closed = 1;
nodes = (
(473,249,o),
(521,142,o),
(650,142,cs),
(778,142,o),
(829,250,o),
(829,355,cs),
(829,459,o),
(782,567,o),
(650,567,cs),
(518,567,o),
(473,455,o),
(473,356,cs)
);
},
{
closed = 1;
nodes = (
(237,422,l),
(317,422,l),
(336,595,o),
(465,716,o),
(649,716,cs),
(868,716,o),
(996,574,o),
(996,357,cs),
(996,143,o),
(870,-10,o),
(650,-7,c),
(459,-7,o),
(340,108,o),
(319,277,c),
(237,277,l),
(237,0,l),
(74,0,l),
(74,708,l),
(237,708,l)
);
}
);
width = 1031;
}
);
unicode = 1070;
},
{
glyphname = uni042F;
layers = (
{
layerId = "421C3252-9543-41E3-AA96-2937FA2B9555";
shapes = (
{
closed = 1;
nodes = (
(644,708,l),
(644,0,l),
(481,0,l),
(481,232,l),
(397,232,l),
(235,0,l),
(42,0,l),
(234,254,l),
(123,285,o),
(70,359,o),
(70,470,cs),
(70,657,o),
(207,708,o),
(363,708,cs)
);
},
{
closed = 1;
nodes = (
(481,375,l),
(481,559,l),
(338,559,l),
(277,556,o),
(230,532,o),
(230,466,cs),
(230,394,o),
(302,375,o),
(367,375,cs)
);
}
);
width = 718;
}
);
unicode = 1071;
},
{
glyphname = uni0440;
kernLeft = _kern11;
kernRight = _kern10;
layers = (
{
layerId = "421C3252-9543-41E3-AA96-2937FA2B9555";
shapes = (
{
closed = 1;
nodes = (
(211,464,l),
(254,516,o),
(314,537,o),
(375,537,cs),
(519,537,o),
(608,430,o),
(608,269,cs),
(608,106,o),
(523,-8,o),
(377,-8,cs),
(307,-8,o),
(252,12,o),
(212,52,c),
(212,-210,l),
(55,-210,l),
(55,527,l),
(202,527,l)
);
},
{
closed = 1;
nodes = (
(256,394,o),
(212,333,o),
(212,267,cs),
(212,194,o),
(254,137,o),
(335,134,c),
(420,134,o),
(450,196,o),
(450,266,cs),
(450,331,o),
(415,394,o),
(332,394,cs)
);
}
);
width = 638;
}
);
unicode = 1088;
},
{
glyphname = O;
kernLeft = _kern3;
kernRight = _kern4;
layers = (
{
layerId = "421C3252-9543-41E3-AA96-2937FA2B9555";
shapes = (
{
closed = 1;
nodes = (
(608,717,o),
(747,574,o),
(747,358,cs),
(747,146,o),
(609,-10,o),
(390,-7,c),
(170,-7,o),
(35,142,o),
(35,355,cs),
(35,571,o),
(176,717,o),
(392,717,cs)
);
},
{
closed = 1;
nodes = (
(202,247,o),
(262,146,o),
(394,143,c),
(522,143,o),
(580,249,o),
(580,354,cs),
(580,457,o),
(525,567,o),
(392,567,cs),
(261,567,o),
(202,463,o),
(202,356,cs)
);
}
);
width = 782;
}
);
unicode = 79;
},
{
glyphname = be_alt;
layers = (
{
layerId = "421C3252-9543-41E3-AA96-2937FA2B9555";
shapes = (
{
closed = 1;
nodes = (
(431,767,o),
(483,789,o),
(502,808,c),
(585,695,l),
(572,668,o),
(550,648,o),
(520,634,cs),
(383,569,o),
(199,580,o),
(187,435,c),
(235,486,o),
(293,503,o),
(361,503,cs),
(489,503,o),
(586,414,o),
(586,265,cs),
(586,94,o),
(477,-9,o),
(312,-8,cs),
(99,-6,o),
(31,167,o),
(31,334,cs),
(31,502,o),
(69,616,o),
(199,684,cs),
(252,712,o),
(310,726,o),
(370,746,cs)
);
},
{
closed = 1;
nodes = (
(391,134,o),
(427,193,o),
(427,246,cs),
(427,307,o),
(391,357,o),
(318,357,cs),
(250,357,o),
(201,315,o),
(201,250,cs),
(201,194,o),
(236,134,o),
(314,134,cs)
);
}
);
width = 616;
}
);
},
{
glyphname = a;
kernLeft = _kern27;
kernRight = _kern27;
layers = (
{
layerId = "421C3252-9543-41E3-AA96-2937FA2B9555";
shapes = (
{
closed = 1;
nodes = (
(284,223,ls),
(227,223,o),
(194,204,o),
(194,168,cs),
(194,133,o),
(221,114,o),
(262,114,cs),
(321,114,o),
(376,150,o),
(376,223,c)
);
},
{
closed = 1;
nodes = (
(381,0,l),
(380,68,l),
(369,52,o),
(354,38,o),
(338,27,cs),
(305,5,o),
(268,-8,o),
(211,-8,cs),
(121,-8,o),
(36,45,o),
(36,158,cs),
(36,218,o),
(66,266,o),
(114,291,cs),
(157,314,o),
(217,321,o),
(281,321,cs),
(375,321,l),
(375,370,o),
(346,404,o),
(290,404,c),
(251,405,o),
(213,391,o),
(206,359,c),
(46,359,l),
(62,489,o),
(172,538,o),
(288,538,cs),
(477,538,o),
(527,423,o),
(527,284,cs),
(527,0,l)
);
}
);
width = 580;
}
);
unicode = 97;
},
{
glyphname = c;
kernLeft = _kern5;
kernRight = _kern6;
layers = (
{
layerId = "421C3252-9543-41E3-AA96-2937FA2B9555";
shapes = (
{
closed = 1;
nodes = (
(346,134,o),
(376,160,o),
(383,195,c),
(545,195,l),
(532,55,o),
(424,-8,o),
(299,-8,cs),
(128,-8,o),
(34,91,o),
(34,264,cs),
(34,433,o),
(137,538,o),
(303,538,cs),
(433,538,o),
(529,469,o),
(542,333,c),
(383,333,l),
(375,369,o),
(345,393,o),
(298,393,cs),
(216,393,o),
(192,326,o),
(192,262,cs),
(192,193,o),
(221,134,o),
(298,134,cs)
);
}
);
width = 574;
}
);
unicode = 99;
},
{
glyphname = e;
kernLeft = _kern5;
kernRight = _kern6;
layers = (
{
layerId = "421C3252-9543-41E3-AA96-2937FA2B9555";
shapes = (
{
closed = 1;
nodes = (
(341,123,o),
(370,138,o),
(383,163,c),
(543,163,l),
(514,42,o),
(413,-8,o),
(298,-8,cs),
(131,-8,o),
(34,91,o),
(34,266,cs),
(34,422,o),
(134,538,o),
(296,538,cs),
(459,538,o),
(548,429,o),
(548,278,cs),
(548,257,o),
(546,239,o),
(542,216,c),
(192,216,l),
(197,165,o),
(229,124,o),
(300,123,c)
);
},
{
closed = 1;
nodes = (
(397,322,l),
(397,371,o),
(359,407,o),
(298,407,cs),
(230,407,o),
(198,367,o),
(194,322,c)
);
}
);
width = 582;
}
);
unicode = 101;
},
{
glyphname = f;
layers = (
{
layerId = "421C3252-9543-41E3-AA96-2937FA2B9555";
shapes = (
{
closed = 1;
nodes = (
(381,527,l),
(381,386,l),
(256,386,l),
(256,0,l),
(98,0,l),
(98,386,l),
(19,386,l),
(19,527,l),
(98,527,l),
(98,582,ls),
(98,705,o),
(158,756,o),
(286,756,cs),
(381,756,l),
(381,616,l),
(308,616,ls),
(273,616,o),
(256,599,o),
(256,565,cs),
(256,527,l)
);
}
);
width = 390;
}
);
unicode = 102;
},
{
glyphname = g;
kernLeft = _kern5;
layers = (
{
layerId = "421C3252-9543-41E3-AA96-2937FA2B9555";
shapes = (
{
closed = 1;
nodes = (
(430,55,l),
(394,10,o),
(344,-8,o),
(277,-8,cs),
(189,-8,o),
(131,22,o),
(92,72,cs),
(53,122,o),
(34,189,o),
(34,261,cs),
(34,409,o),
(117,538,o),
(286,538,cs),
(347,538,o),
(397,517,o),
(435,475,c),
(450,527,l),
(590,527,l),
(590,102,ls),
(590,12,o),
(590,-76,o),
(545,-150,cs),
(520,-190,o),
(487,-217,o),
(445,-236,cs),
(403,-255,o),
(356,-261,o),
(315,-261,cs),
(189,-261,o),
(77,-200,o),
(56,-61,c),
(220,-61,l),
(227,-90,o),
(262,-115,o),
(315,-115,cs),
(410,-115,o),
(430,-35,o),
(430,38,cs)
);
},
{
closed = 1;
nodes = (
(395,133,o),
(432,194,o),
(432,266,cs),
(432,337,o),
(391,394,o),
(312,394,cs),
(226,394,o),
(193,325,o),
(193,259,cs),
(193,192,o),
(229,133,o),
(311,133,cs)
);
}
);
width = 644;
}
);
unicode = 103;
},
{
glyphname = j;
layers = (
{
layerId = "421C3252-9543-41E3-AA96-2937FA2B9555";
shapes = (
{
closed = 1;
nodes = (
(63,527,l),
(220,527,l),
(220,-51,ls),
(220,-172,o),
(168,-231,o),
(41,-231,cs),
(-44,-231,l),
(-44,-90,l),
(1,-90,ls),
(50,-90,o),
(63,-58,o),
(63,-28,cs)
);
},
{
closed = 1;
nodes = (
(198,775,o),
(240,740,o),
(240,680,cs),
(240,616,o),
(198,584,o),
(143,584,cs),
(88,584,o),
(45,617,o),
(45,680,cs),
(45,740,o),
(90,775,o),
(143,775,cs)
);
}
);
width = 287;
}
);
unicode = 106;
},
{
glyphname = o;
kernLeft = _kern5;
kernRight = _kern6;
layers = (
{
layerId = "421C3252-9543-41E3-AA96-2937FA2B9555";
shapes = (
{
closed = 1;
nodes = (
(224,392,o),
(190,329,o),
(190,265,cs),
(190,195,o),
(224,136,o),
(304,136,cs),
(385,136,o),
(416,196,o),
(416,265,cs),
(416,329,o),
(385,392,o),
(304,392,cs)
);
},
{
closed = 1;
nodes = (
(144,-8,o),
(34,90,o),
(34,266,cs),
(34,435,o),
(150,538,o),
(308,538,cs),
(467,538,o),
(574,435,o),
(574,266,cs),
(574,90,o),
(465,-8,o),
(303,-8,cs)
);
}
);
width = 608;
}
);
unicode = 111;
},
{
glyphname = r;
kernLeft = _kern29;
kernRight = _kern29;
layers = (
{
layerId = "421C3252-9543-41E3-AA96-2937FA2B9555";
shapes = (
{
closed = 1;
nodes = (
(206,469,l),
(247,524,o),
(298,537,o),
(355,537,cs),
(372,537,o),
(391,537,o),
(400,534,c),
(400,383,l),
(363,383,o),
(300,387,o),
(265,366,cs),
(225,341,o),
(212,299,o),
(212,238,cs),
(212,0,l),
(55,0,l),
(55,527,l),
(196,527,l)
);
}
);
width = 404;
}
);
unicode = 114;
},
{
glyphname = t;
kernLeft = _kern21;
kernRight = _kern21;
layers = (
{
layerId = "421C3252-9543-41E3-AA96-2937FA2B9555";
shapes = (
{
closed = 1;
nodes = (
(251,386,l),
(251,199,ls),
(251,164,o),
(264,140,o),
(308,140,cs),
(358,140,l),
(358,0,l),
(301,0,l),
(160,-3,o),
(94,44,o),
(94,176,cs),
(94,386,l),
(16,386,l),
(16,527,l),
(94,527,l),
(94,664,l),
(251,664,l),
(251,527,l),
(365,527,l),
(365,386,l)
);
}
);
width = 381;
}
);
unicode = 116;
},
{
glyphname = y_alt;
layers = (
{
layerId = "421C3252-9543-41E3-AA96-2937FA2B9555";
shapes = (
{
closed = 1;
nodes = (
(405,-115,o),
(422,-37,o),
(422,47,c),
(385,4,o),
(328,-8,o),
(269,-8,cs),
(119,-8,o),
(62,88,o),
(62,234,cs),
(62,527,l),
(219,527,l),
(219,261,ls),
(219,201,o),
(233,134,o),
(319,134,cs),
(358,134,o),
(385,154,o),
(400,175,cs),
(424,208,o),
(421,256,o),
(421,299,cs),
(421,527,l),
(579,527,l),
(579,105,ls),
(579,2,o),
(577,-90,o),
(526,-164,cs),
(479,-231,o),
(405,-262,o),
(308,-262,cs),
(183,-262,o),
(76,-201,o),
(55,-62,c),
(220,-62,l),
(227,-91,o),
(260,-115,o),
(311,-115,cs)
);
}
);
width = 633;
}
);
},
{
glyphname = y2_alt;
layers = (
{
layerId = "421C3252-9543-41E3-AA96-2937FA2B9555";
shapes = (
{
closed = 1;
nodes = (
(416,527,l),
(588,527,l),
(442,55,ls),
(379,-151,o),
(313,-264,o),
(119,-264,cs),
(81,-264,l),
(81,-110,l),
(99,-110,ls),
(166,-110,o),
(204,-89,o),
(231,-37,c),
(1,527,l),
(187,527,l),
(316,153,l)
);
}
);
width = 589;
}
);
},
{
glyphname = uni0443;
layers = (
{
layerId = "421C3252-9543-41E3-AA96-2937FA2B9555";
shapes = (
{
closed = 1;
nodes = (
(414,527,l),
(588,527,l),
(442,55,ls),
(379,-151,o),
(313,-264,o),
(119,-264,cs),
(81,-264,l),
(81,-110,l),
(99,-110,ls),
(166,-110,o),
(204,-89,o),
(231,-37,c),
(8,527,l),
(194,527,l),
(316,154,l)
);
}
);
width = 589;
}
);
unicode = 1091;
},
{
glyphname = uni0451;
kernLeft = _kern9;
kernRight = _kern10;
layers = (
{
layerId = "421C3252-9543-41E3-AA96-2937FA2B9555";
shapes = (
{
closed = 1;
nodes = (
(225,749,o),
(266,717,o),
(266,661,cs),
(266,602,o),
(225,571,o),
(174,571,cs),
(122,571,o),
(83,602,o),
(83,661,cs),
(83,717,o),
(123,749,o),
(174,749,cs)
);
},
{
closed = 1;
nodes = (
(477,749,o),
(516,717,o),
(516,661,cs),
(516,602,o),
(477,571,o),
(425,571,cs),
(374,571,o),
(334,602,o),
(334,661,cs),
(334,717,o),
(374,749,o),
(425,749,cs)
);
},
{
closed = 1;
nodes = (
(341,123,o),
(370,138,o),
(383,163,c),
(543,163,l),
(514,42,o),
(413,-8,o),
(298,-8,cs),
(131,-8,o),
(34,91,o),
(34,266,cs),
(34,422,o),
(134,538,o),
(296,538,cs),
(459,538,o),
(548,429,o),
(548,278,cs),
(548,257,o),
(546,239,o),
(542,216,c),
(192,216,l),
(197,165,o),
(229,124,o),
(300,123,c)
);
},
{
closed = 1;
nodes = (
(397,322,l),
(397,371,o),
(359,407,o),
(298,407,cs),
(230,407,o),
(198,367,o),
(194,322,c)
);
}
);
width = 582;
}
);
unicode = 1105;
},
{
glyphname = uni0437;
kernLeft = _kern9;
kernRight = _kern10;
layers = (
{
layerId = "421C3252-9543-41E3-AA96-2937FA2B9555";
shapes = (
{
closed = 1;
nodes = (
(496,264,o),
(517,216,o),
(517,168,c),
(512,26,o),
(387,-8,o),
(273,-8,cs),
(162,-8,o),
(35,39,o),
(24,179,c),
(178,179,l),
(186,135,o),
(234,123,o),
(280,123,cs),
(318,123,o),
(366,133,o),
(366,169,cs),
(366,196,o),
(345,209,o),
(304,209,cs),
(218,209,l),
(218,322,l),
(284,322,ls),
(335,322,o),
(354,337,o),
(354,366,cs),
(354,399,o),
(313,408,o),
(277,408,cs),
(237,408,o),
(188,394,o),
(183,355,c),
(34,355,l),
(53,503,o),
(172,538,o),
(284,538,cs),
(385,538,o),
(501,503,o),
(501,377,cs),
(501,336,o),
(480,304,o),
(452,285,c)
);
}
);
width = 547;
}
);
unicode = 1079;
},
{
glyphname = uni044D;
kernLeft = _kern9;
kernRight = _kern10;
layers = (
{
layerId = "421C3252-9543-41E3-AA96-2937FA2B9555";
shapes = (
{
closed = 1;
nodes = (
(344,125,o),
(379,164,o),
(379,201,c),
(202,201,l),
(202,326,l),
(378,326,l),
(373,367,o),
(340,400,o),
(280,400,cs),
(237,400,o),
(198,381,o),
(187,356,c),
(26,356,l),
(50,477,o),
(162,536,o),
(279,536,cs),
(444,536,o),
(534,435,o),
(534,264,cs),
(534,95,o),
(447,-9,o),
(274,-9,cs),
(169,-9,o),
(52,38,o),
(26,162,c),
(186,162,l),
(203,138,o),
(239,125,o),
(280,125,cs)
);
}
);
width = 565;
}
);
unicode = 1101;
},
{
glyphname = C;
kernLeft = _kern3;
kernRight = _kern4;
layers = (
{
layerId = "421C3252-9543-41E3-AA96-2937FA2B9555";
shapes = (
{
closed = 1;
nodes = (
(203,250,o),
(254,143,o),
(383,143,cs),
(466,143,o),
(518,180,o),
(533,247,c),
(690,247,l),
(677,79,o),
(537,-7,o),
(381,-7,cs),
(161,-7,o),
(35,137,o),
(35,355,cs),
(35,568,o),
(166,717,o),
(382,717,cs),
(541,717,o),
(670,636,o),
(686,461,c),
(531,461,l),
(515,528,o),
(466,567,o),
(383,567,cs),
(253,567,o),
(203,465,o),
(203,356,cs)
);
}
);
width = 719;
}
);
unicode = 67;
},
{
glyphname = S;
kernLeft = _kern3;
kernRight = _kern4;
layers = (
{
layerId = "421C3252-9543-41E3-AA96-2937FA2B9555";
shapes = (
{
closed = 1;
nodes = (
(445,492,l),
(437,543,o),
(393,570,o),
(325,570,cs),
(277,570,o),
(227,552,o),
(227,508,cs),
(227,463,o),
(269,453,o),
(338,434,cs),
(478,396,o),
(615,392,o),
(620,216,c),
(620,59,o),
(494,-8,o),
(346,-8,cs),
(199,-8,o),
(57,56,o),
(44,229,c),
(209,229,l),
(225,163,o),
(287,142,o),
(357,142,cs),
(401,142,o),
(456,157,o),
(456,206,cs),
(456,241,o),
(428,257,o),
(391,266,c),
(211,306,o),
(65,331,o),
(65,501,cs),
(65,673,o),
(216,717,o),
(345,717,cs),
(485,717,o),
(588,641,o),
(604,492,c)
);
}
);
width = 665;
}
);
unicode = 83;
},
{
glyphname = uni0421;
kernLeft = _kern7;
kernRight = _kern8;
layers = (
{
layerId = "421C3252-9543-41E3-AA96-2937FA2B9555";
shapes = (
{
closed = 1;
nodes = (
(203,250,o),
(254,143,o),
(382,143,cs),
(465,143,o),
(518,180,o),
(533,247,c),
(690,247,l),
(677,79,o),
(536,-7,o),
(380,-7,cs),
(160,-7,o),
(35,137,o),
(35,355,cs),
(35,568,o),
(165,717,o),
(381,717,cs),
(540,717,o),
(670,636,o),
(686,461,c),
(531,461,l),
(515,528,o),
(465,567,o),
(382,567,cs),
(251,567,o),
(203,463,o),
(203,356,cs)
);
}
);
width = 725;
}
);
unicode = 1057;
},
{
glyphname = G;
kernLeft = _kern3;
kernRight = _kern4;
layers = (
{
layerId = "421C3252-9543-41E3-AA96-2937FA2B9555";
shapes = (
{
closed = 1;
nodes = (
(203,245,o),
(255,143,o),
(389,143,cs),
(462,143,o),
(528,174,o),
(539,250,c),
(366,250,l),
(366,385,l),
(705,385,l),
(705,278,o),
(697,176,o),
(630,96,cs),
(575,31,o),
(489,-7,o),
(385,-7,cs),
(164,-7,o),
(35,138,o),
(35,354,cs),
(35,575,o),
(164,717,o),
(385,717,cs),
(540,717,o),
(673,635,o),
(692,467,c),
(532,467,l),
(519,532,o),
(463,567,o),
(386,567,cs),
(253,567,o),
(203,459,o),
(203,355,cs)
);
}
);
width = 740;
}
);
unicode = 71;
},
{
glyphname = uni041E;
kernLeft = _kern7;
kernRight = _kern8;
layers = (
{
layerId = "421C3252-9543-41E3-AA96-2937FA2B9555";
shapes = (
{
closed = 1;
nodes = (
(608,717,o),
(747,574,o),
(747,358,cs),
(747,146,o),
(609,-10,o),
(390,-7,c),
(170,-7,o),
(35,142,o),
(35,355,cs),
(35,571,o),
(176,717,o),
(392,717,cs)
);
},
{
closed = 1;
nodes = (
(202,247,o),
(262,146,o),
(394,143,c),
(522,143,o),
(580,249,o),
(580,354,cs),
(580,457,o),
(525,567,o),
(392,567,cs),
(261,567,o),
(202,463,o),
(202,356,cs)
);
}
);
width = 782;
}
);
unicode = 1054;
},
{
glyphname = Q;
kernLeft = _kern3;
kernRight = _kern4;
layers = (
{
layerId = "421C3252-9543-41E3-AA96-2937FA2B9555";
shapes = (
{
closed = 1;
nodes = (
(202,248,o),
(259,143,o),
(393,143,cs),
(521,143,o),
(581,248,o),
(581,355,cs),
(581,462,o),
(524,567,o),
(392,567,cs),
(260,567,o),
(202,460,o),
(202,356,cs)
);
},
{
closed = 1;
nodes = (
(619,-111,l),
(586,-68,o),
(554,-28,o),
(519,15,c),
(480,0,o),
(434,-7,o),
(391,-7,cs),
(170,-7,o),
(35,141,o),
(35,354,cs),
(35,570,o),
(175,717,o),
(393,717,cs),
(609,717,o),
(748,575,o),
(748,358,cs),
(748,250,o),
(713,166,o),
(652,102,c),
(683,63,o),
(713,24,o),
(744,-15,c)
);
}
);
width = 783;
}
);
unicode = 81;
},
{
glyphname = J;
layers = (
{
layerId = "421C3252-9543-41E3-AA96-2937FA2B9555";
shapes = (
{
closed = 1;
nodes = (
(533,254,ls),
(533,85,o),
(456,-7,o),
(289,-7,cs),
(122,-7,o),
(29,87,o),
(29,244,cs),
(29,253,l),
(192,253,l),
(192,200,o),
(211,141,o),
(284,141,cs),
(345,141,o),
(370,187,o),
(370,240,cs),
(370,708,l),
(533,708,l)
);
}
);
width = 602;
}
);
unicode = 74;
},
{
glyphname = K_alt;
kernLeft = _kern16;
kernRight = _kern16;
layers = (
{
layerId = "421C3252-9543-41E3-AA96-2937FA2B9555";
shapes = (
{
closed = 1;
nodes = (
(237,421,l),
(500,708,l),
(704,708,l),
(414,400,l),
(693,0,l),
(499,0,l),
(296,293,l),
(237,235,l),
(237,0,l),
(74,0,l),
(74,708,l),
(237,708,l)
);
}
);
width = 705;
}
);
},
{
glyphname = K;
kernLeft = _kern1;
kernRight = _kern16;
layers = (
{
layerId = "421C3252-9543-41E3-AA96-2937FA2B9555";
shapes = (
{
closed = 1;
nodes = (
(237,278,l),
(237,0,l),
(74,0,l),
(74,708,l),
(237,708,l),
(237,426,l),
(323,426,l),
(502,708,l),
(689,708,l),
(459,370,l),
(690,0,l),
(500,0,l),
(332,278,l)
);
}
);
width = 691;
}
);
unicode = 75;
},
{
glyphname = k_alt;
kernLeft = _kern17;
kernRight = _kern17;
layers = (
{
layerId = "421C3252-9543-41E3-AA96-2937FA2B9555";
shapes = (
{
closed = 1;
nodes = (
(385,527,l),
(582,527,l),
(371,308,l),
(580,0,l),
(401,0,l),
(261,207,l),
(212,159,l),
(212,0,l),
(55,0,l),
(55,708,l),
(212,708,l),
(212,336,l)
);
}
);
width = 583;
}
);
},
{
glyphname = k;
kernLeft = _kern17;
kernRight = _kern17;
layers = (
{
layerId = "421C3252-9543-41E3-AA96-2937FA2B9555";
shapes = (
{
closed = 1;
nodes = (
(212,192,l),
(212,0,l),
(55,0,l),
(55,708,l),
(212,708,l),
(212,332,l),
(273,332,l),
(385,527,l),
(565,527,l),
(405,276,l),
(578,0,l),
(393,0,l),
(277,192,l)
);
}
);
width = 580;
}
);
unicode = 107;
},
{
glyphname = i_alt;
layers = (
{
layerId = "421C3252-9543-41E3-AA96-2937FA2B9555";
shapes = (
{
closed = 1;
nodes = (
(-1,527,l),
(234,527,l),
(234,0,l),
(77,0,l),
(77,386,l),
(-1,386,l)
);
},
{
closed = 1;
nodes = (
(209,777,o),
(250,742,o),
(250,682,cs),
(250,619,o),
(209,587,o),
(154,587,cs),
(98,587,o),
(57,621,o),
(57,682,cs),
(57,742,o),
(101,777,o),
(154,777,cs)
);
}
);
width = 297;
}
);
},
{
glyphname = j_alt;
layers = (
{
layerId = "421C3252-9543-41E3-AA96-2937FA2B9555";
shapes = (
{
closed = 1;
nodes = (
(208,778,o),
(251,742,o),
(251,682,cs),
(251,619,o),
(208,587,o),
(155,587,cs),
(98,587,o),
(56,621,o),
(56,682,cs),
(56,742,o),
(100,778,o),
(155,778,cs)
);
},
{
closed = 1;
nodes = (
(-9,527,l),
(232,527,l),
(232,-49,l),
(235,-170,o),
(179,-231,o),
(54,-231,cs),
(-31,-231,l),
(-31,-89,l),
(5,-89,ls),
(65,-89,o),
(75,-54,o),
(75,-18,cs),
(75,386,l),
(-9,386,l)
);
}
);
width = 298;
}
);
},
{
glyphname = s_alt;
kernLeft = _kern5;
kernRight = _kern6;
layers = (
{
layerId = "421C3252-9543-41E3-AA96-2937FA2B9555";
shapes = (
{
closed = 1;
nodes = (
(234,410,o),
(201,402,o),
(201,373,cs),
(201,354,o),
(221,344,o),
(249,336,cs),
(369,304,o),
(525,320,o),
(525,163,cs),
(525,23,o),
(380,-11,o),
(292,-11,cs),
(167,-11,o),
(38,45,o),
(30,183,c),
(189,183,l),
(194,137,o),
(246,121,o),
(295,121,cs),
(346,121,o),
(371,134,o),
(371,161,cs),
(371,240,o),
(48,168,o),
(48,372,cs),
(48,500,o),
(181,538,o),
(279,538,cs),
(397,538,o),
(505,487,o),
(513,354,c),
(361,354,l),
(358,395,o),
(321,408,o),
(274,409,cs)
);
}
);
width = 557;
}
);
},
{
glyphname = s;
kernLeft = _kern5;
kernRight = _kern6;
layers = (
{
layerId = "421C3252-9543-41E3-AA96-2937FA2B9555";
shapes = (
{
closed = 1;
nodes = (
(221,409,o),
(196,400,o),
(193,375,c),
(193,356,o),
(202,346,o),
(233,338,cs),
(339,309,o),
(489,315,o),
(492,166,c),
(489,36,o),
(379,-8,o),
(274,-8,cs),
(159,-8,o),
(42,36,o),
(26,173,c),
(188,173,l),
(196,137,o),
(232,121,o),
(276,121,cs),
(312,121,o),
(334,134,o),
(337,159,c),
(338,182,o),
(324,190,o),
(306,195,cs),
(288,200,o),
(265,205,o),
(244,209,cs),
(192,220,o),
(140,235,o),
(104,256,cs),
(68,277,o),
(40,314,o),
(40,370,cs),
(40,494,o),
(150,538,o),
(259,538,cs),
(372,538,o),
(467,489,o),
(478,363,c),
(325,363,l),
(322,396,o),
(290,409,o),
(253,409,cs)
);
}
);
width = 518;
}
);
unicode = 115;
},
{
glyphname = c_alt;
kernLeft = _kern5;
kernRight = _kern6;
layers = (
{
layerId = "421C3252-9543-41E3-AA96-2937FA2B9555";
shapes = (
{
closed = 1;
nodes = (
(330,132,o),
(361,146,o),
(373,169,c),
(537,169,l),
(513,43,o),
(406,-8,o),
(293,-8,cs),
(121,-8,o),
(30,92,o),
(30,265,cs),
(30,428,o),
(130,537,o),
(298,537,cs),
(424,537,o),
(525,474,o),
(541,336,c),
(379,336,l),
(370,372,o),
(339,394,o),
(292,394,cs),
(215,394,o),
(186,329,o),
(186,265,cs),
(186,190,o),
(215,132,o),
(294,132,cs)
);
}
);
width = 572;
}
);
},
{
glyphname = copyright;
layers = (
{
layerId = "421C3252-9543-41E3-AA96-2937FA2B9555";
shapes = (
{
closed = 1;
nodes = (
(209,-87,o),
(46,66,o),
(46,321,cs),
(46,572,o),
(213,729,o),
(461,729,cs),
(704,729,o),
(872,564,o),
(872,321,cs),
(872,64,o),
(707,-87,o),
(461,-87,cs)
);
},
{
closed = 1;
nodes = (
(653,26,o),
(758,143,o),
(758,320,cs),
(758,491,o),
(652,614,o),
(465,614,cs),
(280,614,o),
(166,491,o),
(166,320,cs),
(166,144,o),
(275,26,o),
(465,26,cs)
);
},
{
closed = 1;
nodes = (
(505,224,o),
(529,243,o),
(533,267,c),
(659,267,l),
(643,154,o),
(567,111,o),
(467,111,cs),
(339,111,o),
(264,185,o),
(264,322,cs),
(264,454,o),
(350,530,o),
(472,530,cs),
(572,530,o),
(643,484,o),
(658,373,c),
(532,373,l),
(529,400,o),
(503,418,o),
(468,418,cs),
(404,418,o),
(388,371,o),
(388,322,cs),
(388,272,o),
(403,224,o),
(469,224,cs)
);
}
);
width = 918;
}
);
unicode = 169;
},
{
glyphname = ampersand;
layers = (
{
layerId = "421C3252-9543-41E3-AA96-2937FA2B9555";
shapes = (
{
closed = 1;
nodes = (
(526,0,l),
(479,48,l),
(427,5,o),
(357,-12,o),
(284,-12,cs),
(164,-12,o),
(54,51,o),
(54,190,cs),
(54,281,o),
(105,340,o),
(169,379,c),
(133,418,o),
(108,464,o),
(108,520,cs),
(108,651,o),
(209,714,o),
(329,714,cs),
(429,714,o),
(520,651,o),
(520,541,cs),
(520,451,o),
(456,395,o),
(390,352,c),
(482,252,l),
(497,281,o),
(504,319,o),
(505,344,c),
(640,344,l),
(633,276,o),
(616,213,o),
(579,154,c),
(720,0,l)
);
},
{
closed = 1;
nodes = (
(260,287,l),
(215,258,o),
(198,228,o),
(198,197,cs),
(198,141,o),
(250,121,o),
(303,121,cs),
(335,121,o),
(369,132,o),
(390,147,c)
);
},
{
closed = 1;
nodes = (
(334,459,o),
(377,490,o),
(377,530,cs),
(377,559,o),
(356,587,o),
(316,587,cs),
(272,587,o),
(247,561,o),
(247,526,cs),
(247,495,o),
(269,468,o),
(297,441,c)
);
}
);
width = 731;
}
);
unicode = 38;
},
{
glyphname = dollar;
layers = (
{
layerId = "421C3252-9543-41E3-AA96-2937FA2B9555";
shapes = (
{
closed = 1;
nodes = (
(457,486,l),
(450,545,o),
(400,568,o),
(336,571,cs),
(285,574,o),
(229,560,o),
(229,508,cs),
(229,475,o),
(257,456,o),
(298,444,cs),
(361,425,o),
(400,420,o),
(437,411,cs),
(545,384,o),
(627,353,o),
(627,216,cs),
(627,72,o),
(524,10,o),
(407,-3,c),
(407,-140,l),
(262,-140,l),
(262,1,l),
(135,28,o),
(51,104,o),
(46,237,c),
(207,237,l),
(218,168,o),
(286,142,o),
(353,142,cs),
(409,142,o),
(466,155,o),
(466,206,cs),
(466,242,o),
(434,255,o),
(399,264,cs),
(385,267,o),
(368,272,o),
(305,285,cs),
(157,317,o),
(68,369,o),
(68,502,cs),
(68,629,o),
(162,697,o),
(266,710,c),
(266,852,l),
(410,852,l),
(410,709,l),
(528,696,o),
(608,612,o),
(613,486,c)
);
}
);
width = 674;
}
);
unicode = 36;
},
{
glyphname = parenleft;
layers = (
{
layerId = "421C3252-9543-41E3-AA96-2937FA2B9555";
shapes = (
{
closed = 1;
nodes = (
(52,487,o),
(105,659,o),
(217,806,c),
(409,806,l),
(276,665,o),
(216,479,o),
(213,308,c),
(216,138,o),
(275,-50,o),
(409,-189,c),
(217,-189,l),
(105,-44,o),
(52,129,o),
(52,308,cs)
);
}
);
width = 366;
}
);
unicode = 40;
},
{
glyphname = parenright;
layers = (
{
layerId = "421C3252-9543-41E3-AA96-2937FA2B9555";
shapes = (
{
closed = 1;
nodes = (
(314,129,o),
(260,-44,o),
(149,-189,c),
(-43,-189,l),
(89,-49,o),
(150,137,o),
(153,308,c),
(150,480,o),
(89,664,o),
(-43,806,c),
(149,806,l),
(260,659,o),
(314,487,o),
(314,308,cs)
);
}
);
width = 366;
}
);
unicode = 41;
},
{
glyphname = cent;
layers = (
{
layerId = "421C3252-9543-41E3-AA96-2937FA2B9555";
shapes = (
{
closed = 1;
nodes = (
(360,132,o),
(391,160,o),
(398,193,c),
(563,193,l),
(550,80,o),
(480,14,o),
(383,-5,c),
(383,-145,l),
(236,-145,l),
(236,-4,l),
(108,23,o),
(46,119,o),
(46,264,cs),
(46,405,o),
(120,508,o),
(236,532,c),
(236,682,l),
(382,682,l),
(382,534,l),
(479,518,o),
(547,451,o),
(559,335,c),
(398,335,l),
(391,371,o),
(359,398,o),
(312,398,cs),
(231,398,o),
(204,331,o),
(204,264,cs),
(204,194,o),
(231,132,o),
(313,132,cs)
);
}
);
width = 609;
}
);
unicode = 162;
},
{
glyphname = section;
layers = (
{
layerId = "421C3252-9543-41E3-AA96-2937FA2B9555";
shapes = (
{
closed = 1;
nodes = (
(266,597,o),
(224,594,o),
(224,560,cs),
(224,525,o),
(282,518,o),
(308,513,cs),
(416,494,o),
(526,479,o),
(526,359,cs),
(526,320,o),
(509,282,o),
(480,255,c),
(511,228,o),
(524,189,o),
(523,150,cs),
(520,33,o),
(402,-13,o),
(296,-13,cs),
(165,-13,o),
(51,35,o),
(46,172,c),
(203,172,l),
(211,129,o),
(250,110,o),
(293,109,cs),
(332,108,o),
(365,120,o),
(365,147,cs),
(365,167,o),
(351,177,o),
(327,182,cs),
(183,209,o),
(60,232,o),
(60,355,cs),
(60,396,o),
(82,434,o),
(117,457,c),
(86,477,o),
(66,517,o),
(66,560,cs),
(66,680,o),
(191,716,o),
(290,716,cs),
(407,716,o),
(507,670,o),
(515,550,c),
(360,550,l),
(356,585,o),
(325,596,o),
(288,597,c)
);
},
{
closed = 1;
nodes = (
(219,400,o),
(212,383,o),
(212,367,cs),
(212,318,o),
(290,314,o),
(354,301,c),
(369,312,o),
(377,328,o),
(377,344,cs),
(377,372,o),
(349,382,o),
(325,389,cs),
(285,400,o),
(256,404,o),
(235,409,c)
);
}
);
width = 573;
}
);
unicode = 167;
},
{
glyphname = uni04C1;
layers = (
{
layerId = "421C3252-9543-41E3-AA96-2937FA2B9555";
shapes = (
{
closed = 1;
nodes = (
(388,759,o),
(310,811,o),
(301,926,c),
(433,926,l),
(438,887,o),
(465,867,o),
(501,867,cs),
(538,867,o),
(564,887,o),
(568,926,c),
(701,926,l),
(690,811,o),
(614,759,o),
(501,759,cs)
);
},
{
closed = 1;
nodes = (
(581,279,l),
(581,0,l),
(418,0,l),
(418,279,l),
(349,279,l),
(191,0,l),
(1,0,l),
(218,369,l),
(2,708,l),
(189,708,l),
(354,425,l),
(418,425,l),
(418,708,l),
(581,708,l),
(581,425,l),
(644,425,l),
(810,708,l),
(997,708,l),
(781,369,l),
(998,0,l),
(807,0,l),
(650,279,l)
);
}
);
width = 999;
}
);
unicode = 1217;
},
{
glyphname = uni04C2;
layers = (
{
layerId = "421C3252-9543-41E3-AA96-2937FA2B9555";
shapes = (
{
closed = 1;
nodes = (
(311,567,o),
(233,617,o),
(224,736,c),
(358,736,l),
(363,697,o),
(390,676,o),
(426,676,cs),
(465,676,o),
(490,697,o),
(494,736,c),
(628,736,l),
(617,617,o),
(541,567,o),
(426,567,cs)
);
},
{
closed = 1;
nodes = (
(505,191,l),
(505,0,l),
(347,0,l),
(347,191,l),
(284,191,l),
(184,0,l),
(1,0,l),
(158,276,l),
(9,527,l),
(184,527,l),
(288,331,l),
(347,331,l),
(347,527,l),
(505,527,l),
(505,331,l),
(566,331,l),
(668,527,l),
(843,527,l),
(694,276,l),
(851,0,l),
(668,0,l),
(569,191,l)
);
}
);
width = 852;
}
);
unicode = 1218;
},
{
glyphname = w_alt;
kernLeft = _kern20;
kernRight = _kern20;
layers = (
{
layerId = "421C3252-9543-41E3-AA96-2937FA2B9555";
shapes = (
{
closed = 1;
nodes = (
(165,0,l),
(1,527,l),
(175,527,l),
(264,186,l),
(342,423,l),
(495,423,l),
(573,186,l),
(663,527,l),
(829,527,l),
(665,0,l),
(495,0,l),
(416,255,l),
(338,0,l)
);
}
);
width = 830;
}
);
},
{
glyphname = W_alt;
kernLeft = _kern19;
kernRight = _kern19;
layers = (
{
layerId = "421C3252-9543-41E3-AA96-2937FA2B9555";
shapes = (
{
closed = 1;
nodes = (
(379,0,l),
(176,0,l),
(0,708,l),
(184,708,l),
(284,206,l),
(384,558,l),
(568,558,l),
(668,206,l),
(768,708,l),
(951,708,l),
(775,0,l),
(570,0,l),
(475,342,l)
);
}
);
width = 951;
}
);
},
{
glyphname = zero;
layers = (
{
layerId = "421C3252-9543-41E3-AA96-2937FA2B9555";
shapes = (
{
closed = 1;
nodes = (
(426,141,o),
(454,239,o),
(454,355,cs),
(454,468,o),
(427,567,o),
(331,567,cs),
(232,567,o),
(204,470,o),
(204,355,cs),
(204,240,o),
(230,141,o),
(329,141,cs)
);
},
{
closed = 1;
nodes = (
(518,717,o),
(614,579,o),
(614,355,cs),
(614,129,o),
(521,-7,o),
(329,-7,cs),
(136,-7,o),
(44,129,o),
(44,355,cs),
(44,580,o),
(141,717,o),
(331,717,cs)
);
}
);
width = 657;
}
);
unicode = 48;
},
{
glyphname = one;
layers = (
{
layerId = "421C3252-9543-41E3-AA96-2937FA2B9555";
shapes = (
{
closed = 1;
nodes = (
(314,0,l),
(151,0,l),
(151,504,l),
(12,504,l),
(12,624,l),
(92,624,o),
(157,645,o),
(194,708,c),
(314,708,l)
);
}
);
width = 408;
}
);
unicode = 49;
},
{
glyphname = two;
layers = (
{
layerId = "421C3252-9543-41E3-AA96-2937FA2B9555";
shapes = (
{
closed = 1;
nodes = (
(22,133,l),
(86,185,o),
(149,237,o),
(213,293,cs),
(259,333,o),
(289,361,o),
(304,376,cs),
(334,407,o),
(357,444,o),
(357,485,cs),
(357,530,o),
(329,566,o),
(269,566,cs),
(201,566,o),
(175,532,o),
(168,491,c),
(17,491,l),
(22,641,o),
(136,716,o),
(277,716,cs),
(409,716,o),
(520,642,o),
(520,496,cs),
(520,336,o),
(368,235,o),
(257,147,c),
(512,147,l),
(512,0,l),
(22,0,l)
);
}
);
width = 557;
}
);
unicode = 50;
},
{
glyphname = three;
layers = (
{
layerId = "421C3252-9543-41E3-AA96-2937FA2B9555";
shapes = (
{
closed = 1;
nodes = (
(40,497,l),
(53,649,o),
(165,717,o),
(303,717,cs),
(427,717,o),
(549,664,o),
(549,524,cs),
(549,467,o),
(518,412,o),
(470,384,c),
(541,357,o),
(576,292,o),
(575,216,cs),
(572,42,o),
(421,-7,o),
(302,-7,cs),
(225,-7,o),
(160,13,o),
(107,53,cs),
(54,92,o),
(25,149,o),
(20,223,c),
(180,223,l),
(193,164,o),
(245,142,o),
(304,142,cs),
(357,142,o),
(406,162,o),
(406,222,cs),
(406,259,o),
(384,292,o),
(320,292,cs),
(238,292,l),
(238,426,l),
(293,426,ls),
(372,426,o),
(382,478,o),
(382,503,c),
(381,544,o),
(346,569,o),
(298,569,cs),
(243,569,o),
(206,542,o),
(198,497,c)
);
}
);
width = 620;
}
);
unicode = 51;
},
{
glyphname = four;
layers = (
{
layerId = "421C3252-9543-41E3-AA96-2937FA2B9555";
shapes = (
{
closed = 1;
nodes = (
(537,272,l),
(613,272,l),
(613,127,l),
(537,127,l),
(537,0,l),
(374,0,l),
(374,127,l),
(29,127,l),
(29,247,l),
(346,708,l),
(537,708,l)
);
},
{
closed = 1;
nodes = (
(213,272,l),
(374,272,l),
(374,519,l)
);
}
);
width = 637;
}
);
unicode = 52;
},
{
glyphname = seven;
layers = (
{
layerId = "421C3252-9543-41E3-AA96-2937FA2B9555";
shapes = (
{
closed = 1;
nodes = (
(60,0,l),
(320,559,l),
(-1,559,l),
(-1,708,l),
(506,708,l),
(506,589,l),
(242,0,l)
);
}
);
width = 516;
}
);
unicode = 55;
},
{
glyphname = eight;
layers = (
{
layerId = "421C3252-9543-41E3-AA96-2937FA2B9555";
shapes = (
{
closed = 1;
nodes = (
(581,52,o),
(447,-8,o),
(315,-8,cs),
(180,-8,o),
(47,52,o),
(44,208,c),
(44,288,o),
(73,349,o),
(145,381,c),
(98,412,o),
(70,463,o),
(70,519,cs),
(70,665,o),
(192,717,o),
(316,717,cs),
(440,717,o),
(558,663,o),
(558,519,cs),
(558,463,o),
(527,409,o),
(482,381,c),
(553,350,o),
(584,290,o),
(584,206,c)
);
},
{
closed = 1;
nodes = (
(259,578,o),
(227,550,o),
(227,502,cs),
(227,455,o),
(261,425,o),
(314,425,cs),
(370,425,o),
(400,456,o),
(400,503,cs),
(400,550,o),
(365,578,o),
(314,578,cs)
);
},
{
closed = 1;
nodes = (
(421,278,o),
(374,306,o),
(313,306,cs),
(252,306,o),
(205,277,o),
(205,221,cs),
(205,162,o),
(254,134,o),
(314,134,cs),
(373,134,o),
(421,162,o),
(421,221,cs)
);
}
);
width = 628;
}
);
unicode = 56;
},
{
glyphname = nine;
layers = (
{
layerId = "421C3252-9543-41E3-AA96-2937FA2B9555";
shapes = (
{
closed = 1;
nodes = (
(240,570,o),
(201,533,o),
(201,477,cs),
(201,421,o),
(238,381,o),
(303,381,cs),
(368,381,o),
(401,428,o),
(401,473,cs),
(401,530,o),
(361,570,o),
(304,570,cs)
);
},
{
closed = 1;
nodes = (
(198,199,l),
(209,159,o),
(252,139,o),
(299,139,cs),
(385,139,o),
(427,221,o),
(430,309,c),
(385,258,o),
(320,244,o),
(271,244,cs),
(132,244,o),
(41,330,o),
(41,469,cs),
(41,629,o),
(161,715,o),
(305,715,cs),
(518,715,o),
(580,525,o),
(580,349,cs),
(580,164,o),
(503,-7,o),
(298,-7,cs),
(166,-7,o),
(59,57,o),
(43,199,c)
);
}
);
width = 623;
}
);
unicode = 57;
},
{
glyphname = uni0430;
kernLeft = _kern27;
kernRight = _kern27;
layers = (
{
layerId = "421C3252-9543-41E3-AA96-2937FA2B9555";
shapes = (
{
closed = 1;
nodes = (
(284,223,ls),
(227,223,o),
(194,204,o),
(194,168,cs),
(194,133,o),
(221,114,o),
(262,114,cs),
(321,114,o),
(376,150,o),
(376,223,c)
);
},
{
closed = 1;
nodes = (
(381,0,l),
(380,68,l),
(369,52,o),
(354,38,o),
(338,27,cs),
(305,5,o),
(268,-8,o),
(211,-8,cs),
(121,-8,o),
(36,45,o),
(36,158,cs),
(36,218,o),
(67,266,o),
(112,290,cs),
(157,314,o),
(217,321,o),
(281,321,cs),
(375,321,l),
(375,370,o),
(346,404,o),
(290,404,c),
(251,405,o),
(213,391,o),
(206,359,c),
(46,359,l),
(62,489,o),
(172,538,o),
(288,538,cs),
(477,538,o),
(527,423,o),
(527,284,cs),
(527,0,l)
);
}
);
width = 580;
}
);
unicode = 1072;
},
{
glyphname = uni0435;
kernLeft = _kern9;
kernRight = _kern10;
layers = (
{
layerId = "421C3252-9543-41E3-AA96-2937FA2B9555";
shapes = (
{
closed = 1;
nodes = (
(341,123,o),
(370,138,o),
(383,163,c),
(543,163,l),
(514,42,o),
(413,-8,o),
(298,-8,cs),
(131,-8,o),
(34,91,o),
(34,266,cs),
(34,422,o),
(134,538,o),
(296,538,cs),
(459,538,o),
(548,429,o),
(548,278,cs),
(548,257,o),
(546,239,o),
(542,216,c),
(192,216,l),
(197,165,o),
(229,124,o),
(300,123,c)
);
},
{
closed = 1;
nodes = (
(397,322,l),
(397,371,o),
(359,407,o),
(298,407,cs),
(230,407,o),
(198,367,o),
(194,322,c)
);
}
);
width = 582;
}
);
unicode = 1077;
},
{
glyphname = uni043E;
kernLeft = _kern9;
kernRight = _kern10;
layers = (
{
layerId = "421C3252-9543-41E3-AA96-2937FA2B9555";
shapes = (
{
closed = 1;
nodes = (
(224,392,o),
(190,329,o),
(190,265,cs),
(190,195,o),
(224,136,o),
(304,136,cs),
(385,136,o),
(416,196,o),
(416,265,cs),
(416,329,o),
(385,392,o),
(304,392,cs)
);
},
{
closed = 1;
nodes = (
(144,-8,o),
(34,90,o),
(34,266,cs),
(34,435,o),
(150,538,o),
(308,538,cs),
(467,538,o),
(574,435,o),
(574,266,cs),
(574,90,o),
(465,-8,o),
(303,-8,cs)
);
}
);
width = 608;
}
);
unicode = 1086;
},
{
glyphname = uni0441;
kernLeft = _kern9;
kernRight = _kern10;
layers = (
{
layerId = "421C3252-9543-41E3-AA96-2937FA2B9555";
shapes = (
{
closed = 1;
nodes = (
(346,134,o),
(376,160,o),
(383,195,c),
(545,195,l),
(532,55,o),
(424,-8,o),
(299,-8,cs),
(128,-8,o),
(34,91,o),
(34,264,cs),
(34,433,o),
(137,538,o),
(303,538,cs),
(433,538,o),
(529,469,o),
(542,333,c),
(383,333,l),
(375,369,o),
(345,393,o),
(298,393,cs),
(217,393,o),
(192,328,o),
(192,263,cs),
(192,194,o),
(221,134,o),
(298,134,cs)
);
}
);
width = 574;
}
);
unicode = 1089;
},
{
glyphname = uni0218;
layers = (
{
layerId = "421C3252-9543-41E3-AA96-2937FA2B9555";
shapes = (
{
closed = 1;
nodes = (
(281,-177,o),
(253,-155,o),
(253,-115,cs),
(253,-71,o),
(282,-46,o),
(325,-46,c),
(378,-47,o),
(406,-88,o),
(406,-136,cs),
(406,-215,o),
(345,-276,o),
(279,-301,c),
(246,-253,l),
(274,-236,o),
(307,-209,o),
(316,-180,c)
);
},
{
closed = 1;
nodes = (
(436,492,l),
(428,543,o),
(384,570,o),
(316,570,cs),
(268,570,o),
(218,552,o),
(218,508,cs),
(218,463,o),
(260,453,o),
(329,434,cs),
(469,396,o),
(606,392,o),
(611,216,c),
(611,57,o),
(482,-7,o),
(338,-7,cs),
(190,-7,o),
(48,56,o),
(35,229,c),
(200,229,l),
(216,163,o),
(278,142,o),
(348,142,cs),
(392,142,o),
(447,157,o),
(447,206,cs),
(447,241,o),
(419,257,o),
(382,266,cs),
(202,308,o),
(56,331,o),
(56,501,cs),
(56,673,o),
(209,717,o),
(337,717,c),
(476,712,o),
(579,645,o),
(595,492,c)
);
}
);
width = 647;
}
);
unicode = 536;
},
{
glyphname = uni0219;
kernLeft = _kern5;
kernRight = _kern6;
layers = (
{
layerId = "421C3252-9543-41E3-AA96-2937FA2B9555";
shapes = (
{
closed = 1;
nodes = (
(229,409,o),
(198,400,o),
(197,375,cs),
(196,356,o),
(206,345,o),
(237,337,cs),
(344,309,o),
(492,315,o),
(496,166,c),
(493,37,o),
(384,-6,o),
(281,-6,cs),
(167,-6,o),
(46,35,o),
(30,173,c),
(192,173,l),
(200,137,o),
(236,121,o),
(280,121,cs),
(308,121,o),
(341,130,o),
(341,158,cs),
(341,198,o),
(289,199,o),
(248,209,c),
(144,228,o),
(44,261,o),
(44,370,cs),
(44,494,o),
(154,538,o),
(263,538,cs),
(376,538,o),
(471,489,o),
(482,363,c),
(329,363,l),
(325,398,o),
(294,409,o),
(257,409,cs)
);
},
{
closed = 1;
nodes = (
(233,-179,o),
(205,-156,o),
(205,-116,cs),
(205,-72,o),
(237,-46,o),
(281,-46,cs),
(332,-46,o),
(360,-89,o),
(360,-137,cs),
(360,-217,o),
(298,-280,o),
(231,-304,c),
(198,-256,l),
(225,-237,o),
(260,-212,o),
(269,-182,c)
);
}
);
width = 527;
}
);
unicode = 537;
},
{
glyphname = uni021A;
kernLeft = _kern28;
kernRight = _kern28;
layers = (
{
layerId = "421C3252-9543-41E3-AA96-2937FA2B9555";
shapes = (
{
closed = 1;
nodes = (
(5,559,l),
(5,708,l),
(598,708,l),
(598,559,l),
(383,559,l),
(383,0,l),
(220,0,l),
(220,559,l)
);
},
{
closed = 1;
nodes = (
(255,-177,o),
(227,-155,o),
(227,-115,cs),
(227,-71,o),
(261,-45,o),
(302,-46,c),
(353,-46,o),
(380,-88,o),
(380,-136,cs),
(380,-215,o),
(319,-276,o),
(253,-301,c),
(220,-253,l),
(248,-236,o),
(281,-209,o),
(290,-180,c)
);
}
);
width = 603;
}
);
unicode = 538;
},
{
glyphname = uni021B;
kernLeft = _kern21;
kernRight = _kern21;
layers = (
{
layerId = "421C3252-9543-41E3-AA96-2937FA2B9555";
shapes = (
{
closed = 1;
nodes = (
(251,386,l),
(251,199,ls),
(251,164,o),
(265,140,o),
(308,140,cs),
(358,140,l),
(358,0,l),
(291,0,ls),
(159,0,o),
(94,42,o),
(94,176,cs),
(94,386,l),
(16,386,l),
(16,527,l),
(94,527,l),
(94,664,l),
(251,664,l),
(251,527,l),
(363,527,l),
(363,386,l)
);
},
{
closed = 1;
nodes = (
(177,-179,o),
(148,-156,o),
(148,-116,cs),
(148,-72,o),
(183,-45,o),
(224,-46,c),
(276,-46,o),
(303,-89,o),
(303,-137,cs),
(303,-217,o),
(241,-279,o),
(175,-304,c),
(141,-256,l),
(171,-237,o),
(203,-212,o),
(212,-182,c)
);
}
);
width = 389;
}
);
unicode = 539;
},
{
glyphname = question;
layers = (
{
layerId = "421C3252-9543-41E3-AA96-2937FA2B9555";
shapes = (
{
closed = 1;
nodes = (
(315,181,o),
(356,149,o),
(356,86,cs),
(356,22,o),
(315,-9,o),
(260,-9,cs),
(204,-9,o),
(163,22,o),
(163,86,cs),
(163,149,o),
(204,181,o),
(260,181,cs)
);
},
{
closed = 1;
nodes = (
(184,233,l),
(181,249,o),
(181,263,o),
(181,276,cs),
(185,396,o),
(338,431,o),
(338,510,cs),
(338,549,o),
(312,570,o),
(265,570,cs),
(212,570,o),
(180,550,o),
(177,499,c),
(24,499,l),
(24,638,o),
(111,717,o),
(268,717,cs),
(385,717,o),
(500,666,o),
(498,525,cs),
(497,469,o),
(475,428,o),
(398,353,cs),
(362,317,o),
(329,286,o),
(330,233,c)
);
}
);
width = 540;
}
);
unicode = 63;
},
{
glyphname = uni2116;
layers = (
{
layerId = "421C3252-9543-41E3-AA96-2937FA2B9555";
shapes = (
{
closed = 1;
nodes = (
(200,708,l),
(462,290,l),
(462,708,l),
(622,708,l),
(622,0,l),
(470,0,l),
(206,416,l),
(206,0,l),
(46,0,l),
(46,708,l)
);
},
{
closed = 1;
nodes = (
(708,334,l),
(1031,334,l),
(1031,214,l),
(708,214,l)
);
},
{
closed = 1;
nodes = (
(763,366,o),
(691,435,o),
(691,542,cs),
(691,648,o),
(762,717,o),
(870,717,cs),
(981,717,o),
(1049,646,o),
(1049,542,cs),
(1049,435,o),
(975,366,o),
(870,366,cs)
);
},
{
closed = 1;
nodes = (
(827,601,o),
(812,567,o),
(812,542,cs),
(812,514,o),
(827,483,o),
(870,483,cs),
(911,483,o),
(927,514,o),
(927,542,cs),
(927,567,o),
(911,601,o),
(870,601,cs)
);
}
);
width = 1095;
}
);
unicode = 8470;
},
{
glyphname = uni0401;
layers = (
{
layerId = "421C3252-9543-41E3-AA96-2937FA2B9555";
shapes = (
{
closed = 1;
nodes = (
(594,708,l),
(594,559,l),
(237,559,l),
(237,423,l),
(540,423,l),
(540,278,l),
(237,278,l),
(237,147,l),
(594,147,l),
(594,0,l),
(74,0,l),
(74,708,l)
);
},
{
closed = 1;
nodes = (
(266,941,o),
(305,910,o),
(305,854,cs),
(305,798,o),
(266,766,o),
(215,766,cs),
(164,766,o),
(125,798,o),
(125,854,cs),
(125,909,o),
(164,941,o),
(215,941,cs)
);
},
{
closed = 1;
nodes = (
(514,941,o),
(553,910,o),
(553,854,cs),
(553,798,o),
(514,766,o),
(463,766,cs),
(412,766,o),
(373,798,o),
(373,854,cs),
(373,909,o),
(412,941,o),
(463,941,cs)
);
}
);
width = 629;
}
);
unicode = 1025;
},
{
glyphname = asciitilde;
layers = (
{
layerId = "421C3252-9543-41E3-AA96-2937FA2B9555";
shapes = (
{
closed = 1;
nodes = (
(75,238,l),
(70,349,o),
(98,481,o),
(245,481,cs),
(352,481,o),
(392,383,o),
(438,383,cs),
(478,383,o),
(475,447,o),
(472,474,c),
(616,474,l),
(621,368,o),
(597,232,o),
(454,232,cs),
(345,232,o),
(298,334,o),
(255,334,cs),
(213,334,o),
(215,267,o),
(220,238,c)
);
}
);
width = 691;
}
);
unicode = 126;
},
{
glyphname = trademark;
layers = (
{
layerId = "421C3252-9543-41E3-AA96-2937FA2B9555";
shapes = (
{
closed = 1;
nodes = (
(139,599,l),
(46,599,l),
(46,708,l),
(345,708,l),
(345,599,l),
(251,599,l),
(251,384,l),
(139,384,l)
);
},
{
closed = 1;
nodes = (
(551,438,l),
(480,547,l),
(480,384,l),
(379,384,l),
(379,708,l),
(485,708,l),
(562,586,l),
(638,708,l),
(743,708,l),
(743,384,l),
(643,384,l),
(643,547,l),
(573,438,l)
);
}
);
width = 789;
}
);
unicode = 8482;
},
{
glyphname = registered;
layers = (
{
layerId = "421C3252-9543-41E3-AA96-2937FA2B9555";
shapes = (
{
closed = 1;
nodes = (
(363,734,o),
(447,660,o),
(447,534,cs),
(447,409,o),
(362,338,o),
(244,338,cs),
(124,338,o),
(39,407,o),
(39,534,cs),
(39,661,o),
(127,734,o),
(244,734,cs)
);
},
{
closed = 1;
nodes = (
(160,674,o),
(103,625,o),
(103,534,cs),
(103,445,o),
(160,399,o),
(243,399,cs),
(326,399,o),
(383,445,o),
(383,534,cs),
(383,625,o),
(327,674,o),
(243,674,cs)
);
},
{
closed = 1;
nodes = (
(341,441,l),
(278,441,l),
(237,506,l),
(222,506,l),
(222,441,l),
(167,441,l),
(167,641,l),
(249,641,ls),
(296,641,o),
(329,621,o),
(329,574,c),
(330,545,o),
(318,525,o),
(293,514,c)
);
},
{
closed = 1;
nodes = (
(222,593,l),
(222,552,l),
(250,552,ls),
(265,552,o),
(276,557,o),
(276,573,cs),
(276,590,o),
(265,593,o),
(249,593,cs)
);
}
);
width = 486;
}
);
unicode = 174;
},
{
glyphname = degree;
layers = (
{
layerId = "421C3252-9543-41E3-AA96-2937FA2B9555";
shapes = (
{
closed = 1;
nodes = (
(306,755,o),
(378,694,o),
(378,590,cs),
(378,485,o),
(306,430,o),
(212,430,cs),
(120,430,o),
(46,485,o),
(46,590,cs),
(46,693,o),
(120,755,o),
(212,755,cs)
);
},
{
closed = 1;
nodes = (
(178,651,o),
(154,628,o),
(154,591,cs),
(154,554,o),
(178,532,o),
(213,532,cs),
(248,532,o),
(273,554,o),
(273,591,cs),
(273,628,o),
(248,651,o),
(213,651,cs)
);
}
);
width = 424;
}
);
unicode = 176;
},
{
glyphname = bullet;
layers = (
{
layerId = "421C3252-9543-41E3-AA96-2937FA2B9555";
shapes = (
{
closed = 1;
nodes = (
(277,509,o),
(338,451,o),
(338,363,cs),
(338,271,o),
(277,218,o),
(193,218,cs),
(108,218,o),
(46,271,o),
(46,363,cs),
(46,455,o),
(108,509,o),
(193,509,cs)
);
}
);
width = 384;
}
);
unicode = 8226;
},
{
glyphname = uni27F5;
layers = (
{
layerId = "421C3252-9543-41E3-AA96-2937FA2B9555";
shapes = (
{
closed = 1;
nodes = (
(506,494,l),
(323,342,l),
(1360,342,l),
(1360,204,l),
(323,204,l),
(506,51,l),
(419,-57,l),
(46,274,l),
(418,604,l)
);
}
);
width = 1406;
}
);
unicode = 10229;
},
{
glyphname = uni27F6;
layers = (
{
layerId = "421C3252-9543-41E3-AA96-2937FA2B9555";
shapes = (
{
closed = 1;
nodes = (
(987,604,l),
(1360,274,l),
(987,-57,l),
(900,51,l),
(1082,204,l),
(46,204,l),
(46,342,l),
(1082,342,l),
(900,494,l)
);
}
);
width = 1406;
}
);
unicode = 10230;
},
{
glyphname = arrowup;
layers = (
{
layerId = "421C3252-9543-41E3-AA96-2937FA2B9555";
shapes = (
{
closed = 1;
nodes = (
(46,320,l),
(382,680,l),
(719,320,l),
(610,228,l),
(451,414,l),
(451,0,l),
(315,0,l),
(315,414,l),
(155,228,l)
);
}
);
width = 765;
}
);
unicode = 8593;
},
{
glyphname = arrowdown;
layers = (
{
layerId = "421C3252-9543-41E3-AA96-2937FA2B9555";
shapes = (
{
closed = 1;
nodes = (
(155,449,l),
(315,263,l),
(315,677,l),
(451,677,l),
(451,263,l),
(610,449,l),
(719,356,l),
(382,-3,l),
(46,356,l)
);
}
);
width = 765;
}
);
unicode = 8595;
},
{
glyphname = uni21BA;
layers = (
{
layerId = "421C3252-9543-41E3-AA96-2937FA2B9555";
shapes = (
{
closed = 1;
nodes = (
(736,619,l),
(816,549,o),
(864,437,o),
(864,328,c),
(861,108,o),
(698,-44,o),
(454,-44,cs),
(210,-44,o),
(50,118,o),
(47,354,c),
(47,487,o),
(101,606,o),
(214,686,c),
(310,578,l),
(230,519,o),
(196,434,o),
(196,353,cs),
(196,223,o),
(285,96,o),
(456,96,cs),
(619,96,o),
(714,212,o),
(714,339,cs),
(714,384,o),
(704,461,o),
(632,539,c),
(632,479,o),
(633,420,o),
(633,360,c),
(508,360,l),
(511,493,o),
(513,625,o),
(516,758,c),
(921,723,l),
(907,598,l)
);
}
);
width = 967;
}
);
unicode = 8634;
},
{
glyphname = uni21BB;
layers = (
{
layerId = "421C3252-9543-41E3-AA96-2937FA2B9555";
shapes = (
{
closed = 1;
nodes = (
(60,598,l),
(46,723,l),
(451,758,l),
(459,360,l),
(333,360,l),
(335,539,l),
(274,479,o),
(251,408,o),
(251,345,cs),
(251,221,o),
(341,100,o),
(507,97,c),
(677,97,o),
(771,218,o),
(771,350,cs),
(771,433,o),
(738,518,o),
(657,578,c),
(752,686,l),
(865,607,o),
(919,489,o),
(919,357,cs),
(919,120,o),
(758,-45,o),
(510,-45,cs),
(264,-45,o),
(103,113,o),
(103,333,cs),
(103,438,o),
(150,552,o),
(230,619,c)
);
}
);
width = 966;
}
);
unicode = 8635;
},
{
glyphname = uni21B7;
layers = (
{
layerId = "421C3252-9543-41E3-AA96-2937FA2B9555";
shapes = (
{
closed = 1;
nodes = (
(951,237,l),
(1001,111,l),
(619,-36,l),
(480,344,l),
(610,388,l),
(664,211,l),
(687,250,o),
(701,301,o),
(701,346,cs),
(701,483,o),
(604,591,o),
(446,591,cs),
(300,591,o),
(194,491,o),
(191,342,c),
(46,342,l),
(51,585,o),
(217,733,o),
(452,733,cs),
(685,733,o),
(840,584,o),
(845,361,c),
(848,293,o),
(828,227,o),
(793,171,c)
);
}
);
width = 1047;
}
);
unicode = 8631;
},
{
glyphname = uni21B6;
layers = (
{
layerId = "421C3252-9543-41E3-AA96-2937FA2B9555";
shapes = (
{
closed = 1;
nodes = (
(254,171,l),
(219,227,o),
(200,294,o),
(201,362,cs),
(204,585,o),
(365,733,o),
(596,733,cs),
(829,733,o),
(996,585,o),
(1001,342,c),
(856,342,l),
(851,491,o),
(748,591,o),
(602,591,cs),
(442,591,o),
(346,483,o),
(346,346,cs),
(346,301,o),
(360,255,o),
(383,216,c),
(437,387,l),
(567,343,l),
(428,-36,l),
(46,111,l),
(96,237,l)
);
}
);
width = 1047;
}
);
unicode = 8630;
},
{
glyphname = five;
layers = (
{
layerId = "421C3252-9543-41E3-AA96-2937FA2B9555";
shapes = (
{
closed = 1;
nodes = (
(61,297,l),
(70,434,o),
(81,573,o),
(88,708,c),
(548,708,l),
(548,562,l),
(230,562,l),
(227,523,o),
(224,483,o),
(220,444,c),
(263,467,o),
(305,474,o),
(346,474,cs),
(494,474,o),
(576,383,o),
(576,244,cs),
(576,84,o),
(461,-7,o),
(309,-7,cs),
(161,-7,o),
(66,60,o),
(49,219,c),
(208,219,l),
(217,176,o),
(253,145,o),
(306,142,c),
(379,142,o),
(411,182,o),
(411,238,cs),
(411,286,o),
(376,335,o),
(310,335,cs),
(267,335,o),
(234,321,o),
(203,297,c)
);
}
);
width = 617;
}
);
unicode = 53;
},
{
glyphname = six;
layers = (
{
layerId = "421C3252-9543-41E3-AA96-2937FA2B9555";
shapes = (
{
closed = 1;
nodes = (
(384,139,o),
(422,181,o),
(422,232,cs),
(422,288,o),
(390,329,o),
(322,328,cs),
(267,327,o),
(229,287,o),
(226,239,c),
(226,187,o),
(255,142,o),
(323,139,c)
);
},
{
closed = 1;
nodes = (
(430,509,l),
(419,548,o),
(384,570,o),
(336,570,cs),
(239,570,o),
(194,480,o),
(194,395,c),
(239,449,o),
(309,465,o),
(357,465,cs),
(498,465,o),
(584,385,o),
(584,238,cs),
(584,87,o),
(467,-6,o),
(332,-6,cs),
(120,-6,o),
(45,158,o),
(45,342,c),
(46,436,o),
(63,525,o),
(112,598,cs),
(160,670,o),
(238,715,o),
(343,716,c),
(466,716,o),
(570,653,o),
(583,509,c)
);
}
);
width = 625;
}
);
unicode = 54;
},
{
glyphname = dieresis;
layers = (
{
layerId = "421C3252-9543-41E3-AA96-2937FA2B9555";
shapes = (
{
closed = 1;
nodes = (
(235,760,o),
(274,728,o),
(274,672,cs),
(274,615,o),
(235,583,o),
(184,583,cs),
(133,583,o),
(94,615,o),
(94,672,cs),
(94,727,o),
(133,760,o),
(184,760,cs)
);
},
{
closed = 1;
nodes = (
(503,760,o),
(543,728,o),
(543,672,cs),
(543,615,o),
(503,583,o),
(452,583,cs),
(401,583,o),
(362,615,o),
(362,672,cs),
(362,727,o),
(403,760,o),
(452,760,cs)
);
}
);
width = 637;
}
);
unicode = 168;
},
{
glyphname = cedilla;
layers = (
{
layerId = "421C3252-9543-41E3-AA96-2937FA2B9555";
shapes = (
{
closed = 1;
nodes = (
(348,39,l),
(328,-22,l),
(387,-22,o),
(433,-54,o),
(433,-122,cs),
(433,-217,o),
(347,-255,o),
(270,-255,cs),
(248,-255,o),
(226,-253,o),
(204,-249,c),
(204,-158,l),
(224,-161,o),
(241,-163,o),
(256,-163,cs),
(299,-163,o),
(316,-150,o),
(316,-127,cs),
(316,-104,o),
(290,-93,o),
(257,-93,cs),
(237,-93,o),
(217,-95,o),
(206,-98,c),
(249,39,l)
);
}
);
width = 621;
}
);
unicode = 184;
},
{
glyphname = dotlessi;
layers = (
{
layerId = "421C3252-9543-41E3-AA96-2937FA2B9555";
shapes = (
{
closed = 1;
nodes = (
(212,0,l),
(55,0,l),
(55,527,l),
(212,527,l)
);
}
);
width = 267;
}
);
unicode = 305;
},
{
glyphname = ccedilla;
kernLeft = _kern5;
kernRight = _kern6;
layers = (
{
layerId = "421C3252-9543-41E3-AA96-2937FA2B9555";
shapes = (
{
closed = 1;
nodes = (
(343,134,o),
(373,160,o),
(380,195,c),
(542,195,l),
(532,72,o),
(444,6,o),
(337,-5,c),
(329,-35,l),
(337,-35,ls),
(392,-35,o),
(435,-64,o),
(435,-135,cs),
(435,-229,o),
(354,-274,o),
(274,-274,cs),
(246,-274,o),
(225,-271,o),
(204,-267,c),
(204,-175,l),
(224,-178,o),
(240,-180,o),
(256,-180,cs),
(300,-180,o),
(317,-166,o),
(317,-142,cs),
(317,-117,o),
(293,-108,o),
(262,-108,cs),
(238,-108,o),
(218,-111,o),
(206,-112,c),
(236,-3,l),
(101,17,o),
(31,112,o),
(31,264,cs),
(31,433,o),
(134,538,o),
(300,538,cs),
(430,538,o),
(526,469,o),
(539,333,c),
(380,333,l),
(372,369,o),
(342,393,o),
(295,393,cs),
(213,393,o),
(189,325,o),
(189,261,cs),
(189,192,o),
(218,134,o),
(295,134,cs)
);
}
);
width = 571;
}
);
unicode = 231;
},
{
glyphname = uni0162;
kernLeft = _kern28;
kernRight = _kern28;
layers = (
{
layerId = "421C3252-9543-41E3-AA96-2937FA2B9555";
shapes = (
{
closed = 1;
nodes = (
(5,559,l),
(5,708,l),
(601,708,l),
(601,559,l),
(385,559,l),
(385,0,l),
(352,0,l),
(342,-35,l),
(350,-35,ls),
(404,-35,o),
(448,-65,o),
(448,-136,c),
(443,-228,o),
(365,-268,o),
(288,-268,cs),
(260,-268,o),
(241,-265,o),
(218,-262,c),
(218,-231,o),
(219,-202,o),
(219,-171,c),
(239,-174,o),
(256,-176,o),
(271,-176,cs),
(314,-176,o),
(330,-161,o),
(330,-141,cs),
(330,-116,o),
(305,-106,o),
(270,-106,cs),
(250,-106,o),
(231,-107,o),
(220,-110,c),
(252,0,l),
(222,0,l),
(222,559,l)
);
}
);
width = 606;
}
);
unicode = 354;
},
{
glyphname = uni0163;
kernLeft = _kern21;
kernRight = _kern21;
layers = (
{
layerId = "421C3252-9543-41E3-AA96-2937FA2B9555";
shapes = (
{
closed = 1;
nodes = (
(251,386,l),
(251,199,ls),
(251,164,o),
(264,140,o),
(308,140,cs),
(358,140,l),
(358,0,l),
(269,0,l),
(259,-35,l),
(267,-35,ls),
(323,-35,o),
(366,-67,o),
(366,-139,c),
(363,-228,o),
(299,-274,o),
(195,-274,cs),
(172,-274,o),
(153,-271,o),
(134,-267,c),
(134,-175,l),
(154,-178,o),
(171,-180,o),
(186,-180,cs),
(230,-180,o),
(246,-166,o),
(246,-142,cs),
(246,-112,o),
(216,-108,o),
(186,-108,cs),
(166,-108,o),
(146,-109,o),
(135,-112,c),
(174,20,l),
(117,44,o),
(94,95,o),
(94,176,cs),
(94,386,l),
(16,386,l),
(16,527,l),
(94,527,l),
(94,664,l),
(251,664,l),
(251,527,l),
(363,527,l),
(363,386,l)
);
}
);
width = 392;
}
);
unicode = 355;
},
{
glyphname = Ccedilla;
kernLeft = _kern3;
kernRight = _kern4;
layers = (
{
layerId = "421C3252-9543-41E3-AA96-2937FA2B9555";
shapes = (
{
closed = 1;
nodes = (
(203,250,o),
(254,143,o),
(383,143,cs),
(466,143,o),
(518,180,o),
(533,247,c),
(690,247,l),
(677,95,o),
(561,9,o),
(424,-4,c),
(416,-34,l),
(424,-34,ls),
(477,-34,o),
(521,-64,o),
(521,-133,cs),
(521,-225,o),
(439,-267,o),
(361,-267,cs),
(333,-267,o),
(313,-264,o),
(292,-261,c),
(292,-170,l),
(312,-173,o),
(328,-174,o),
(343,-174,cs),
(387,-174,o),
(404,-161,o),
(404,-138,cs),
(404,-114,o),
(380,-105,o),
(344,-105,cs),
(323,-105,o),
(303,-106,o),
(294,-109,c),
(324,-3,l),
(139,18,o),
(35,157,o),
(35,355,cs),
(35,568,o),
(166,717,o),
(382,717,cs),
(541,717,o),
(670,636,o),
(686,461,c),
(531,461,l),
(515,528,o),
(466,567,o),
(383,567,cs),
(253,567,o),
(203,463,o),
(203,356,cs)
);
}
);
width = 725;
}
);
unicode = 199;
},
{
glyphname = scedilla;
kernLeft = _kern5;
kernRight = _kern6;
layers = (
{
layerId = "421C3252-9543-41E3-AA96-2937FA2B9555";
shapes = (
{
closed = 1;
nodes = (
(224,409,o),
(198,399,o),
(197,374,c),
(197,355,o),
(206,347,o),
(237,339,cs),
(341,311,o),
(492,317,o),
(496,166,c),
(493,47,o),
(402,1,o),
(305,-7,c),
(297,-37,l),
(305,-37,ls),
(358,-37,o),
(402,-67,o),
(403,-135,c),
(403,-234,o),
(317,-273,o),
(242,-273,cs),
(217,-273,o),
(196,-271,o),
(172,-267,c),
(172,-175,l),
(192,-178,o),
(209,-180,o),
(224,-180,cs),
(268,-180,o),
(285,-166,o),
(285,-142,cs),
(285,-118,o),
(263,-109,o),
(228,-109,cs),
(208,-109,o),
(186,-112,o),
(174,-113,c),
(206,-1,l),
(123,12,o),
(41,65,o),
(30,173,c),
(192,173,l),
(200,137,o),
(236,121,o),
(280,121,cs),
(320,121,o),
(341,134,o),
(341,159,cs),
(341,182,o),
(321,192,o),
(289,199,c),
(181,226,o),
(44,239,o),
(44,371,cs),
(44,494,o),
(155,538,o),
(263,538,cs),
(376,538,o),
(471,489,o),
(482,363,c),
(329,363,l),
(325,398,o),
(293,409,o),
(256,409,cs)
);
}
);
width = 527;
}
);
unicode = 351;
},
{
glyphname = uni21A9;
layers = (
{
layerId = "421C3252-9543-41E3-AA96-2937FA2B9555";
shapes = (
{
closed = 1;
nodes = (
(167,536,l),
(167,674,l),
(811,674,ls),
(1002,674,o),
(1143,527,o),
(1143,336,cs),
(1143,148,o),
(999,0,o),
(811,0,cs),
(321,0,l),
(504,-154,l),
(419,-262,l),
(46,69,l),
(418,399,l),
(504,290,l),
(322,137,l),
(793,137,ls),
(911,137,o),
(999,221,o),
(999,338,cs),
(999,455,o),
(909,536,o),
(793,536,cs)
);
}
);
width = 1189;
}
);
unicode = 8617;
},
{
glyphname = uni2713;
layers = (
{
layerId = "421C3252-9543-41E3-AA96-2937FA2B9555";
shapes = (
{
closed = 1;
nodes = (
(400,209,l),
(938,826,l),
(1046,723,l),
(402,-16,l),
(46,372,l),
(151,477,l)
);
}
);
width = 1092;
}
);
unicode = 10003;
},
{
glyphname = divide;
layers = (
{
layerId = "421C3252-9543-41E3-AA96-2937FA2B9555";
shapes = (
{
closed = 1;
nodes = (
(46,294,l),
(46,428,l),
(521,428,l),
(521,294,l)
);
},
{
closed = 1;
nodes = (
(335,653,o),
(374,617,o),
(374,560,cs),
(374,500,o),
(335,468,o),
(282,468,cs),
(230,468,o),
(189,499,o),
(189,560,cs),
(189,617,o),
(231,653,o),
(282,653,cs)
);
},
{
closed = 1;
nodes = (
(335,253,o),
(374,218,o),
(374,159,cs),
(374,99,o),
(335,67,o),
(282,67,cs),
(230,67,o),
(189,99,o),
(189,159,cs),
(189,218,o),
(231,253,o),
(282,253,cs)
);
}
);
width = 567;
}
);
unicode = 247;
},
{
glyphname = multiply;
layers = (
{
layerId = "421C3252-9543-41E3-AA96-2937FA2B9555";
shapes = (
{
closed = 1;
nodes = (
(298,267,l),
(146,113,l),
(50,210,l),
(202,361,l),
(50,511,l),
(147,606,l),
(299,455,l),
(447,606,l),
(545,512,l),
(393,361,l),
(547,211,l),
(449,113,l)
);
}
);
width = 597;
}
);
unicode = 215;
},
{
glyphname = yen;
layers = (
{
layerId = "421C3252-9543-41E3-AA96-2937FA2B9555";
shapes = (
{
closed = 1;
nodes = (
(542,708,l),
(729,708,l),
(517,363,l),
(614,363,l),
(614,248,l),
(460,248,l),
(460,193,l),
(614,193,l),
(614,80,l),
(460,80,l),
(460,0,l),
(297,0,l),
(297,80,l),
(142,80,l),
(142,193,l),
(297,193,l),
(297,248,l),
(142,248,l),
(142,363,l),
(238,363,l),
(26,708,l),
(214,708,l),
(380,413,l)
);
}
);
width = 755;
}
);
unicode = 165;
},
{
glyphname = uni20BD;
layers = (
{
layerId = "421C3252-9543-41E3-AA96-2937FA2B9555";
shapes = (
{
closed = 1;
nodes = (
(390,708,ls),
(546,708,o),
(669,659,o),
(669,480,cs),
(669,317,o),
(550,253,o),
(403,253,cs),
(290,253,l),
(290,193,l),
(472,193,l),
(472,72,l),
(290,72,l),
(290,0,l),
(127,0,l),
(127,72,l),
(46,72,l),
(46,193,l),
(127,193,l),
(127,253,l),
(46,253,l),
(46,383,l),
(127,383,l),
(127,708,l)
);
},
{
closed = 1;
nodes = (
(385,383,ls),
(454,383,o),
(508,408,o),
(508,472,cs),
(508,540,o),
(461,559,o),
(384,559,cs),
(290,559,l),
(290,383,l)
);
}
);
width = 705;
}
);
unicode = 8381;
},
{
glyphname = uni20B4;
layers = (
{
layerId = "421C3252-9543-41E3-AA96-2937FA2B9555";
shapes = (
{
closed = 1;
nodes = (
(422,715,o),
(548,673,o),
(548,542,cs),
(548,519,o),
(541,489,o),
(526,470,c),
(565,470,l),
(565,373,l),
(446,373,l),
(374,328,l),
(565,328,l),
(565,233,l),
(242,233,l),
(227,224,o),
(218,206,o),
(218,193,cs),
(218,156,o),
(250,137,o),
(298,136,cs),
(353,135,o),
(387,150,o),
(394,193,c),
(549,193,l),
(549,41,o),
(422,-10,o),
(291,-10,cs),
(190,-10,o),
(59,33,o),
(59,164,cs),
(59,189,o),
(67,218,o),
(79,233,c),
(34,233,l),
(34,328,l),
(158,328,l),
(233,373,l),
(34,373,l),
(34,469,l),
(360,469,l),
(379,480,o),
(388,500,o),
(388,516,cs),
(388,545,o),
(361,568,o),
(309,569,c),
(282,569,o),
(266,566,o),
(249,558,cs),
(232,550,o),
(219,534,o),
(216,510,c),
(60,510,l),
(60,667,o),
(195,715,o),
(319,715,cs)
);
}
);
width = 599;
}
);
unicode = 8372;
},
{
glyphname = sterling;
layers = (
{
layerId = "421C3252-9543-41E3-AA96-2937FA2B9555";
shapes = (
{
closed = 1;
nodes = (
(496,407,l),
(496,268,l),
(287,268,l),
(287,147,l),
(587,147,l),
(587,0,l),
(47,0,l),
(47,147,l),
(129,147,l),
(129,268,l),
(46,268,l),
(46,407,l),
(129,407,l),
(129,502,ls),
(129,647,o),
(230,717,o),
(360,717,cs),
(497,717,o),
(574,656,o),
(579,511,c),
(431,511,l),
(428,552,o),
(414,587,o),
(360,587,cs),
(305,587,o),
(287,549,o),
(287,506,cs),
(287,407,l)
);
}
);
width = 633;
}
);
unicode = 163;
},
{
glyphname = Scedilla;
kernLeft = _kern3;
kernRight = _kern4;
layers = (
{
layerId = "421C3252-9543-41E3-AA96-2937FA2B9555";
shapes = (
{
closed = 1;
nodes = (
(436,492,l),
(428,543,o),
(384,570,o),
(316,570,cs),
(268,570,o),
(218,552,o),
(218,508,cs),
(218,463,o),
(272,447,o),
(340,431,cs),
(416,413,ls),
(521,389,o),
(606,351,o),
(611,216,c),
(611,67,o),
(500,2,o),
(369,-6,c),
(362,-36,l),
(370,-36,ls),
(423,-36,o),
(467,-65,o),
(467,-136,cs),
(467,-228,o),
(383,-270,o),
(307,-270,cs),
(279,-270,o),
(259,-267,o),
(238,-263,c),
(238,-172,l),
(259,-176,o),
(275,-177,o),
(290,-177,cs),
(333,-177,o),
(350,-164,o),
(350,-141,cs),
(350,-116,o),
(326,-108,o),
(293,-108,cs),
(273,-108,o),
(253,-109,o),
(240,-112,c),
(270,-3,l),
(149,13,o),
(46,84,o),
(35,229,c),
(200,229,l),
(216,162,o),
(279,143,o),
(349,143,cs),
(399,143,o),
(447,157,o),
(447,206,cs),
(447,246,o),
(407,260,o),
(363,270,cs),
(299,285,ls),
(158,317,o),
(56,361,o),
(56,501,cs),
(56,666,o),
(204,717,o),
(329,717,cs),
(473,717,o),
(579,645,o),
(595,492,c)
);
}
);
width = 647;
}
);
unicode = 350;
},
{
glyphname = t_alt;
kernLeft = _kern21;
kernRight = _kern21;
layers = (
{
layerId = "421C3252-9543-41E3-AA96-2937FA2B9555";
shapes = (
{
closed = 1;
nodes = (
(251,386,l),
(251,200,ls),
(251,165,o),
(266,140,o),
(309,140,cs),
(358,140,l),
(358,0,l),
(301,0,l),
(160,-3,o),
(94,44,o),
(94,176,cs),
(94,386,l),
(16,386,l),
(16,527,l),
(97,527,l),
(121,664,l),
(251,664,l),
(251,527,l),
(363,527,l),
(363,386,l)
);
}
);
width = 389;
}
);
},
{
glyphname = alt_1;
layers = (
{
layerId = "421C3252-9543-41E3-AA96-2937FA2B9555";
shapes = (
{
closed = 1;
nodes = (
(204,505,l),
(56,505,l),
(56,626,l),
(134,626,o),
(212,641,o),
(247,708,c),
(368,708,l),
(368,145,l),
(522,145,l),
(522,0,l),
(34,0,l),
(34,145,l),
(204,145,l)
);
}
);
width = 528;
}
);
},
{
glyphname = colon.uc;
layers = (
{
layerId = "421C3252-9543-41E3-AA96-2937FA2B9555";
shapes = (
{
closed = 1;
nodes = (
(206,606,o),
(246,569,o),
(246,509,cs),
(246,445,o),
(206,413,o),
(150,413,cs),
(95,413,o),
(54,445,o),
(54,509,cs),
(54,569,o),
(97,606,o),
(150,606,cs)
);
},
{
closed = 1;
nodes = (
(206,262,o),
(246,225,o),
(246,165,cs),
(246,101,o),
(206,69,o),
(150,69,cs),
(95,69,o),
(54,101,o),
(54,165,cs),
(54,225,o),
(97,262,o),
(150,262,cs)
);
}
);
width = 300;
}
);
},
{
glyphname = t2.alt;
layers = (
{
layerId = "421C3252-9543-41E3-AA96-2937FA2B9555";
shapes = (
{
closed = 1;
nodes = (
(351,138,o),
(381,153,o),
(394,162,c),
(436,38,l),
(396,6,o),
(327,-7,o),
(287,-7,cs),
(158,-7,o),
(95,64,o),
(95,184,cs),
(95,386,l),
(16,386,l),
(16,527,l),
(95,527,l),
(95,665,l),
(253,665,l),
(253,527,l),
(409,527,l),
(409,386,l),
(253,386,l),
(253,221,ls),
(253,177,o),
(267,139,o),
(320,138,c)
);
}
);
width = 438;
}
);
},
{
glyphname = hyphen.uc;
layers = (
{
layerId = "421C3252-9543-41E3-AA96-2937FA2B9555";
shapes = (
{
closed = 1;
nodes = (
(404,290,l),
(61,290,l),
(61,428,l),
(404,428,l)
);
}
);
width = 465;
}
);
},
{
glyphname = uni00AD.uc;
layers = (
{
layerId = "421C3252-9543-41E3-AA96-2937FA2B9555";
shapes = (
{
closed = 1;
nodes = (
(404,290,l),
(61,290,l),
(61,428,l),
(404,428,l)
);
}
);
width = 465;
}
);
},
{
glyphname = endash.uc;
layers = (
{
layerId = "421C3252-9543-41E3-AA96-2937FA2B9555";
shapes = (
{
closed = 1;
nodes = (
(61,290,l),
(61,428,l),
(571,428,l),
(571,290,l)
);
}
);
width = 632;
}
);
},
{
glyphname = emdash.uc;
layers = (
{
layerId = "421C3252-9543-41E3-AA96-2937FA2B9555";
shapes = (
{
closed = 1;
nodes = (
(61,290,l),
(61,428,l),
(791,428,l),
(791,290,l)
);
}
);
width = 852;
}
);
},
{
glyphname = uni2117;
layers = (
{
layerId = "421C3252-9543-41E3-AA96-2937FA2B9555";
shapes = (
{
closed = 1;
nodes = (
(219,-84,o),
(46,65,o),
(46,321,cs),
(46,571,o),
(224,727,o),
(461,727,cs),
(693,727,o),
(872,565,o),
(872,321,cs),
(872,66,o),
(704,-84,o),
(461,-84,cs)
);
},
{
closed = 1;
nodes = (
(654,30,o),
(756,144,o),
(756,320,cs),
(756,491,o),
(649,610,o),
(465,610,cs),
(281,610,o),
(168,493,o),
(168,320,cs),
(168,143,o),
(277,30,o),
(465,30,cs)
);
},
{
closed = 1;
nodes = (
(425,219,l),
(425,87,l),
(315,87,l),
(315,538,l),
(488,538,ls),
(592,538,o),
(668,498,o),
(668,378,c),
(665,270,o),
(592,219,o),
(493,219,cs)
);
},
{
closed = 1;
nodes = (
(425,440,l),
(425,312,l),
(489,312,ls),
(533,312,o),
(560,339,o),
(560,376,cs),
(560,419,o),
(536,440,o),
(488,440,cs)
);
}
);
width = 918;
}
);
unicode = 8471;
},
{
glyphname = f_alt;
layers = (
{
layerId = "421C3252-9543-41E3-AA96-2937FA2B9555";
shapes = (
{
closed = 1;
nodes = (
(379,527,l),
(379,386,l),
(253,386,l),
(253,0,l),
(95,0,l),
(95,386,l),
(16,386,l),
(16,527,l),
(95,527,l),
(95,574,ls),
(95,702,o),
(183,759,o),
(298,759,cs),
(342,759,o),
(386,751,o),
(421,731,c),
(381,604,l),
(366,613,o),
(345,620,o),
(320,620,c),
(277,621,o),
(253,597,o),
(253,558,cs),
(253,527,l)
);
}
);
width = 385;
}
);
},
{
glyphname = g_alt;
layers = (
{
layerId = "421C3252-9543-41E3-AA96-2937FA2B9555";
shapes = (
{
closed = 1;
nodes = (
(389,3,o),
(321,-8,o),
(268,-8,c),
(111,-5,o),
(30,107,o),
(30,261,cs),
(30,419,o),
(121,536,o),
(279,536,cs),
(328,536,o),
(386,525,o),
(431,476,c),
(446,527,l),
(586,527,l),
(586,108,l),
(587,60,o),
(588,9,o),
(579,-39,cs),
(570,-87,o),
(553,-131,o),
(524,-168,cs),
(473,-231,o),
(389,-261,o),
(292,-261,cs),
(207,-261,o),
(123,-239,o),
(56,-196,c),
(73,-153,o),
(87,-108,o),
(102,-65,c),
(137,-88,o),
(197,-112,o),
(270,-112,cs),
(399,-112,o),
(428,-35,o),
(428,55,c)
);
},
{
closed = 1;
nodes = (
(392,133,o),
(428,194,o),
(428,266,cs),
(428,332,o),
(387,392,o),
(309,392,cs),
(223,392,o),
(189,328,o),
(189,260,cs),
(189,193,o),
(228,133,o),
(308,133,cs)
);
}
);
width = 640;
}
);
},
{
glyphname = y;
layers = (
{
layerId = "421C3252-9543-41E3-AA96-2937FA2B9555";
shapes = (
{
closed = 1;
nodes = (
(345,-112,o),
(422,-77,o),
(419,51,c),
(383,5,o),
(314,-8,o),
(267,-8,cs),
(198,-8,o),
(146,13,o),
(113,48,cs),
(74,91,o),
(60,152,o),
(60,235,cs),
(60,527,l),
(217,527,l),
(217,261,ls),
(217,201,o),
(233,134,o),
(317,134,cs),
(401,134,o),
(419,209,o),
(419,263,cs),
(419,527,l),
(577,527,l),
(577,110,ls),
(577,10,o),
(576,-91,o),
(516,-167,c),
(463,-231,o),
(381,-261,o),
(281,-261,cs),
(201,-261,o),
(123,-240,o),
(55,-196,c),
(71,-152,o),
(87,-107,o),
(104,-64,c),
(139,-89,o),
(202,-112,o),
(269,-112,cs)
);
}
);
width = 631;
}
);
unicode = 121;
},
{
glyphname = a_alt;
kernLeft = _kern27;
kernRight = _kern27;
layers = (
{
layerId = "421C3252-9543-41E3-AA96-2937FA2B9555";
shapes = (
{
closed = 1;
nodes = (
(344,226,o),
(300,224,o),
(259,217,cs),
(218,210,o),
(194,193,o),
(194,165,cs),
(194,132,o),
(218,115,o),
(257,115,cs),
(325,115,o),
(373,167,o),
(376,227,c)
);
},
{
closed = 1;
nodes = (
(383,0,l),
(382,19,o),
(381,39,o),
(378,59,c),
(367,44,o),
(351,31,o),
(331,20,cs),
(290,-3,o),
(252,-8,o),
(216,-8,cs),
(133,-8,o),
(36,32,o),
(36,150,cs),
(36,227,o),
(81,277,o),
(146,301,cs),
(220,329,o),
(309,330,o),
(375,333,c),
(375,385,o),
(344,405,o),
(293,405,cs),
(253,405,o),
(217,394,o),
(206,359,c),
(45,359,l),
(64,493,o),
(171,537,o),
(288,537,cs),
(368,537,o),
(433,517,o),
(481,465,c),
(518,417,o),
(527,355,o),
(527,284,cs),
(527,0,l)
);
}
);
width = 580;
}
);
},
{
glyphname = uni0490;
kernLeft = _kern23;
kernRight = _kern23;
layers = (
{
layerId = "421C3252-9543-41E3-AA96-2937FA2B9555";
shapes = (
{
closed = 1;
nodes = (
(74,0,l),
(74,708,l),
(412,708,l),
(412,869,l),
(575,869,l),
(575,559,l),
(237,559,l),
(237,0,l)
);
}
);
width = 595;
}
);
unicode = 1168;
},
{
glyphname = uni0491;
kernLeft = _kern24;
kernRight = _kern24;
layers = (
{
layerId = "421C3252-9543-41E3-AA96-2937FA2B9555";
shapes = (
{
closed = 1;
nodes = (
(452,682,l),
(452,387,l),
(212,387,l),
(212,0,l),
(55,0,l),
(55,527,l),
(298,527,l),
(298,682,l)
);
}
);
width = 468;
}
);
unicode = 1169;
},
{
glyphname = uni0406;
layers = (
{
layerId = "421C3252-9543-41E3-AA96-2937FA2B9555";
shapes = (
{
closed = 1;
nodes = (
(237,0,l),
(74,0,l),
(74,708,l),
(237,708,l)
);
}
);
width = 311;
}
);
unicode = 1030;
},
{
glyphname = uni0456;
layers = (
{
layerId = "421C3252-9543-41E3-AA96-2937FA2B9555";
shapes = (
{
closed = 1;
nodes = (
(222,0,l),
(65,0,l),
(65,527,l),
(222,527,l)
);
},
{
closed = 1;
nodes = (
(199,774,o),
(240,739,o),
(240,680,cs),
(240,619,o),
(199,585,o),
(143,585,cs),
(90,585,o),
(46,617,o),
(46,680,cs),
(46,739,o),
(91,774,o),
(143,774,cs)
);
}
);
width = 287;
}
);
unicode = 1110;
},
{
glyphname = uni0404;
layers = (
{
layerId = "421C3252-9543-41E3-AA96-2937FA2B9555";
shapes = (
{
closed = 1;
nodes = (
(468,425,l),
(468,283,l),
(206,283,l),
(211,191,o),
(288,143,o),
(373,143,cs),
(442,143,o),
(514,168,o),
(533,244,c),
(690,244,l),
(671,75,o),
(534,-7,o),
(374,-7,cs),
(154,-7,o),
(35,142,o),
(35,355,cs),
(35,572,o),
(157,717,o),
(377,717,cs),
(538,717,o),
(667,628,o),
(686,464,c),
(528,464,l),
(509,540,o),
(439,568,o),
(368,568,cs),
(277,568,o),
(214,517,o),
(207,425,c)
);
}
);
width = 725;
}
);
unicode = 1028;
},
{
glyphname = uni0454;
layers = (
{
layerId = "421C3252-9543-41E3-AA96-2937FA2B9555";
shapes = (
{
closed = 1;
nodes = (
(323,125,o),
(363,131,o),
(379,162,c),
(537,162,l),
(513,45,o),
(408,-9,o),
(298,-9,cs),
(123,-9,o),
(30,91,o),
(30,264,cs),
(30,429,o),
(124,536,o),
(296,536,cs),
(412,536,o),
(513,477,o),
(537,356,c),
(378,356,l),
(363,391,o),
(324,400,o),
(289,400,cs),
(241,400,o),
(194,378,o),
(187,326,c),
(365,326,l),
(365,201,l),
(186,201,l),
(186,149,o),
(245,125,o),
(291,125,cs)
);
}
);
width = 564;
}
);
unicode = 1108;
},
{
glyphname = uni0407;
layers = (
{
layerId = "421C3252-9543-41E3-AA96-2937FA2B9555";
shapes = (
{
closed = 1;
nodes = (
(112,928,o),
(145,896,o),
(145,843,cs),
(145,790,o),
(112,757,o),
(61,757,cs),
(12,757,o),
(-22,790,o),
(-22,843,cs),
(-22,895,o),
(13,928,o),
(61,928,cs)
);
},
{
closed = 1;
nodes = (
(299,928,o),
(333,896,o),
(333,843,cs),
(333,790,o),
(299,757,o),
(250,757,cs),
(199,757,o),
(166,790,o),
(166,843,cs),
(166,895,o),
(202,928,o),
(250,928,cs)
);
},
{
closed = 1;
nodes = (
(237,0,l),
(74,0,l),
(74,708,l),
(237,708,l)
);
}
);
width = 311;
}
);
unicode = 1031;
},
{
glyphname = uni0457;
layers = (
{
layerId = "421C3252-9543-41E3-AA96-2937FA2B9555";
shapes = (
{
closed = 1;
nodes = (
(99,763,o),
(132,730,o),
(132,677,cs),
(132,621,o),
(99,589,o),
(47,589,cs),
(-2,589,o),
(-36,621,o),
(-36,677,cs),
(-36,729,o),
(-1,763,o),
(47,763,cs)
);
},
{
closed = 1;
nodes = (
(289,763,o),
(322,730,o),
(322,677,cs),
(322,621,o),
(289,589,o),
(238,589,cs),
(187,589,o),
(154,621,o),
(154,677,cs),
(154,729,o),
(190,763,o),
(238,763,cs)
);
},
{
closed = 1;
nodes = (
(222,0,l),
(65,0,l),
(65,527,l),
(222,527,l)
);
}
);
width = 286;
}
);
unicode = 1111;
},
{
glyphname = map;
layers = (
{
layerId = "421C3252-9543-41E3-AA96-2937FA2B9555";
shapes = (
{
closed = 1;
nodes = (
(51,684,l),
(52,685,o),
(54,686,o),
(55,686,c),
(94,686,l),
(96,686,o),
(97,686,o),
(98,687,c),
(117,706,l),
(118,707,o),
(120,708,o),
(121,708,c),
(217,708,l),
(218,708,o),
(220,707,o),
(221,706,c),
(267,660,l),
(268,659,o),
(269,659,o),
(270,659,c),
(303,659,l),
(306,659,o),
(308,657,o),
(308,654,c),
(308,629,l),
(308,626,o),
(311,624,o),
(314,624,c),
(320,624,l),
(321,624,o),
(323,624,o),
(324,625,c),
(340,642,l),
(341,643,o),
(343,643,o),
(344,643,c),
(376,643,l),
(379,643,o),
(381,641,o),
(381,638,c),
(381,612,l),
(381,611,o),
(382,609,o),
(383,608,c),
(403,588,l),
(405,586,o),
(408,586,o),
(410,588,c),
(420,598,l),
(421,599,o),
(422,599,o),
(424,599,c),
(430,599,l),
(433,599,o),
(436,597,o),
(436,594,c),
(436,515,l),
(436,513,o),
(435,512,o),
(434,511,c),
(428,505,l),
(426,503,o),
(426,499,o),
(428,497,c),
(487,438,l),
(488,437,o),
(489,437,o),
(490,437,c),
(502,437,l),
(505,437,o),
(507,434,o),
(507,432,c),
(507,398,l),
(507,361,l),
(507,360,o),
(508,358,o),
(509,357,c),
(531,335,l),
(532,334,o),
(534,333,o),
(535,333,c),
(547,333,l),
(548,333,o),
(550,333,o),
(551,332,c),
(567,315,l),
(568,314,o),
(569,313,o),
(569,311,c),
(569,274,l),
(569,273,o),
(568,271,o),
(567,270,c),
(561,265,l),
(559,263,o),
(559,259,o),
(561,257,c),
(582,237,l),
(583,236,o),
(583,235,o),
(583,233,c),
(583,230,o),
(581,228,o),
(578,228,c),
(559,228,l),
(545,228,l),
(544,228,o),
(543,228,o),
(542,229,c),
(533,238,l),
(531,240,o),
(528,240,o),
(526,238,c),
(515,227,l),
(512,225,o),
(509,225,o),
(507,227,c),
(492,242,l),
(490,244,o),
(487,244,o),
(484,242,c),
(457,215,l),
(456,214,o),
(455,213,o),
(454,213,c),
(445,213,l),
(443,213,o),
(440,216,o),
(440,219,c),
(440,253,l),
(440,258,o),
(434,260,o),
(431,257,c),
(409,235,l),
(408,234,o),
(408,233,o),
(408,232,c),
(408,205,l),
(408,203,o),
(408,202,o),
(409,201,c),
(419,191,l),
(421,189,o),
(421,186,o),
(419,184,c),
(399,164,l),
(398,163,o),
(398,162,o),
(398,160,c),
(398,135,l),
(398,134,o),
(397,132,o),
(396,131,c),
(374,109,l),
(373,108,o),
(373,107,o),
(373,106,c),
(373,94,l),
(373,92,o),
(372,91,o),
(371,90,c),
(359,78,l),
(358,77,o),
(357,76,o),
(356,76,c),
(347,76,l),
(346,76,o),
(345,76,o),
(344,75,c),
(334,65,l),
(333,64,o),
(332,63,o),
(332,61,c),
(332,23,l),
(332,20,o),
(330,17,o),
(327,17,c),
(307,17,l),
(306,17,o),
(304,17,o),
(303,16,c),
(289,1,l),
(288,1,o),
(287,0,o),
(285,0,c),
(282,0,l),
(279,0,o),
(277,2,o),
(277,5,c),
(277,28,l),
(277,29,o),
(276,31,o),
(275,32,c),
(266,41,l),
(264,43,o),
(264,46,o),
(266,48,c),
(278,60,l),
(281,62,o),
(281,66,o),
(278,68,c),
(266,80,l),
(265,81,o),
(265,82,o),
(265,84,c),
(265,169,l),
(265,170,o),
(265,172,o),
(266,173,c),
(280,186,l),
(281,187,o),
(281,189,o),
(281,190,c),
(281,309,l),
(281,310,o),
(281,312,o),
(280,313,c),
(267,325,l),
(266,326,o),
(266,328,o),
(266,329,c),
(266,352,l),
(266,353,o),
(265,355,o),
(264,355,c),
(218,402,l),
(217,403,o),
(216,404,o),
(216,406,c),
(216,427,l),
(216,429,o),
(216,430,o),
(215,431,c),
(169,477,l),
(168,478,o),
(167,479,o),
(167,480,c),
(167,506,l),
(167,507,o),
(167,509,o),
(166,510,c),
(135,540,l),
(134,541,o),
(134,543,o),
(134,544,c),
(134,573,l),
(134,574,o),
(133,576,o),
(132,577,c),
(111,598,l),
(110,599,o),
(109,600,o),
(109,602,c),
(109,628,l),
(109,630,o),
(109,631,o),
(108,632,c),
(85,655,l),
(84,656,o),
(82,657,o),
(81,657,c),
(39,657,l),
(36,657,o),
(34,659,o),
(34,662,c),
(34,664,l),
(34,666,o),
(34,667,o),
(35,668,c)
);
}
);
width = 657;
}
);
},
{
glyphname = logo;
layers = (
{
layerId = "421C3252-9543-41E3-AA96-2937FA2B9555";
shapes = (
{
closed = 1;
nodes = (
(782,499,o),
(777,495,o),
(771,493,c),
(771,483,o),
(762,474,o),
(751,474,c),
(749,464,o),
(742,459,o),
(732,459,cs),
(727,459,o),
(722,461,o),
(718,464,c),
(706,477,l),
(702,481,o),
(700,485,o),
(700,491,cs),
(700,517,l),
(675,537,l),
(557,537,l),
(531,511,l),
(531,475,l),
(675,475,ls),
(681,475,o),
(686,473,o),
(689,470,cs),
(714,444,ls),
(718,440,o),
(720,435,o),
(720,430,cs),
(720,420,o),
(711,411,o),
(701,411,cs),
(663,411,ls),
(658,411,o),
(653,413,o),
(649,417,cs),
(629,436,l),
(520,436,l),
(426,342,l),
(424,342,o),
(417,335,o),
(411,335,cs),
(403,335,o),
(397,342,o),
(395,342,c),
(302,436,l),
(192,436,l),
(172,417,l),
(169,413,o),
(164,411,o),
(158,411,cs),
(121,411,ls),
(111,411,o),
(100,419,o),
(100,430,cs),
(100,435,o),
(103,440,o),
(107,444,cs),
(132,470,l),
(136,473,o),
(141,475,o),
(146,475,cs),
(183,475,l),
(183,475,o),
(184,475,o),
(184,475,c),
(290,475,l),
(290,511,l),
(264,537,l),
(146,537,l),
(121,517,l),
(121,491,ls),
(121,485,o),
(119,481,o),
(115,477,c),
(103,464,l),
(99,461,o),
(94,459,o),
(89,459,cs),
(79,459,o),
(71,465,o),
(70,474,c),
(59,474,o),
(51,483,o),
(51,493,c),
(42,495,o),
(34,502,o),
(34,512,cs),
(34,517,o),
(37,522,o),
(41,526,c),
(53,539,l),
(57,543,o),
(62,545,o),
(67,545,cs),
(94,545,l),
(94,546,o),
(95,546,o),
(96,547,c),
(127,572,l),
(131,575,o),
(135,576,o),
(139,576,cs),
(178,576,l),
(181,584,o),
(189,589,o),
(196,589,cs),
(201,589,o),
(206,587,o),
(210,583,cs),
(217,576,l),
(272,576,ls),
(277,576,o),
(282,574,o),
(286,571,c),
(290,566,l),
(290,586,l),
(264,613,l),
(129,613,l),
(109,593,l),
(105,590,o),
(101,588,o),
(95,588,cs),
(83,588,ls),
(77,588,o),
(73,590,o),
(69,593,c),
(56,606,l),
(53,610,o),
(51,614,o),
(51,620,cs),
(51,624,o),
(52,629,o),
(55,632,c),
(52,636,o),
(51,640,o),
(51,645,cs),
(51,650,o),
(53,655,o),
(56,659,c),
(69,671,l),
(73,675,o),
(77,677,o),
(83,677,cs),
(95,677,ls),
(101,677,o),
(105,675,o),
(109,671,cs),
(129,652,l),
(164,652,l),
(164,680,l),
(148,680,o),
(139,707,o),
(139,721,cs),
(139,758,ls),
(139,769,o),
(148,778,o),
(158,778,cs),
(209,778,ls),
(220,778,o),
(228,769,o),
(228,758,cs),
(228,721,ls),
(228,707,o),
(219,680,o),
(203,680,c),
(203,652,l),
(228,652,l),
(227,654,o),
(227,656,o),
(227,657,c),
(227,667,o),
(235,677,o),
(247,677,cs),
(252,677,o),
(257,675,o),
(261,671,cs),
(297,635,l),
(301,638,o),
(305,639,o),
(310,639,cs),
(320,639,o),
(329,630,o),
(329,620,cs),
(329,464,l),
(391,402,l),
(391,473,l),
(359,505,ls),
(355,509,o),
(353,514,o),
(353,519,cs),
(353,529,o),
(362,538,o),
(373,538,cs),
(378,538,o),
(383,536,o),
(387,533,c),
(391,528,l),
(391,612,l),
(296,707,l),
(292,710,o),
(290,715,o),
(290,721,cs),
(290,739,l),
(284,739,ls),
(274,739,o),
(265,748,o),
(265,758,cs),
(265,769,o),
(274,778,o),
(284,778,cs),
(290,778,l),
(290,784,ls),
(290,794,o),
(299,803,o),
(310,803,cs),
(320,803,o),
(329,794,o),
(329,784,cs),
(329,778,l),
(335,778,ls),
(346,778,o),
(354,769,o),
(354,758,cs),
(354,748,o),
(346,739,o),
(335,739,cs),
(329,739,l),
(329,729,l),
(391,667,l),
(391,787,l),
(390,788,o),
(389,789,o),
(389,790,c),
(334,845,ls),
(330,849,o),
(328,854,o),
(328,859,cs),
(328,864,o),
(330,869,o),
(334,873,c),
(346,886,l),
(348,888,o),
(351,889,o),
(353,890,c),
(353,910,ls),
(353,915,o),
(355,920,o),
(359,924,c),
(372,936,l),
(375,940,o),
(380,942,o),
(385,942,cs),
(389,942,o),
(393,941,o),
(396,939,c),
(400,943,o),
(405,945,o),
(411,945,cs),
(416,945,o),
(421,943,o),
(425,939,c),
(428,941,o),
(432,942,o),
(436,942,cs),
(441,942,o),
(446,940,o),
(450,936,cs),
(462,924,ls),
(466,920,o),
(468,915,o),
(468,910,cs),
(468,890,l),
(471,889,o),
(473,888,o),
(475,886,c),
(487,873,l),
(491,869,o),
(493,864,o),
(493,859,cs),
(493,854,o),
(491,849,o),
(487,845,cs),
(432,790,l),
(432,789,o),
(431,788,o),
(430,787,c),
(430,667,l),
(492,729,l),
(492,739,l),
(486,739,ls),
(475,739,o),
(467,748,o),
(467,758,cs),
(467,769,o),
(475,778,o),
(486,778,cs),
(492,778,l),
(492,784,ls),
(492,794,o),
(501,803,o),
(511,803,cs),
(522,803,o),
(531,794,o),
(531,784,cs),
(531,778,l),
(537,778,ls),
(548,778,o),
(556,769,o),
(556,758,cs),
(556,748,o),
(548,739,o),
(537,739,cs),
(531,739,l),
(531,721,ls),
(531,715,o),
(529,710,o),
(525,707,c),
(430,612,l),
(430,528,l),
(435,533,ls),
(438,536,o),
(443,538,o),
(448,538,cs),
(462,538,o),
(468,528,o),
(468,519,cs),
(468,514,o),
(466,509,o),
(462,505,cs),
(430,473,l),
(430,402,l),
(492,464,l),
(492,620,ls),
(492,630,o),
(501,639,o),
(511,639,cs),
(516,639,o),
(520,638,o),
(524,635,c),
(561,671,l),
(564,675,o),
(569,677,o),
(575,677,cs),
(585,677,o),
(594,667,o),
(594,657,c),
(594,656,o),
(593,654,o),
(593,652,c),
(618,652,l),
(618,680,l),
(602,680,o),
(593,707,o),
(593,721,cs),
(593,758,ls),
(593,769,o),
(602,778,o),
(612,778,cs),
(663,778,ls),
(674,778,o),
(682,769,o),
(682,758,cs),
(682,721,ls),
(682,707,o),
(673,680,o),
(657,680,c),
(657,652,l),
(693,652,l),
(712,671,ls),
(716,675,o),
(721,677,o),
(726,677,cs),
(738,677,ls),
(744,677,o),
(748,675,o),
(752,671,c),
(765,659,l),
(769,655,o),
(771,650,o),
(771,645,cs),
(771,640,o),
(769,636,o),
(766,632,c),
(769,629,o),
(771,624,o),
(771,620,cs),
(771,614,o),
(769,610,o),
(765,606,cs),
(752,593,l),
(748,590,o),
(744,588,o),
(738,588,cs),
(726,588,ls),
(721,588,o),
(716,590,o),
(712,593,c),
(693,613,l),
(557,613,l),
(531,586,l),
(531,566,l),
(535,571,l),
(539,574,o),
(544,576,o),
(549,576,cs),
(604,576,l),
(611,583,ls),
(615,587,o),
(620,589,o),
(625,589,cs),
(632,589,o),
(640,584,o),
(643,576,c),
(682,576,ls),
(686,576,o),
(690,575,o),
(694,572,c),
(725,547,l),
(726,546,o),
(727,546,o),
(728,545,c),
(754,545,ls),
(759,545,o),
(764,543,o),
(768,539,c),
(780,526,l),
(784,522,o),
(786,517,o),
(786,512,c),
(786,510,o),
(786,507,o),
(785,505,cs)
);
},
{
closed = 1;
nodes = (
(262,13,ls),
(262,6,o),
(257,0,o),
(250,0,cs),
(189,0,ls),
(182,0,o),
(177,6,o),
(177,13,cs),
(177,362,ls),
(177,369,o),
(182,375,o),
(189,375,cs),
(250,375,ls),
(258,375,o),
(266,371,o),
(271,366,cs),
(403,234,ls),
(405,232,o),
(407,232,o),
(409,232,c),
(412,232,o),
(414,232,o),
(416,234,cs),
(548,366,ls),
(553,371,o),
(561,375,o),
(569,375,cs),
(630,375,ls),
(637,375,o),
(642,369,o),
(642,362,cs),
(642,13,ls),
(642,6,o),
(637,0,o),
(630,0,cs),
(569,0,ls),
(562,0,o),
(556,6,o),
(556,13,cs),
(556,232,l),
(556,234,o),
(554,235,o),
(552,235,c),
(551,235,o),
(551,235,o),
(550,234,c),
(432,116,l),
(426,111,o),
(418,107,o),
(410,107,c),
(409,107,l),
(401,107,o),
(393,111,o),
(387,116,c),
(269,234,l),
(268,235,o),
(267,235,o),
(266,235,c),
(264,235,o),
(262,234,o),
(262,232,c)
);
},
{
closed = 1;
nodes = (
(1003,381,o),
(1088,307,o),
(1088,188,cs),
(1088,74,o),
(1003,-6,o),
(889,-6,cs),
(775,-6,o),
(690,68,o),
(690,188,cs),
(690,296,o),
(770,381,o),
(889,381,cs)
);
},
{
closed = 1;
nodes = (
(960,74,o),
(997,125,o),
(997,188,cs),
(997,256,o),
(949,301,o),
(889,301,cs),
(827,301,o),
(781,256,o),
(781,188,cs),
(781,123,o),
(829,74,o),
(889,74,cs)
);
},
{
closed = 1;
nodes = (
(1132,366,ls),
(1132,371,o),
(1136,375,o),
(1141,375,cs),
(1208,375,ls),
(1213,375,o),
(1217,371,o),
(1217,366,cs),
(1217,85,l),
(1217,83,o),
(1219,81,o),
(1222,81,cs),
(1361,81,ls),
(1366,81,o),
(1370,77,o),
(1370,72,cs),
(1370,9,ls),
(1370,4,o),
(1366,0,o),
(1361,0,cs),
(1141,0,ls),
(1136,0,o),
(1132,4,o),
(1132,9,cs)
);
},
{
closed = 1;
nodes = (
(1418,366,ls),
(1418,371,o),
(1422,375,o),
(1427,375,cs),
(1448,375,o),
(1512,376,o),
(1536,376,cs),
(1686,376,o),
(1746,290,o),
(1746,191,cs),
(1746,86,o),
(1674,-1,o),
(1532,-1,cs),
(1512,-1,o),
(1463,0,o),
(1427,0,cs),
(1422,0,o),
(1418,4,o),
(1418,9,cs)
);
},
{
closed = 1;
nodes = (
(1505,295,o),
(1503,293,o),
(1503,290,cs),
(1503,85,ls),
(1503,77,o),
(1523,80,o),
(1534,80,cs),
(1608,80,o),
(1655,120,o),
(1655,191,cs),
(1655,260,o),
(1604,296,o),
(1535,296,cs),
(1527,296,o),
(1517,296,o),
(1508,295,c)
);
},
{
closed = 1;
nodes = (
(2102,381,o),
(2187,307,o),
(2187,188,cs),
(2187,74,o),
(2102,-6,o),
(1988,-6,cs),
(1874,-6,o),
(1789,68,o),
(1789,188,cs),
(1789,296,o),
(1869,381,o),
(1988,381,cs)
);
},
{
closed = 1;
nodes = (
(2059,74,o),
(2096,125,o),
(2096,188,cs),
(2096,256,o),
(2048,301,o),
(1988,301,cs),
(1926,301,o),
(1880,256,o),
(1880,188,cs),
(1880,123,o),
(1928,74,o),
(1988,74,cs)
);
},
{
closed = 1;
nodes = (
(2405,9,ls),
(2403,4,o),
(2398,0,o),
(2392,0,cs),
(2343,0,ls),
(2338,0,o),
(2333,4,o),
(2331,9,cs),
(2185,366,l),
(2184,367,o),
(2184,368,o),
(2184,369,c),
(2184,372,o),
(2187,375,o),
(2190,375,cs),
(2266,375,ls),
(2271,375,o),
(2276,371,o),
(2278,366,cs),
(2369,132,l),
(2369,131,o),
(2370,130,o),
(2371,130,c),
(2371,130,o),
(2372,131,o),
(2372,132,c),
(2459,366,ls),
(2461,371,o),
(2466,375,o),
(2472,375,cs),
(2542,375,ls),
(2545,375,o),
(2548,372,o),
(2548,369,c),
(2548,368,o),
(2547,367,o),
(2547,366,c)
);
},
{
closed = 1;
nodes = (
(2618,367,l),
(2620,371,o),
(2625,375,o),
(2630,375,cs),
(2686,375,ls),
(2691,375,o),
(2696,371,o),
(2698,367,c),
(2839,9,l),
(2839,8,o),
(2840,7,o),
(2840,6,c),
(2840,3,o),
(2837,0,o),
(2834,0,cs),
(2764,0,ls),
(2759,0,o),
(2754,4,o),
(2753,9,c),
(2728,75,l),
(2727,77,o),
(2724,79,o),
(2722,79,c),
(2589,79,l),
(2587,79,o),
(2584,77,o),
(2583,75,c),
(2559,9,l),
(2557,4,o),
(2552,0,o),
(2547,0,cs),
(2482,0,ls),
(2479,0,o),
(2476,3,o),
(2476,6,c),
(2476,7,o),
(2476,8,o),
(2477,9,c)
);
},
{
closed = 1;
nodes = (
(2617,163,l),
(2617,163,o),
(2617,162,o),
(2617,162,c),
(2617,160,o),
(2618,159,o),
(2620,159,c),
(2691,159,l),
(2693,159,o),
(2694,160,o),
(2694,162,c),
(2694,162,o),
(2694,163,o),
(2694,163,c),
(2657,261,l),
(2657,261,o),
(2656,262,o),
(2656,262,c),
(2655,262,o),
(2654,261,o),
(2654,261,c)
);
}
);
width = 2914;
}
);
},
{
glyphname = t0163.alt;
layers = (
{
layerId = "421C3252-9543-41E3-AA96-2937FA2B9555";
shapes = (
{
closed = 1;
nodes = (
(350,138,o),
(381,153,o),
(394,162,c),
(436,38,l),
(396,6,o),
(327,-7,o),
(287,-7,cs),
(281,-7,l),
(274,-35,l),
(282,-35,ls),
(338,-35,o),
(381,-67,o),
(381,-139,c),
(380,-182,o),
(363,-215,o),
(331,-239,cs),
(299,-262,o),
(260,-274,o),
(213,-274,cs),
(186,-274,o),
(169,-271,o),
(149,-267,c),
(149,-175,l),
(170,-178,o),
(186,-180,o),
(201,-180,cs),
(245,-180,o),
(262,-166,o),
(262,-142,cs),
(262,-112,o),
(229,-108,o),
(201,-108,cs),
(181,-108,o),
(162,-109,o),
(150,-112,c),
(185,12,l),
(168,20,o),
(154,30,o),
(142,43,cs),
(111,77,o),
(95,124,o),
(95,184,cs),
(95,386,l),
(16,386,l),
(16,527,l),
(95,527,l),
(95,665,l),
(253,665,l),
(253,527,l),
(409,527,l),
(409,386,l),
(253,386,l),
(253,223,ls),
(253,160,o),
(277,137,o),
(322,138,c)
);
}
);
width = 438;
}
);
},
{
glyphname = t021b.alt;
layers = (
{
layerId = "421C3252-9543-41E3-AA96-2937FA2B9555";
shapes = (
{
closed = 1;
nodes = (
(199,-179,o),
(171,-156,o),
(171,-116,cs),
(171,-72,o),
(205,-45,o),
(246,-46,c),
(298,-46,o),
(325,-89,o),
(325,-137,cs),
(325,-217,o),
(264,-279,o),
(197,-304,c),
(164,-256,l),
(192,-237,o),
(225,-212,o),
(234,-182,c)
);
},
{
closed = 1;
nodes = (
(351,138,o),
(381,153,o),
(394,162,c),
(436,38,l),
(396,6,o),
(327,-7,o),
(287,-7,cs),
(158,-7,o),
(95,64,o),
(95,184,cs),
(95,386,l),
(16,386,l),
(16,527,l),
(95,527,l),
(95,665,l),
(253,665,l),
(253,527,l),
(409,527,l),
(409,386,l),
(253,386,l),
(253,221,ls),
(253,177,o),
(267,139,o),
(320,138,c)
);
}
);
width = 438;
}
);
},
{
glyphname = a00E2.alt;
kernLeft = _kern27;
kernRight = _kern27;
layers = (
{
layerId = "421C3252-9543-41E3-AA96-2937FA2B9555";
shapes = (
{
closed = 1;
nodes = (
(336,781,l),
(505,573,l),
(357,573,l),
(294,654,l),
(232,573,l),
(84,573,l),
(251,781,l)
);
},
{
closed = 1;
nodes = (
(312,224,o),
(194,223,o),
(194,161,cs),
(194,128,o),
(225,115,o),
(257,115,cs),
(325,115,o),
(373,167,o),
(376,227,c)
);
},
{
closed = 1;
nodes = (
(383,0,l),
(382,19,o),
(381,39,o),
(378,59,c),
(333,1,o),
(260,-8,o),
(216,-8,cs),
(132,-8,o),
(36,32,o),
(36,150,cs),
(36,227,o),
(82,277,o),
(145,301,c),
(222,328,o),
(309,330,o),
(375,333,c),
(375,385,o),
(344,405,o),
(293,405,cs),
(253,405,o),
(217,394,o),
(206,359,c),
(45,359,l),
(64,493,o),
(171,537,o),
(288,537,cs),
(368,537,o),
(433,517,o),
(481,465,c),
(518,417,o),
(527,355,o),
(527,284,cs),
(527,0,l)
);
}
);
width = 580;
}
);
},
{
glyphname = a0103.alt;
kernLeft = _kern27;
kernRight = _kern27;
layers = (
{
layerId = "421C3252-9543-41E3-AA96-2937FA2B9555";
shapes = (
{
closed = 1;
nodes = (
(182,579,o),
(104,633,o),
(95,750,c),
(228,750,l),
(233,711,o),
(262,691,o),
(297,691,cs),
(333,691,o),
(361,713,o),
(365,750,c),
(499,750,l),
(490,633,o),
(412,579,o),
(297,579,cs)
);
},
{
closed = 1;
nodes = (
(312,224,o),
(194,223,o),
(194,161,cs),
(194,128,o),
(225,115,o),
(257,115,cs),
(325,115,o),
(373,167,o),
(376,227,c)
);
},
{
closed = 1;
nodes = (
(383,0,l),
(382,19,o),
(381,39,o),
(378,59,c),
(333,1,o),
(260,-8,o),
(216,-8,cs),
(132,-8,o),
(36,32,o),
(36,150,cs),
(36,227,o),
(82,277,o),
(145,301,c),
(222,328,o),
(309,330,o),
(375,333,c),
(375,385,o),
(344,405,o),
(293,405,cs),
(253,405,o),
(217,394,o),
(206,359,c),
(45,359,l),
(64,493,o),
(171,537,o),
(288,537,cs),
(368,537,o),
(433,517,o),
(481,465,c),
(518,417,o),
(527,355,o),
(527,284,cs),
(527,0,l)
);
}
);
width = 580;
}
);
},
{
glyphname = a00E4.alt;
kernLeft = _kern27;
kernRight = _kern27;
layers = (
{
layerId = "421C3252-9543-41E3-AA96-2937FA2B9555";
shapes = (
{
closed = 1;
nodes = (
(226,746,o),
(266,714,o),
(266,658,cs),
(266,599,o),
(226,568,o),
(175,568,cs),
(123,568,o),
(83,599,o),
(83,658,cs),
(83,713,o),
(123,746,o),
(175,746,cs)
);
},
{
closed = 1;
nodes = (
(470,746,o),
(509,714,o),
(509,658,cs),
(509,599,o),
(470,568,o),
(418,568,cs),
(367,568,o),
(327,599,o),
(327,658,cs),
(327,713,o),
(367,746,o),
(418,746,cs)
);
},
{
closed = 1;
nodes = (
(312,224,o),
(194,223,o),
(194,161,cs),
(194,128,o),
(225,115,o),
(257,115,cs),
(325,115,o),
(373,167,o),
(376,227,c)
);
},
{
closed = 1;
nodes = (
(383,0,l),
(382,19,o),
(381,39,o),
(378,59,c),
(333,1,o),
(260,-8,o),
(216,-8,cs),
(132,-8,o),
(36,32,o),
(36,150,cs),
(36,227,o),
(82,277,o),
(145,301,c),
(222,328,o),
(309,330,o),
(375,333,c),
(375,385,o),
(344,405,o),
(293,405,cs),
(253,405,o),
(217,394,o),
(206,359,c),
(45,359,l),
(64,493,o),
(171,537,o),
(288,537,cs),
(368,537,o),
(433,517,o),
(481,465,c),
(518,417,o),
(527,355,o),
(527,284,cs),
(527,0,l)
);
}
);
width = 580;
}
);
},
{
glyphname = a2_alt;
kernLeft = _kern9;
layers = (
{
layerId = "421C3252-9543-41E3-AA96-2937FA2B9555";
shapes = (
{
closed = 1;
nodes = (
(436,43,l),
(388,2,o),
(336,-9,o),
(281,-9,cs),
(114,-9,o),
(34,112,o),
(34,263,cs),
(34,344,o),
(59,412,o),
(103,461,cs),
(147,509,o),
(208,537,o),
(296,537,cs),
(347,537,o),
(397,521,o),
(436,484,c),
(444,527,l),
(589,527,l),
(589,0,l),
(443,0,l)
);
},
{
closed = 1;
nodes = (
(390,133,o),
(430,194,o),
(430,264,cs),
(430,336,o),
(391,392,o),
(312,392,cs),
(230,392,o),
(192,332,o),
(192,265,cs),
(192,195,o),
(231,133,o),
(312,133,cs)
);
}
);
width = 643;
}
);
},
{
glyphname = logom;
layers = (
{
layerId = "421C3252-9543-41E3-AA96-2937FA2B9555";
shapes = (
{
closed = 1;
nodes = (
(786,502,o),
(781,498,o),
(774,496,c),
(774,486,o),
(766,477,o),
(755,477,c),
(752,462,o),
(733,456,o),
(722,467,cs),
(700,489,o),
(703,482,o),
(703,520,c),
(678,540,l),
(560,540,l),
(533,514,l),
(533,478,l),
(679,478,ls),
(684,478,o),
(689,476,o),
(693,472,c),
(718,447,ls),
(730,435,o),
(721,413,o),
(704,413,cs),
(651,413,o),
(663,408,o),
(632,439,c),
(522,439,l),
(427,344,l),
(418,334,o),
(405,334,o),
(397,344,c),
(302,439,l),
(192,439,l),
(172,419,l),
(168,415,o),
(163,413,o),
(158,413,cs),
(120,413,ls),
(103,413,o),
(94,434,o),
(106,447,c),
(131,472,l),
(135,476,o),
(140,478,o),
(145,478,cs),
(291,478,l),
(291,514,l),
(264,540,l),
(146,540,l),
(121,520,l),
(121,482,o),
(124,489,o),
(102,467,cs),
(91,456,o),
(72,461,o),
(69,477,c),
(58,477,o),
(50,486,o),
(50,496,c),
(34,499,o),
(29,518,o),
(40,529,cs),
(62,551,o),
(55,548,o),
(93,548,c),
(127,575,l),
(130,578,o),
(135,580,o),
(139,580,cs),
(178,580,l),
(183,593,o),
(200,596,o),
(210,587,c),
(217,580,l),
(272,580,ls),
(281,580,o),
(285,575,o),
(291,569,c),
(291,590,l),
(264,616,l),
(128,616,l),
(102,590,o),
(108,591,o),
(82,591,cs),
(71,591,o),
(64,600,o),
(55,609,c),
(48,617,o),
(48,628,o),
(54,636,c),
(40,653,o),
(59,666,o),
(68,675,c),
(75,683,o),
(84,681,o),
(95,681,cs),
(100,681,o),
(105,679,o),
(109,675,c),
(128,656,l),
(164,656,l),
(164,684,l),
(148,691,o),
(138,707,o),
(138,725,cs),
(138,763,ls),
(138,774,o),
(147,783,o),
(158,783,cs),
(209,783,ls),
(220,783,o),
(229,774,o),
(229,763,cs),
(229,725,ls),
(229,707,o),
(219,691,o),
(203,684,c),
(203,656,l),
(228,656,l),
(222,676,o),
(247,690,o),
(261,675,c),
(298,639,l),
(298,639,o),
(303,643,o),
(310,643,cs),
(321,643,o),
(330,634,o),
(330,623,cs),
(330,467,l),
(392,404,l),
(392,476,l),
(360,508,ls),
(342,526,o),
(369,554,o),
(388,536,c),
(392,531,l),
(392,615,l),
(297,711,ls),
(289,719,o),
(291,730,o),
(291,743,c),
(285,743,ls),
(259,743,o),
(259,783,o),
(285,783,cs),
(291,783,l),
(291,788,ls),
(291,814,o),
(330,814,o),
(330,788,cs),
(330,783,l),
(336,783,ls),
(362,783,o),
(362,743,o),
(336,743,cs),
(330,743,l),
(330,733,l),
(392,671,l),
(392,792,l),
(391,796,o),
(342,843,o),
(335,851,c),
(327,858,o),
(327,871,o),
(335,879,cs),
(340,884,o),
(348,893,o),
(354,896,c),
(354,927,o),
(352,921,o),
(373,942,c),
(379,949,o),
(389,950,o),
(397,945,c),
(407,954,o),
(422,951,o),
(427,945,c),
(443,955,o),
(454,939,o),
(464,929,cs),
(472,921,o),
(470,909,o),
(470,896,c),
(476,893,o),
(484,884,o),
(489,879,cs),
(497,871,o),
(497,858,o),
(489,851,c),
(482,843,o),
(433,796,o),
(432,792,c),
(432,671,l),
(494,733,l),
(494,743,l),
(488,743,ls),
(462,743,o),
(462,783,o),
(488,783,cs),
(494,783,l),
(494,788,ls),
(494,814,o),
(533,814,o),
(533,788,cs),
(533,783,l),
(539,783,ls),
(565,783,o),
(565,743,o),
(539,743,cs),
(533,743,l),
(533,730,o),
(535,719,o),
(528,711,c),
(432,615,l),
(432,531,l),
(437,537,o),
(441,542,o),
(450,542,cs),
(468,542,o),
(476,520,o),
(464,508,c),
(432,476,l),
(432,404,l),
(494,467,l),
(494,623,ls),
(494,640,o),
(513,649,o),
(526,639,c),
(563,675,l),
(577,690,o),
(602,676,o),
(596,656,c),
(621,656,l),
(621,684,l),
(605,691,o),
(595,707,o),
(595,725,cs),
(595,763,ls),
(595,774,o),
(604,783,o),
(615,783,cs),
(666,783,ls),
(677,783,o),
(686,774,o),
(686,763,cs),
(686,725,ls),
(686,707,o),
(676,691,o),
(660,684,c),
(660,656,l),
(696,656,l),
(722,682,o),
(716,681,o),
(742,681,cs),
(753,681,o),
(760,672,o),
(769,663,c),
(776,655,o),
(776,644,o),
(770,636,c),
(784,620,o),
(765,606,o),
(756,597,cs),
(749,590,o),
(740,591,o),
(729,591,cs),
(724,591,o),
(719,593,o),
(715,597,c),
(696,616,l),
(560,616,l),
(533,590,l),
(533,569,l),
(539,575,o),
(543,580,o),
(552,580,cs),
(607,580,l),
(613,586,o),
(618,592,o),
(628,592,cs),
(636,592,o),
(643,587,o),
(646,580,c),
(685,580,ls),
(689,580,o),
(694,578,o),
(697,575,c),
(731,548,l),
(770,548,o),
(762,551,o),
(784,529,c),
(790,524,o),
(792,515,o),
(789,508,cs)
);
},
{
closed = 1;
nodes = (
(263,13,l),
(263,6,o),
(257,0,o),
(250,0,cs),
(189,0,ls),
(182,0,o),
(176,6,o),
(176,13,cs),
(176,364,ls),
(176,371,o),
(182,377,o),
(189,377,cs),
(250,377,ls),
(258,377,o),
(266,373,o),
(272,368,c),
(404,235,l),
(408,232,o),
(414,232,o),
(417,235,c),
(550,368,l),
(556,373,o),
(563,377,o),
(572,377,cs),
(633,377,ls),
(640,377,o),
(645,371,o),
(645,364,cs),
(645,13,ls),
(645,6,o),
(640,0,o),
(633,0,cs),
(572,0,ls),
(565,0,o),
(559,6,o),
(559,13,cs),
(559,233,ls),
(559,236,o),
(555,238,o),
(552,236,c),
(433,116,l),
(421,105,o),
(401,105,o),
(389,116,c),
(269,236,l),
(267,238,o),
(263,236,o),
(263,233,cs)
);
}
);
width = 825;
}
);
},
{
glyphname = greaterequal;
layers = (
{
layerId = "421C3252-9543-41E3-AA96-2937FA2B9555";
shapes = (
{
closed = 1;
nodes = (
(50,300,l),
(280,402,l),
(50,505,l),
(50,661,l),
(504,447,l),
(504,364,l),
(50,145,l)
);
},
{
closed = 1;
nodes = (
(50,0,l),
(50,138,l),
(504,138,l),
(504,0,l)
);
}
);
width = 554;
}
);
unicode = 8805;
},
{
glyphname = lessequal;
layers = (
{
layerId = "421C3252-9543-41E3-AA96-2937FA2B9555";
shapes = (
{
closed = 1;
nodes = (
(504,507,l),
(274,405,l),
(504,301,l),
(504,145,l),
(50,359,l),
(50,443,l),
(504,661,l)
);
},
{
closed = 1;
nodes = (
(50,0,l),
(50,138,l),
(504,138,l),
(504,0,l)
);
}
);
width = 554;
}
);
unicode = 8804;
},
{
glyphname = plusminus;
layers = (
{
layerId = "421C3252-9543-41E3-AA96-2937FA2B9555";
shapes = (
{
closed = 1;
nodes = (
(365,351,l),
(365,190,l),
(228,190,l),
(228,351,l),
(56,351,l),
(56,489,l),
(228,489,l),
(228,662,l),
(365,662,l),
(365,489,l),
(538,489,l),
(538,351,l)
);
},
{
closed = 1;
nodes = (
(56,138,l),
(347,138,o),
(246,138,o),
(538,138,c),
(538,0,l),
(245,0,o),
(348,0,o),
(56,0,c)
);
}
);
width = 594;
}
);
unicode = 177;
},
{
glyphname = notequal;
layers = (
{
layerId = "421C3252-9543-41E3-AA96-2937FA2B9555";
shapes = (
{
closed = 1;
nodes = (
(56,410,l),
(56,547,l),
(306,547,l),
(377,703,l),
(526,703,l),
(455,547,l),
(520,547,l),
(520,410,l),
(392,410,l),
(339,294,l),
(520,294,l),
(520,156,l),
(276,156,l),
(205,0,l),
(56,0,l),
(127,156,l),
(56,156,l),
(56,294,l),
(190,294,l),
(243,410,l)
);
}
);
width = 582;
}
);
unicode = 8800;
},
{
glyphname = approxequal;
layers = (
{
layerId = "421C3252-9543-41E3-AA96-2937FA2B9555";
shapes = (
{
closed = 1;
nodes = (
(56,154,l),
(56,250,o),
(93,345,o),
(224,345,cs),
(326,345,o),
(374,260,o),
(417,260,cs),
(448,260,o),
(450,295,o),
(450,321,c),
(591,321,l),
(592,227,o),
(559,129,o),
(431,129,cs),
(332,129,o),
(273,218,o),
(232,218,cs),
(199,218,o),
(196,181,o),
(197,154,c)
);
},
{
closed = 1;
nodes = (
(56,386,l),
(56,483,o),
(93,578,o),
(224,578,cs),
(326,578,o),
(374,493,o),
(417,493,cs),
(448,493,o),
(450,527,o),
(450,553,c),
(591,553,l),
(592,460,o),
(559,362,o),
(431,362,cs),
(332,362,o),
(273,450,o),
(232,450,cs),
(199,450,o),
(196,414,o),
(197,386,c)
);
}
);
width = 648;
}
);
unicode = 8776;
},
{
glyphname = twosuperior;
layers = (
{
layerId = "421C3252-9543-41E3-AA96-2937FA2B9555";
shapes = (
{
closed = 1;
nodes = (
(332,467,l),
(332,372,l),
(58,372,l),
(58,454,l),
(92,482,o),
(127,509,o),
(161,539,cs),
(186,561,o),
(231,593,o),
(231,630,cs),
(231,652,o),
(216,663,o),
(195,663,cs),
(164,663,o),
(153,650,o),
(152,624,c),
(55,624,l),
(58,713,o),
(112,760,o),
(200,760,cs),
(275,760,o),
(336,716,o),
(336,637,cs),
(336,561,o),
(269,508,o),
(217,467,c)
);
}
);
width = 391;
}
);
unicode = 178;
},
{
glyphname = threesuperior;
layers = (
{
layerId = "421C3252-9543-41E3-AA96-2937FA2B9555";
shapes = (
{
closed = 1;
nodes = (
(346,564,o),
(362,530,o),
(362,494,cs),
(360,407,o),
(293,368,o),
(214,368,cs),
(118,368,o),
(55,417,o),
(55,503,c),
(156,503,l),
(160,479,o),
(179,464,o),
(213,464,cs),
(234,464,o),
(255,470,o),
(255,496,cs),
(255,517,o),
(239,524,o),
(221,524,cs),
(169,524,l),
(169,608,l),
(207,608,ls),
(228,608,o),
(243,616,o),
(243,638,cs),
(243,657,o),
(225,665,o),
(209,665,cs),
(181,665,o),
(166,653,o),
(166,631,c),
(66,631,l),
(65,714,o),
(124,760,o),
(212,760,cs),
(281,760,o),
(348,729,o),
(348,651,cs),
(348,625,o),
(339,596,o),
(313,580,c)
);
}
);
width = 417;
}
);
unicode = 179;
},
{
glyphname = tab_1;
layers = (
{
layerId = "421C3252-9543-41E3-AA96-2937FA2B9555";
shapes = (
{
closed = 1;
nodes = (
(261,505,l),
(110,505,l),
(110,626,l),
(148,626,o),
(188,628,o),
(224,641,cs),
(258,653,o),
(287,676,o),
(304,708,c),
(425,708,l),
(425,149,l),
(580,149,l),
(580,0,l),
(92,0,l),
(92,149,l),
(261,149,l)
);
}
);
width = 670;
}
);
},
{
glyphname = I_alt;
layers = (
{
layerId = "421C3252-9543-41E3-AA96-2937FA2B9555";
shapes = (
{
closed = 1;
nodes = (
(572,708,l),
(572,559,l),
(386,559,l),
(386,149,l),
(572,149,l),
(572,0,l),
(37,0,l),
(37,149,l),
(223,149,l),
(223,559,l),
(37,559,l),
(37,708,l)
);
}
);
width = 609;
}
);
},
{
glyphname = l_alt;
layers = (
{
layerId = "421C3252-9543-41E3-AA96-2937FA2B9555";
shapes = (
{
closed = 1;
nodes = (
(212,199,l),
(212,158,o),
(231,140,o),
(272,140,cs),
(315,140,l),
(315,0,l),
(256,0,ls),
(185,0,o),
(139,10,o),
(105,37,cs),
(72,64,o),
(55,110,o),
(55,176,c),
(55,708,l),
(212,708,l)
);
}
);
width = 331;
}
);
},
{
glyphname = l2_alt;
layers = (
{
layerId = "421C3252-9543-41E3-AA96-2937FA2B9555";
shapes = (
{
closed = 1;
nodes = (
(305,138,o),
(328,148,o),
(348,162,c),
(390,38,l),
(353,8,o),
(298,-7,o),
(252,-7,cs),
(125,-7,o),
(55,55,o),
(55,184,c),
(55,708,l),
(213,708,l),
(213,221,l),
(213,174,o),
(228,139,o),
(280,138,c)
);
}
);
width = 392;
}
);
},
{
glyphname = uniE000;
layers = (
{
layerId = "421C3252-9543-41E3-AA96-2937FA2B9555";
shapes = (
{
closed = 1;
nodes = (
(524,717,o),
(620,579,o),
(620,355,cs),
(620,129,o),
(527,-7,o),
(335,-7,cs),
(142,-7,o),
(50,129,o),
(50,355,cs),
(50,580,o),
(147,717,o),
(337,717,cs)
);
},
{
closed = 1;
nodes = (
(432,141,o),
(460,239,o),
(460,355,cs),
(460,468,o),
(433,567,o),
(337,567,cs),
(238,567,o),
(210,470,o),
(210,355,cs),
(210,240,o),
(236,141,o),
(335,141,cs)
);
}
);
width = 670;
}
);
unicode = 57344;
},
{
glyphname = uniE001;
layers = (
{
layerId = "421C3252-9543-41E3-AA96-2937FA2B9555";
shapes = (
{
closed = 1;
nodes = (
(417,0,l),
(254,0,l),
(254,504,l),
(115,504,l),
(115,624,l),
(195,624,o),
(260,645,o),
(297,708,c),
(417,708,l)
);
}
);
width = 670;
}
);
unicode = 57345;
},
{
glyphname = uniE002;
layers = (
{
layerId = "421C3252-9543-41E3-AA96-2937FA2B9555";
shapes = (
{
closed = 1;
nodes = (
(86,133,l),
(150,185,o),
(213,237,o),
(277,293,cs),
(323,333,o),
(353,360,o),
(368,376,cs),
(398,407,o),
(421,444,o),
(421,485,cs),
(421,530,o),
(393,566,o),
(333,566,cs),
(265,566,o),
(239,532,o),
(232,491,c),
(81,491,l),
(86,641,o),
(200,716,o),
(341,716,cs),
(473,716,o),
(584,642,o),
(584,496,cs),
(584,338,o),
(433,235,o),
(321,147,c),
(576,147,l),
(576,0,l),
(86,0,l)
);
}
);
width = 670;
}
);
unicode = 57346;
},
{
glyphname = uniE003;
layers = (
{
layerId = "421C3252-9543-41E3-AA96-2937FA2B9555";
shapes = (
{
closed = 1;
nodes = (
(72,497,l),
(85,649,o),
(197,717,o),
(335,717,cs),
(459,717,o),
(581,664,o),
(581,524,cs),
(581,467,o),
(550,412,o),
(502,384,c),
(573,357,o),
(608,292,o),
(607,216,cs),
(604,42,o),
(457,-7,o),
(334,-7,cs),
(258,-7,o),
(194,12,o),
(142,50,cs),
(90,88,o),
(60,146,o),
(52,223,c),
(212,223,l),
(225,164,o),
(277,142,o),
(336,142,cs),
(389,142,o),
(438,162,o),
(438,222,cs),
(438,259,o),
(416,292,o),
(352,292,cs),
(270,292,l),
(270,426,l),
(325,426,ls),
(404,426,o),
(414,478,o),
(414,503,c),
(413,544,o),
(378,569,o),
(330,569,cs),
(275,569,o),
(238,542,o),
(230,497,c)
);
}
);
width = 670;
}
);
unicode = 57347;
},
{
glyphname = uniE004;
layers = (
{
layerId = "421C3252-9543-41E3-AA96-2937FA2B9555";
shapes = (
{
closed = 1;
nodes = (
(553,272,l),
(629,272,l),
(629,127,l),
(553,127,l),
(553,0,l),
(390,0,l),
(390,127,l),
(45,127,l),
(45,247,l),
(362,708,l),
(553,708,l)
);
},
{
closed = 1;
nodes = (
(229,272,l),
(390,272,l),
(390,519,l)
);
}
);
width = 670;
}
);
unicode = 57348;
},
{
glyphname = uniE005;
layers = (
{
layerId = "421C3252-9543-41E3-AA96-2937FA2B9555";
shapes = (
{
closed = 1;
nodes = (
(87,297,l),
(114,708,l),
(574,708,l),
(574,562,l),
(256,562,l),
(246,444,l),
(289,467,o),
(331,474,o),
(372,474,cs),
(520,474,o),
(602,383,o),
(602,244,cs),
(602,84,o),
(487,-7,o),
(335,-7,cs),
(190,-7,o),
(92,60,o),
(75,219,c),
(234,219,l),
(243,176,o),
(279,145,o),
(332,142,c),
(405,142,o),
(437,182,o),
(437,238,cs),
(437,286,o),
(402,335,o),
(336,335,cs),
(293,335,o),
(260,321,o),
(229,297,c)
);
}
);
width = 670;
}
);
unicode = 57349;
},
{
glyphname = uniE006;
layers = (
{
layerId = "421C3252-9543-41E3-AA96-2937FA2B9555";
shapes = (
{
closed = 1;
nodes = (
(391,139,o),
(429,181,o),
(429,232,cs),
(429,288,o),
(397,329,o),
(329,328,cs),
(274,327,o),
(236,287,o),
(233,239,c),
(233,187,o),
(262,142,o),
(330,139,c)
);
},
{
closed = 1;
nodes = (
(437,509,l),
(426,548,o),
(391,570,o),
(343,570,cs),
(245,570,o),
(201,481,o),
(201,395,c),
(246,449,o),
(316,465,o),
(364,465,cs),
(505,465,o),
(591,385,o),
(591,238,cs),
(591,87,o),
(474,-6,o),
(339,-6,cs),
(127,-6,o),
(52,158,o),
(52,342,c),
(53,436,o),
(70,525,o),
(119,598,cs),
(167,670,o),
(245,715,o),
(350,716,c),
(473,716,o),
(577,653,o),
(590,509,c)
);
}
);
width = 670;
}
);
unicode = 57350;
},
{
glyphname = uniE007;
layers = (
{
layerId = "421C3252-9543-41E3-AA96-2937FA2B9555";
shapes = (
{
closed = 1;
nodes = (
(146,0,l),
(406,559,l),
(85,559,l),
(85,708,l),
(592,708,l),
(592,589,l),
(328,0,l)
);
}
);
width = 670;
}
);
unicode = 57351;
},
{
glyphname = uniE008;
layers = (
{
layerId = "421C3252-9543-41E3-AA96-2937FA2B9555";
shapes = (
{
closed = 1;
nodes = (
(602,52,o),
(468,-8,o),
(336,-8,cs),
(201,-8,o),
(68,52,o),
(65,208,c),
(65,288,o),
(94,349,o),
(166,381,c),
(119,412,o),
(91,463,o),
(91,519,cs),
(91,665,o),
(213,717,o),
(337,717,cs),
(461,717,o),
(579,663,o),
(579,519,cs),
(579,463,o),
(548,409,o),
(503,381,c),
(574,350,o),
(605,290,o),
(605,206,c)
);
},
{
closed = 1;
nodes = (
(280,578,o),
(248,550,o),
(248,502,cs),
(248,455,o),
(282,425,o),
(335,425,cs),
(391,425,o),
(421,456,o),
(421,503,cs),
(421,550,o),
(386,578,o),
(335,578,cs)
);
},
{
closed = 1;
nodes = (
(442,278,o),
(395,306,o),
(334,306,cs),
(273,306,o),
(226,277,o),
(226,221,cs),
(226,162,o),
(275,134,o),
(335,134,cs),
(394,134,o),
(442,162,o),
(442,221,cs)
);
}
);
width = 670;
}
);
unicode = 57352;
},
{
glyphname = uniE009;
layers = (
{
layerId = "421C3252-9543-41E3-AA96-2937FA2B9555";
shapes = (
{
closed = 1;
nodes = (
(278,570,o),
(239,533,o),
(239,477,cs),
(239,421,o),
(276,381,o),
(341,381,cs),
(406,381,o),
(439,428,o),
(439,473,cs),
(439,530,o),
(399,570,o),
(342,570,cs)
);
},
{
closed = 1;
nodes = (
(236,199,l),
(247,159,o),
(290,139,o),
(337,139,cs),
(423,139,o),
(465,221,o),
(468,309,c),
(423,258,o),
(358,244,o),
(309,244,cs),
(170,244,o),
(79,330,o),
(79,469,cs),
(79,629,o),
(199,715,o),
(343,715,cs),
(556,715,o),
(618,525,o),
(618,349,cs),
(618,164,o),
(541,-7,o),
(336,-7,cs),
(204,-7,o),
(97,57,o),
(81,199,c)
);
}
);
width = 670;
}
);
unicode = 57353;
},
{
glyphname = arrowright;
layers = (
{
layerId = "421C3252-9543-41E3-AA96-2937FA2B9555";
shapes = (
{
closed = 1;
nodes = (
(362,676,l),
(722,340,l),
(362,3,l),
(270,112,l),
(456,271,l),
(42,271,l),
(42,407,l),
(456,407,l),
(270,567,l)
);
}
);
width = 765;
}
);
unicode = 8594;
},
{
glyphname = arrowleft;
layers = (
{
layerId = "421C3252-9543-41E3-AA96-2937FA2B9555";
shapes = (
{
closed = 1;
nodes = (
(402,4,l),
(42,340,l),
(402,677,l),
(494,568,l),
(308,409,l),
(722,409,l),
(722,273,l),
(308,273,l),
(494,113,l)
);
}
);
width = 765;
}
);
unicode = 8592;
},
{
glyphname = uni2197;
layers = (
{
layerId = "421C3252-9543-41E3-AA96-2937FA2B9555";
shapes = (
{
closed = 1;
nodes = (
(130,563,l),
(622,580,l),
(606,88,l),
(464,100,l),
(483,344,l),
(190,51,l),
(94,147,l),
(387,440,l),
(142,421,l)
);
}
);
width = 765;
}
);
unicode = 8599;
},
{
glyphname = uni2198;
layers = (
{
layerId = "421C3252-9543-41E3-AA96-2937FA2B9555";
shapes = (
{
closed = 1;
nodes = (
(605,592,l),
(622,100,l),
(130,116,l),
(142,258,l),
(386,239,l),
(93,532,l),
(189,628,l),
(482,335,l),
(463,580,l)
);
}
);
width = 765;
}
);
unicode = 8600;
},
{
glyphname = uni2196;
layers = (
{
layerId = "421C3252-9543-41E3-AA96-2937FA2B9555";
shapes = (
{
closed = 1;
nodes = (
(159,88,l),
(142,580,l),
(634,564,l),
(622,422,l),
(378,441,l),
(671,148,l),
(575,52,l),
(282,345,l),
(301,100,l)
);
}
);
width = 765;
}
);
unicode = 8598;
},
{
glyphname = uni2199;
layers = (
{
layerId = "421C3252-9543-41E3-AA96-2937FA2B9555";
shapes = (
{
closed = 1;
nodes = (
(634,117,l),
(142,100,l),
(158,592,l),
(300,580,l),
(281,336,l),
(574,629,l),
(670,533,l),
(377,240,l),
(622,259,l)
);
}
);
width = 765;
}
);
unicode = 8601;
},
{
glyphname = uniE010;
layers = (
{
layerId = "421C3252-9543-41E3-AA96-2937FA2B9555";
shapes = (
{
closed = 1;
nodes = (
(223,180,o),
(264,146,o),
(264,83,cs),
(264,19,o),
(223,-13,o),
(170,-13,cs),
(115,-13,o),
(75,19,o),
(75,83,cs),
(75,144,o),
(117,180,o),
(170,180,cs)
);
}
);
width = 339;
}
);
unicode = 57360;
},
{
glyphname = uniE011;
layers = (
{
layerId = "421C3252-9543-41E3-AA96-2937FA2B9555";
shapes = (
{
closed = 1;
nodes = (
(117,-5,o),
(78,25,o),
(78,81,cs),
(78,144,o),
(125,176,o),
(178,176,cs),
(247,176,o),
(284,120,o),
(281,48,c),
(278,-58,o),
(194,-148,o),
(111,-175,c),
(68,-110,l),
(103,-91,o),
(149,-49,o),
(162,-9,c)
);
}
);
width = 359;
}
);
unicode = 57361;
},
{
glyphname = uniE012;
layers = (
{
layerId = "421C3252-9543-41E3-AA96-2937FA2B9555";
shapes = (
{
closed = 1;
nodes = (
(227,528,o),
(267,490,o),
(267,430,cs),
(267,366,o),
(227,334,o),
(171,334,cs),
(116,334,o),
(75,366,o),
(75,430,cs),
(75,490,o),
(118,528,o),
(171,528,cs)
);
},
{
closed = 1;
nodes = (
(227,184,o),
(267,147,o),
(267,87,cs),
(267,23,o),
(227,-9,o),
(171,-9,cs),
(116,-9,o),
(75,23,o),
(75,87,cs),
(75,147,o),
(118,184,o),
(171,184,cs)
);
}
);
width = 342;
}
);
unicode = 57362;
},
{
glyphname = uniE013;
layers = (
{
layerId = "421C3252-9543-41E3-AA96-2937FA2B9555";
shapes = (
{
closed = 1;
nodes = (
(116,-4,o),
(80,27,o),
(80,82,cs),
(80,146,o),
(124,177,o),
(179,177,cs),
(250,177,o),
(282,119,o),
(282,51,cs),
(282,-53,o),
(201,-146,o),
(113,-175,c),
(69,-109,l),
(106,-89,o),
(149,-46,o),
(163,-8,c)
);
},
{
closed = 1;
nodes = (
(235,528,o),
(275,490,o),
(275,430,cs),
(275,366,o),
(235,334,o),
(180,334,cs),
(124,334,o),
(83,366,o),
(83,430,cs),
(83,490,o),
(125,528,o),
(180,528,cs)
);
}
);
width = 357;
}
);
unicode = 57363;
},
{
glyphname = uniE014;
layers = (
{
layerId = "421C3252-9543-41E3-AA96-2937FA2B9555";
shapes = (
{
closed = 1;
nodes = (
(219,425,l),
(113,425,l),
(91,708,l),
(243,708,l)
);
}
);
width = 334;
}
);
unicode = 57364;
},
{
glyphname = uniE015;
layers = (
{
layerId = "421C3252-9543-41E3-AA96-2937FA2B9555";
shapes = (
{
closed = 1;
nodes = (
(371,425,l),
(265,425,l),
(245,708,l),
(395,708,l)
);
},
{
closed = 1;
nodes = (
(175,425,l),
(69,425,l),
(50,708,l),
(198,708,l)
);
}
);
width = 445;
}
);
unicode = 57365;
},
{
glyphname = uniE016;
layers = (
{
layerId = "421C3252-9543-41E3-AA96-2937FA2B9555";
shapes = (
{
closed = 1;
nodes = (
(112,566,o),
(78,597,o),
(78,649,cs),
(78,709,o),
(120,739,o),
(172,739,cs),
(239,739,o),
(270,682,o),
(270,619,cs),
(270,521,o),
(189,429,o),
(109,405,c),
(96,426,o),
(81,446,o),
(68,467,c),
(102,485,o),
(148,529,o),
(156,563,c)
);
}
);
width = 345;
}
);
unicode = 57366;
},
{
glyphname = uniE017;
layers = (
{
layerId = "421C3252-9543-41E3-AA96-2937FA2B9555";
shapes = (
{
closed = 1;
nodes = (
(66,566,o),
(32,597,o),
(32,649,cs),
(32,709,o),
(74,739,o),
(126,739,cs),
(193,739,o),
(224,682,o),
(224,619,cs),
(224,520,o),
(146,432,o),
(63,405,c),
(50,426,o),
(35,446,o),
(22,467,c),
(57,486,o),
(100,528,o),
(111,563,c)
);
},
{
closed = 1;
nodes = (
(305,566,o),
(271,597,o),
(271,649,cs),
(271,709,o),
(314,739,o),
(366,739,cs),
(434,739,o),
(463,682,o),
(463,619,cs),
(463,520,o),
(385,432,o),
(302,405,c),
(289,426,o),
(274,446,o),
(261,467,c),
(296,486,o),
(339,528,o),
(350,563,c)
);
}
);
width = 486;
}
);
unicode = 57367;
},
{
glyphname = uniE018;
layers = (
{
layerId = "421C3252-9543-41E3-AA96-2937FA2B9555";
shapes = (
{
closed = 1;
nodes = (
(226,605,o),
(261,574,o),
(261,523,cs),
(261,463,o),
(217,431,o),
(166,432,c),
(99,432,o),
(69,489,o),
(69,553,cs),
(69,651,o),
(147,738,o),
(229,767,c),
(271,705,l),
(237,684,o),
(193,646,o),
(182,608,c)
);
}
);
width = 346;
}
);
unicode = 57368;
},
{
glyphname = uniE019;
layers = (
{
layerId = "421C3252-9543-41E3-AA96-2937FA2B9555";
shapes = (
{
closed = 1;
nodes = (
(419,605,o),
(453,574,o),
(453,523,cs),
(453,463,o),
(410,431,o),
(359,432,c),
(290,432,o),
(261,489,o),
(261,553,cs),
(261,652,o),
(339,738,o),
(422,767,c),
(435,746,o),
(450,726,o),
(463,705,c),
(429,684,o),
(385,646,o),
(374,608,c)
);
},
{
closed = 1;
nodes = (
(180,605,o),
(214,574,o),
(214,523,cs),
(214,463,o),
(171,431,o),
(119,432,c),
(51,432,o),
(22,489,o),
(22,553,cs),
(22,652,o),
(100,738,o),
(183,767,c),
(196,746,o),
(211,726,o),
(224,705,c),
(190,684,o),
(146,646,o),
(135,608,c)
);
}
);
width = 486;
}
);
unicode = 57369;
},
{
glyphname = uniE020;
layers = (
{
layerId = "421C3252-9543-41E3-AA96-2937FA2B9555";
shapes = (
{
closed = 1;
nodes = (
(112,-4,o),
(78,27,o),
(78,79,cs),
(78,139,o),
(120,169,o),
(172,169,cs),
(239,169,o),
(270,112,o),
(270,49,cs),
(270,-49,o),
(189,-141,o),
(109,-165,c),
(68,-104,l),
(102,-86,o),
(148,-42,o),
(156,-7,c)
);
}
);
width = 346;
}
);
unicode = 57376;
},
{
glyphname = uniE021;
layers = (
{
layerId = "421C3252-9543-41E3-AA96-2937FA2B9555";
shapes = (
{
closed = 1;
nodes = (
(66,-4,o),
(32,27,o),
(32,79,cs),
(32,139,o),
(74,169,o),
(126,169,cs),
(193,169,o),
(224,112,o),
(224,49,cs),
(224,-49,o),
(146,-138,o),
(63,-165,c),
(22,-104,l),
(57,-85,o),
(101,-43,o),
(111,-7,c)
);
},
{
closed = 1;
nodes = (
(305,-4,o),
(271,27,o),
(271,79,cs),
(271,139,o),
(314,169,o),
(366,169,cs),
(434,169,o),
(463,112,o),
(463,49,cs),
(463,-49,o),
(385,-138,o),
(302,-165,c),
(261,-104,l),
(296,-85,o),
(340,-43,o),
(350,-7,c)
);
}
);
width = 486;
}
);
unicode = 57377;
},
{
glyphname = uniE022;
layers = (
{
layerId = "421C3252-9543-41E3-AA96-2937FA2B9555";
shapes = (
{
closed = 1;
nodes = (
(227,606,o),
(267,569,o),
(267,509,cs),
(267,445,o),
(227,413,o),
(171,413,cs),
(116,413,o),
(75,445,o),
(75,509,cs),
(75,569,o),
(118,606,o),
(171,606,cs)
);
},
{
closed = 1;
nodes = (
(227,262,o),
(267,225,o),
(267,165,cs),
(267,101,o),
(227,69,o),
(171,69,cs),
(116,69,o),
(75,101,o),
(75,165,cs),
(75,225,o),
(118,262,o),
(171,262,cs)
);
}
);
width = 342;
}
);
unicode = 57378;
},
{
glyphname = questiondown;
layers = (
{
associatedMasterId = "421C3252-9543-41E3-AA96-2937FA2B9555";
layerId = "A269494A-BFFB-4006-B6A8-EFEC4CB0D00A";
name = img;
width = 540;
},
{
layerId = "421C3252-9543-41E3-AA96-2937FA2B9555";
shapes = (
{
closed = 1;
nodes = (
(225,348,o),
(184,380,o),
(184,443,cs),
(184,507,o),
(225,538,o),
(280,538,cs),
(336,538,o),
(377,507,o),
(377,443,cs),
(377,380,o),
(336,348,o),
(280,348,cs)
);
},
{
closed = 1;
nodes = (
(356,296,l),
(359,280,o),
(359,266,o),
(359,253,cs),
(355,133,o),
(202,98,o),
(202,19,cs),
(202,-20,o),
(228,-41,o),
(275,-41,cs),
(328,-41,o),
(360,-21,o),
(363,30,c),
(516,30,l),
(516,-109,o),
(429,-188,o),
(272,-188,cs),
(155,-188,o),
(42,-137,o),
(42,4,c),
(45,60,o),
(65,101,o),
(142,176,cs),
(178,212,o),
(211,243,o),
(210,296,c)
);
}
);
width = 540;
}
);
unicode = 191;
},
{
glyphname = exclamdown;
layers = (
{
associatedMasterId = "421C3252-9543-41E3-AA96-2937FA2B9555";
layerId = "A269494A-BFFB-4006-B6A8-EFEC4CB0D00A";
name = img;
width = 320;
},
{
layerId = "421C3252-9543-41E3-AA96-2937FA2B9555";
shapes = (
{
closed = 1;
nodes = (
(104,350,o),
(64,384,o),
(64,445,cs),
(64,503,o),
(107,538,o),
(163,538,cs),
(215,538,o),
(256,504,o),
(256,445,cs),
(256,385,o),
(215,350,o),
(160,350,cs)
);
},
{
closed = 1;
nodes = (
(87,287,l),
(232,287,l),
(244,-179,l),
(74,-179,l)
);
}
);
width = 320;
}
);
unicode = 161;
},
{
glyphname = uni1E9E;
layers = (
{
layerId = "421C3252-9543-41E3-AA96-2937FA2B9555";
shapes = (
{
closed = 1;
nodes = (
(74,476,ls),
(74,636,o),
(195,717,o),
(354,717,cs),
(478,717,o),
(596,663,o),
(634,531,c),
(522,398,l),
(569,381,o),
(617,359,o),
(656,324,c),
(695,291,o),
(720,247,o),
(720,186,cs),
(720,74,o),
(644,-7,o),
(509,-7,cs),
(374,-7,o),
(294,66,o),
(291,186,c),
(438,186,l),
(441,157,o),
(464,138,o),
(503,138,cs),
(538,138,o),
(561,164,o),
(561,192,cs),
(561,244,o),
(496,271,o),
(425,300,cs),
(392,313,o),
(358,325,o),
(327,337,c),
(456,509,l),
(440,552,o),
(391,567,o),
(351,567,cs),
(295,567,o),
(237,539,o),
(237,463,cs),
(237,0,l),
(74,0,l)
);
}
);
width = 760;
}
);
unicode = 7838;
},
{
glyphname = ordfeminine;
layers = (
{
associatedMasterId = "421C3252-9543-41E3-AA96-2937FA2B9555";
layerId = "A269494A-BFFB-4006-B6A8-EFEC4CB0D00A";
name = img;
width = 372;
},
{
layerId = "421C3252-9543-41E3-AA96-2937FA2B9555";
shapes = (
{
closed = 1;
nodes = (
(244,482,l),
(220,449,o),
(185,438,o),
(146,438,cs),
(83,438,o),
(40,474,o),
(40,538,cs),
(40,620,o),
(116,634,o),
(182,634,cs),
(240,634,l),
(238,665,o),
(221,681,o),
(190,681,cs),
(173,681,o),
(147,676,o),
(144,655,c),
(47,655,l),
(55,730,o),
(121,764,o),
(190,764,cs),
(287,764,o),
(332,711,o),
(332,612,cs),
(332,442,l),
(245,442,l)
);
},
{
closed = 1;
nodes = (
(179,571,ls),
(159,571,o),
(135,567,o),
(135,543,cs),
(135,520,o),
(155,513,o),
(174,514,c),
(209,514,o),
(238,535,o),
(241,571,c)
);
}
);
width = 372;
}
);
unicode = 170;
},
{
glyphname = ordmasculine;
layers = (
{
associatedMasterId = "421C3252-9543-41E3-AA96-2937FA2B9555";
layerId = "A269494A-BFFB-4006-B6A8-EFEC4CB0D00A";
name = img;
width = 372;
},
{
layerId = "421C3252-9543-41E3-AA96-2937FA2B9555";
shapes = (
{
closed = 1;
nodes = (
(288,763,o),
(332,694,o),
(332,599,cs),
(332,504,o),
(287,437,o),
(186,437,cs),
(85,437,o),
(40,504,o),
(40,599,cs),
(40,695,o),
(85,763,o),
(187,763,cs)
);
},
{
closed = 1;
nodes = (
(142,680,o),
(130,638,o),
(130,600,cs),
(130,563,o),
(138,519,o),
(186,519,cs),
(231,519,o),
(242,563,o),
(242,600,cs),
(242,636,o),
(233,680,o),
(187,680,cs)
);
}
);
width = 372;
}
);
unicode = 186;
},
{
glyphname = macron;
layers = (
{
associatedMasterId = "421C3252-9543-41E3-AA96-2937FA2B9555";
layerId = "A269494A-BFFB-4006-B6A8-EFEC4CB0D00A";
name = img;
width = 577;
},
{
layerId = "421C3252-9543-41E3-AA96-2937FA2B9555";
shapes = (
{
closed = 1;
nodes = (
(477,753,l),
(477,620,l),
(100,620,l),
(100,753,l)
);
}
);
width = 577;
}
);
unicode = 175;
},
{
glyphname = paragraph;
layers = (
{
associatedMasterId = "421C3252-9543-41E3-AA96-2937FA2B9555";
layerId = "A269494A-BFFB-4006-B6A8-EFEC4CB0D00A";
name = img;
width = 742;
},
{
layerId = "421C3252-9543-41E3-AA96-2937FA2B9555";
shapes = (
{
closed = 1;
nodes = (
(737,562,l),
(636,562,l),
(636,0,l),
(479,0,l),
(479,562,l),
(379,562,l),
(379,0,l),
(221,0,l),
(221,315,l),
(207,315,ls),
(85,315,o),
(5,396,o),
(5,519,cs),
(5,630,o),
(93,708,o),
(202,708,cs),
(737,708,l)
);
}
);
width = 742;
}
);
unicode = 182;
},
{
glyphname = periodcentered;
layers = (
{
associatedMasterId = "421C3252-9543-41E3-AA96-2937FA2B9555";
layerId = "A269494A-BFFB-4006-B6A8-EFEC4CB0D00A";
name = img;
width = 269;
},
{
layerId = "421C3252-9543-41E3-AA96-2937FA2B9555";
shapes = (
{
closed = 1;
nodes = (
(190,449,o),
(229,412,o),
(229,356,cs),
(229,300,o),
(190,263,o),
(134,263,cs),
(78,263,o),
(40,300,o),
(40,356,cs),
(40,412,o),
(79,449,o),
(134,449,cs)
);
}
);
width = 269;
}
);
unicode = 183;
},
{
glyphname = caron;
layers = (
{
associatedMasterId = "421C3252-9543-41E3-AA96-2937FA2B9555";
layerId = "A269494A-BFFB-4006-B6A8-EFEC4CB0D00A";
name = img;
width = 620;
},
{
layerId = "421C3252-9543-41E3-AA96-2937FA2B9555";
shapes = (
{
closed = 1;
nodes = (
(259,584,l),
(100,769,l),
(246,769,l),
(311,682,l),
(374,769,l),
(520,769,l),
(362,584,l)
);
}
);
width = 620;
}
);
unicode = 711;
},
{
glyphname = dotaccent;
layers = (
{
associatedMasterId = "421C3252-9543-41E3-AA96-2937FA2B9555";
layerId = "A269494A-BFFB-4006-B6A8-EFEC4CB0D00A";
name = img;
width = 389;
},
{
layerId = "421C3252-9543-41E3-AA96-2937FA2B9555";
shapes = (
{
closed = 1;
nodes = (
(250,769,o),
(289,732,o),
(289,676,cs),
(289,619,o),
(250,583,o),
(194,583,cs),
(138,583,o),
(100,620,o),
(100,676,cs),
(100,732,o),
(139,769,o),
(194,769,cs)
);
}
);
width = 389;
}
);
unicode = 729;
},
{
glyphname = ring;
layers = (
{
associatedMasterId = "421C3252-9543-41E3-AA96-2937FA2B9555";
layerId = "A269494A-BFFB-4006-B6A8-EFEC4CB0D00A";
name = img;
width = 449;
},
{
layerId = "421C3252-9543-41E3-AA96-2937FA2B9555";
shapes = (
{
closed = 1;
nodes = (
(295,819,o),
(349,772,o),
(349,700,cs),
(349,625,o),
(296,582,o),
(224,582,cs),
(153,582,o),
(100,627,o),
(100,700,cs),
(100,771,o),
(155,819,o),
(224,819,cs)
);
},
{
closed = 1;
nodes = (
(201,739,o),
(184,723,o),
(184,700,cs),
(184,676,o),
(200,661,o),
(224,661,cs),
(247,661,o),
(265,676,o),
(265,700,cs),
(265,724,o),
(247,739,o),
(224,739,cs)
);
}
);
width = 449;
}
);
unicode = 730;
},
{
glyphname = ogonek;
layers = (
{
associatedMasterId = "421C3252-9543-41E3-AA96-2937FA2B9555";
layerId = "A269494A-BFFB-4006-B6A8-EFEC4CB0D00A";
name = img;
width = 448;
},
{
layerId = "421C3252-9543-41E3-AA96-2937FA2B9555";
shapes = (
{
closed = 1;
nodes = (
(286,2,l),
(257,-9,o),
(224,-33,o),
(223,-68,cs),
(222,-99,o),
(244,-118,o),
(272,-118,cs),
(285,-118,o),
(299,-115,o),
(313,-109,c),
(328,-197,l),
(303,-212,o),
(275,-216,o),
(246,-215,c),
(178,-215,o),
(120,-175,o),
(120,-100,cs),
(120,-49,o),
(155,-6,o),
(199,13,c)
);
}
);
width = 448;
}
);
unicode = 731;
},
{
glyphname = tilde;
layers = (
{
associatedMasterId = "421C3252-9543-41E3-AA96-2937FA2B9555";
layerId = "A269494A-BFFB-4006-B6A8-EFEC4CB0D00A";
name = img;
width = 632;
},
{
layerId = "421C3252-9543-41E3-AA96-2937FA2B9555";
shapes = (
{
closed = 1;
nodes = (
(122,591,l),
(121,598,o),
(120,604,o),
(120,624,c),
(123,703,o),
(161,764,o),
(246,764,cs),
(315,764,o),
(346,699,o),
(381,699,cs),
(411,699,o),
(412,733,o),
(409,758,c),
(512,758,l),
(512,751,o),
(512,744,o),
(512,737,cs),
(512,661,o),
(485,586,o),
(397,586,cs),
(327,586,o),
(284,655,o),
(252,655,cs),
(224,655,o),
(218,612,o),
(223,591,c)
);
}
);
width = 632;
}
);
unicode = 732;
},
{
glyphname = hungarumlaut;
layers = (
{
associatedMasterId = "421C3252-9543-41E3-AA96-2937FA2B9555";
layerId = "A269494A-BFFB-4006-B6A8-EFEC4CB0D00A";
name = img;
width = 585;
},
{
layerId = "421C3252-9543-41E3-AA96-2937FA2B9555";
shapes = (
{
closed = 1;
nodes = (
(172,769,l),
(323,769,l),
(210,584,l),
(94,584,l)
);
},
{
closed = 1;
nodes = (
(391,769,l),
(543,769,l),
(401,584,l),
(280,584,l)
);
}
);
width = 585;
}
);
unicode = 733;
},
{
glyphname = uni0308;
layers = (
{
associatedMasterId = "421C3252-9543-41E3-AA96-2937FA2B9555";
layerId = "A269494A-BFFB-4006-B6A8-EFEC4CB0D00A";
name = img;
width = 0;
},
{
layerId = "421C3252-9543-41E3-AA96-2937FA2B9555";
shapes = (
{
closed = 1;
nodes = (
(-364,760,o),
(-325,728,o),
(-325,672,cs),
(-325,615,o),
(-364,583,o),
(-415,583,cs),
(-466,583,o),
(-505,615,o),
(-505,672,cs),
(-505,727,o),
(-466,760,o),
(-415,760,cs)
);
},
{
closed = 1;
nodes = (
(-96,760,o),
(-56,728,o),
(-56,672,cs),
(-56,615,o),
(-96,583,o),
(-147,583,cs),
(-198,583,o),
(-237,615,o),
(-237,672,cs),
(-237,727,o),
(-196,760,o),
(-147,760,cs)
);
}
);
width = 0;
}
);
unicode = 776;
},
{
glyphname = gravecomb;
layers = (
{
associatedMasterId = "421C3252-9543-41E3-AA96-2937FA2B9555";
layerId = "A269494A-BFFB-4006-B6A8-EFEC4CB0D00A";
name = img;
width = 0;
},
{
layerId = "421C3252-9543-41E3-AA96-2937FA2B9555";
shapes = (
{
closed = 1;
nodes = (
(-307,584,l),
(-460,769,l),
(-297,769,l),
(-177,584,l)
);
}
);
width = 0;
}
);
unicode = 768;
},
{
glyphname = acutecomb;
layers = (
{
associatedMasterId = "421C3252-9543-41E3-AA96-2937FA2B9555";
layerId = "A269494A-BFFB-4006-B6A8-EFEC4CB0D00A";
name = img;
width = 0;
},
{
layerId = "421C3252-9543-41E3-AA96-2937FA2B9555";
shapes = (
{
closed = 1;
nodes = (
(-360,584,l),
(-240,769,l),
(-77,769,l),
(-230,584,l)
);
}
);
width = 0;
}
);
unicode = 769;
},
{
glyphname = uni0302;
layers = (
{
associatedMasterId = "421C3252-9543-41E3-AA96-2937FA2B9555";
layerId = "A269494A-BFFB-4006-B6A8-EFEC4CB0D00A";
name = img;
width = 0;
},
{
layerId = "421C3252-9543-41E3-AA96-2937FA2B9555";
shapes = (
{
closed = 1;
nodes = (
(-75,584,l),
(-221,584,l),
(-286,671,l),
(-349,584,l),
(-495,584,l),
(-337,769,l),
(-235,769,l)
);
}
);
width = 0;
}
);
unicode = 770;
},
{
glyphname = tildecomb;
layers = (
{
associatedMasterId = "421C3252-9543-41E3-AA96-2937FA2B9555";
layerId = "A269494A-BFFB-4006-B6A8-EFEC4CB0D00A";
name = img;
width = 0;
},
{
layerId = "421C3252-9543-41E3-AA96-2937FA2B9555";
shapes = (
{
closed = 1;
nodes = (
(-478,591,l),
(-479,598,o),
(-480,604,o),
(-480,624,c),
(-477,703,o),
(-439,764,o),
(-354,764,cs),
(-285,764,o),
(-254,699,o),
(-219,699,cs),
(-189,699,o),
(-188,733,o),
(-191,758,c),
(-88,758,l),
(-88,751,o),
(-88,744,o),
(-88,737,cs),
(-88,661,o),
(-115,586,o),
(-203,586,cs),
(-273,586,o),
(-316,655,o),
(-348,655,cs),
(-376,655,o),
(-382,612,o),
(-377,591,c)
);
}
);
width = 0;
}
);
unicode = 771;
},
{
glyphname = uni0304;
layers = (
{
associatedMasterId = "421C3252-9543-41E3-AA96-2937FA2B9555";
layerId = "A269494A-BFFB-4006-B6A8-EFEC4CB0D00A";
name = img;
width = 0;
},
{
layerId = "421C3252-9543-41E3-AA96-2937FA2B9555";
shapes = (
{
closed = 1;
nodes = (
(-103,753,l),
(-103,620,l),
(-480,620,l),
(-480,753,l)
);
}
);
width = 0;
}
);
unicode = 772;
},
{
glyphname = uni0306;
layers = (
{
associatedMasterId = "421C3252-9543-41E3-AA96-2937FA2B9555";
layerId = "A269494A-BFFB-4006-B6A8-EFEC4CB0D00A";
name = img;
width = 0;
},
{
layerId = "421C3252-9543-41E3-AA96-2937FA2B9555";
shapes = (
{
closed = 1;
nodes = (
(-349,760,l),
(-348,715,o),
(-327,690,o),
(-280,690,cs),
(-233,690,o),
(-212,715,o),
(-211,760,c),
(-85,760,l),
(-86,637,o),
(-163,583,o),
(-280,583,cs),
(-397,583,o),
(-474,637,o),
(-475,760,c)
);
}
);
width = 0;
}
);
unicode = 774;
},
{
glyphname = uni0307;
layers = (
{
associatedMasterId = "421C3252-9543-41E3-AA96-2937FA2B9555";
layerId = "A269494A-BFFB-4006-B6A8-EFEC4CB0D00A";
name = img;
width = 0;
},
{
layerId = "421C3252-9543-41E3-AA96-2937FA2B9555";
shapes = (
{
closed = 1;
nodes = (
(-235,769,o),
(-196,732,o),
(-196,676,cs),
(-196,619,o),
(-235,583,o),
(-291,583,cs),
(-347,583,o),
(-385,620,o),
(-385,676,cs),
(-385,732,o),
(-346,769,o),
(-291,769,cs)
);
}
);
width = 0;
}
);
unicode = 775;
},
{
glyphname = uni030A;
layers = (
{
associatedMasterId = "421C3252-9543-41E3-AA96-2937FA2B9555";
layerId = "A269494A-BFFB-4006-B6A8-EFEC4CB0D00A";
name = img;
width = 0;
},
{
layerId = "421C3252-9543-41E3-AA96-2937FA2B9555";
shapes = (
{
closed = 1;
nodes = (
(-215,819,o),
(-161,772,o),
(-161,700,cs),
(-161,625,o),
(-214,582,o),
(-286,582,cs),
(-357,582,o),
(-410,627,o),
(-410,700,cs),
(-410,771,o),
(-355,819,o),
(-286,819,cs)
);
},
{
closed = 1;
nodes = (
(-309,739,o),
(-326,723,o),
(-326,700,cs),
(-326,676,o),
(-310,661,o),
(-286,661,cs),
(-263,661,o),
(-245,676,o),
(-245,700,cs),
(-245,724,o),
(-263,739,o),
(-286,739,cs)
);
}
);
width = 0;
}
);
unicode = 778;
},
{
glyphname = uni030B;
layers = (
{
associatedMasterId = "421C3252-9543-41E3-AA96-2937FA2B9555";
layerId = "A269494A-BFFB-4006-B6A8-EFEC4CB0D00A";
name = img;
width = 0;
},
{
layerId = "421C3252-9543-41E3-AA96-2937FA2B9555";
shapes = (
{
closed = 1;
nodes = (
(-372,769,l),
(-221,769,l),
(-334,584,l),
(-450,584,l)
);
},
{
closed = 1;
nodes = (
(-153,769,l),
(-1,769,l),
(-143,584,l),
(-264,584,l)
);
}
);
width = 0;
}
);
unicode = 779;
},
{
glyphname = uni030C;
layers = (
{
associatedMasterId = "421C3252-9543-41E3-AA96-2937FA2B9555";
layerId = "A269494A-BFFB-4006-B6A8-EFEC4CB0D00A";
name = img;
width = 0;
},
{
layerId = "421C3252-9543-41E3-AA96-2937FA2B9555";
shapes = (
{
closed = 1;
nodes = (
(-321,584,l),
(-480,769,l),
(-334,769,l),
(-269,682,l),
(-206,769,l),
(-60,769,l),
(-218,584,l)
);
}
);
width = 0;
}
);
unicode = 780;
},
{
glyphname = uni0312;
layers = (
{
associatedMasterId = "421C3252-9543-41E3-AA96-2937FA2B9555";
layerId = "A269494A-BFFB-4006-B6A8-EFEC4CB0D00A";
name = img;
width = 0;
},
{
layerId = "421C3252-9543-41E3-AA96-2937FA2B9555";
shapes = (
{
closed = 1;
nodes = (
(-221,741,o),
(-186,710,o),
(-186,665,cs),
(-186,612,o),
(-229,582,o),
(-277,583,c),
(-342,583,o),
(-370,634,o),
(-370,692,cs),
(-370,781,o),
(-296,860,o),
(-217,886,c),
(-177,830,l),
(-210,811,o),
(-251,776,o),
(-262,742,c)
);
}
);
width = 0;
}
);
unicode = 786;
},
{
glyphname = uni0327;
layers = (
{
associatedMasterId = "421C3252-9543-41E3-AA96-2937FA2B9555";
layerId = "A269494A-BFFB-4006-B6A8-EFEC4CB0D00A";
name = img;
width = 0;
},
{
layerId = "421C3252-9543-41E3-AA96-2937FA2B9555";
shapes = (
{
closed = 1;
nodes = (
(-256,39,l),
(-276,-22,l),
(-217,-22,o),
(-171,-54,o),
(-171,-122,cs),
(-171,-217,o),
(-257,-255,o),
(-334,-255,cs),
(-356,-255,o),
(-378,-253,o),
(-400,-249,c),
(-400,-158,l),
(-380,-161,o),
(-363,-163,o),
(-348,-163,cs),
(-305,-163,o),
(-288,-150,o),
(-288,-127,cs),
(-288,-104,o),
(-314,-93,o),
(-347,-93,cs),
(-367,-93,o),
(-387,-95,o),
(-398,-98,c),
(-355,39,l)
);
}
);
width = 0;
}
);
unicode = 807;
},
{
glyphname = uni0328;
layers = (
{
associatedMasterId = "421C3252-9543-41E3-AA96-2937FA2B9555";
layerId = "A269494A-BFFB-4006-B6A8-EFEC4CB0D00A";
name = img;
width = 0;
},
{
layerId = "421C3252-9543-41E3-AA96-2937FA2B9555";
shapes = (
{
closed = 1;
nodes = (
(-69,2,l),
(-98,-9,o),
(-131,-33,o),
(-132,-68,cs),
(-133,-99,o),
(-111,-118,o),
(-83,-118,cs),
(-70,-118,o),
(-56,-115,o),
(-42,-109,c),
(-27,-197,l),
(-52,-212,o),
(-80,-216,o),
(-109,-215,c),
(-177,-215,o),
(-235,-175,o),
(-235,-100,cs),
(-235,-49,o),
(-200,-6,o),
(-156,13,c)
);
}
);
width = 0;
}
);
unicode = 808;
},
{
glyphname = AE;
layers = (
{
associatedMasterId = "421C3252-9543-41E3-AA96-2937FA2B9555";
layerId = "A269494A-BFFB-4006-B6A8-EFEC4CB0D00A";
name = img;
width = 973;
},
{
layerId = "421C3252-9543-41E3-AA96-2937FA2B9555";
shapes = (
{
closed = 1;
nodes = (
(297,280,l),
(440,280,l),
(440,559,l),
(414,559,l)
);
},
{
closed = 1;
nodes = (
(440,134,l),
(234,134,l),
(176,0,l),
(0,0,l),
(320,708,l),
(938,708,l),
(938,559,l),
(603,559,l),
(603,423,l),
(884,423,l),
(884,278,l),
(603,278,l),
(603,147,l),
(938,147,l),
(938,0,l),
(440,0,l)
);
}
);
width = 973;
}
);
unicode = 198;
},
{
glyphname = Eth;
kernLeft = _kern1;
kernRight = _kern4;
layers = (
{
associatedMasterId = "421C3252-9543-41E3-AA96-2937FA2B9555";
layerId = "A269494A-BFFB-4006-B6A8-EFEC4CB0D00A";
name = img;
width = 738;
},
{
layerId = "421C3252-9543-41E3-AA96-2937FA2B9555";
shapes = (
{
closed = 1;
nodes = (
(-9,287,l),
(-9,420,l),
(74,420,l),
(74,708,l),
(343,708,ls),
(568,708,o),
(702,581,o),
(702,354,cs),
(702,121,o),
(579,0,o),
(347,0,cs),
(74,0,l),
(74,287,l)
);
},
{
closed = 1;
nodes = (
(237,287,l),
(237,147,l),
(349,147,ls),
(482,147,o),
(536,226,o),
(536,353,cs),
(536,485,o),
(477,559,o),
(341,559,cs),
(237,559,l),
(237,420,l),
(364,420,l),
(364,287,l)
);
}
);
width = 738;
}
);
unicode = 208;
},
{
glyphname = Oslash;
kernLeft = _kern3;
kernRight = _kern4;
layers = (
{
associatedMasterId = "421C3252-9543-41E3-AA96-2937FA2B9555";
layerId = "A269494A-BFFB-4006-B6A8-EFEC4CB0D00A";
name = img;
width = 782;
},
{
layerId = "421C3252-9543-41E3-AA96-2937FA2B9555";
shapes = (
{
closed = 1;
nodes = (
(299,-111,l),
(148,-111,l),
(202,38,l),
(85,102,o),
(35,225,o),
(35,355,cs),
(35,570,o),
(176,717,o),
(392,717,cs),
(410,717,o),
(428,716,o),
(446,714,c),
(484,820,l),
(636,820,l),
(582,671,l),
(697,607,o),
(747,486,o),
(747,358,cs),
(747,145,o),
(606,-10,o),
(390,-7,cs),
(372,-7,o),
(355,-6,o),
(338,-4,c)
);
},
{
closed = 1;
nodes = (
(400,567,l),
(392,567,ls),
(269,567,o),
(202,472,o),
(202,356,cs),
(202,296,o),
(220,235,o),
(264,192,c)
);
},
{
closed = 1;
nodes = (
(383,143,l),
(394,143,ls),
(516,143,o),
(580,241,o),
(580,354,cs),
(580,414,o),
(563,474,o),
(520,517,c)
);
}
);
width = 782;
}
);
unicode = 216;
},
{
glyphname = Thorn;
kernLeft = _kern1;
layers = (
{
associatedMasterId = "421C3252-9543-41E3-AA96-2937FA2B9555";
layerId = "A269494A-BFFB-4006-B6A8-EFEC4CB0D00A";
name = img;
width = 674;
},
{
layerId = "421C3252-9543-41E3-AA96-2937FA2B9555";
shapes = (
{
closed = 1;
nodes = (
(359,606,ls),
(524,606,o),
(638,539,o),
(638,359,cs),
(638,190,o),
(523,102,o),
(360,102,cs),
(237,102,l),
(237,0,l),
(74,0,l),
(74,708,l),
(237,708,l),
(237,606,l)
);
},
{
closed = 1;
nodes = (
(356,246,ls),
(429,246,o),
(478,279,o),
(478,351,cs),
(478,432,o),
(429,457,o),
(354,457,cs),
(237,457,l),
(237,246,l)
);
}
);
width = 674;
}
);
unicode = 222;
},
{
glyphname = germandbls;
kernLeft = _kern1;
layers = (
{
associatedMasterId = "421C3252-9543-41E3-AA96-2937FA2B9555";
layerId = "A269494A-BFFB-4006-B6A8-EFEC4CB0D00A";
name = img;
width = 673;
},
{
layerId = "421C3252-9543-41E3-AA96-2937FA2B9555";
shapes = (
{
closed = 1;
nodes = (
(55,556,ls),
(55,700,o),
(170,750,o),
(297,750,cs),
(406,750,o),
(534,703,o),
(534,576,cs),
(534,483,o),
(434,445,o),
(434,396,cs),
(434,365,o),
(461,357,o),
(484,346,cs),
(558,312,ls),
(618,284,o),
(651,239,o),
(651,166,cs),
(651,49,o),
(558,-8,o),
(446,-8,cs),
(335,-8,o),
(244,54,o),
(239,171,c),
(387,171,l),
(387,142,o),
(407,121,o),
(444,121,cs),
(475,121,o),
(495,137,o),
(495,164,cs),
(495,195,o),
(480,208,o),
(453,219,cs),
(369,255,ls),
(316,278,o),
(280,307,o),
(280,371,cs),
(280,451,o),
(369,490,o),
(372,556,c),
(372,598,o),
(331,616,o),
(294,616,cs),
(247,616,o),
(212,595,o),
(212,544,cs),
(212,0,l),
(55,0,l)
);
}
);
width = 673;
}
);
unicode = 223;
},
{
glyphname = oslash;
kernLeft = _kern5;
kernRight = _kern6;
layers = (
{
associatedMasterId = "421C3252-9543-41E3-AA96-2937FA2B9555";
layerId = "A269494A-BFFB-4006-B6A8-EFEC4CB0D00A";
name = img;
width = 608;
},
{
layerId = "421C3252-9543-41E3-AA96-2937FA2B9555";
shapes = (
{
closed = 1;
nodes = (
(287,-8,o),
(272,-7,o),
(258,-5,c),
(214,-105,l),
(62,-105,l),
(131,44,l),
(60,96,o),
(34,181,o),
(34,266,cs),
(34,430,o),
(145,538,o),
(308,538,cs),
(322,538,o),
(336,537,o),
(349,535,c),
(392,634,l),
(545,634,l),
(477,486,l),
(545,434,o),
(574,350,o),
(574,266,cs),
(574,98,o),
(472,-8,o),
(303,-8,cs)
);
},
{
closed = 1;
nodes = (
(302,392,l),
(227,391,o),
(190,334,o),
(190,265,cs),
(190,238,o),
(194,209,o),
(209,186,c)
);
},
{
closed = 1;
nodes = (
(307,136,l),
(383,139,o),
(416,194,o),
(416,265,cs),
(416,290,o),
(411,316,o),
(399,339,c)
);
}
);
width = 608;
}
);
unicode = 248;
},
{
glyphname = eth;
kernLeft = _kern5;
kernRight = _kern6;
layers = (
{
associatedMasterId = "421C3252-9543-41E3-AA96-2937FA2B9555";
layerId = "A269494A-BFFB-4006-B6A8-EFEC4CB0D00A";
name = img;
width = 617;
},
{
layerId = "421C3252-9543-41E3-AA96-2937FA2B9555";
shapes = (
{
closed = 1;
nodes = (
(196,607,l),
(266,648,l),
(241,663,o),
(201,670,o),
(178,675,c),
(195,788,l),
(254,780,o),
(322,759,o),
(381,723,c),
(489,785,l),
(543,694,l),
(471,651,l),
(559,547,o),
(583,451,o),
(583,317,cs),
(583,236,o),
(565,151,o),
(516,86,cs),
(463,17,o),
(387,-12,o),
(299,-12,cs),
(141,-12,o),
(34,90,o),
(34,252,cs),
(34,391,o),
(129,498,o),
(272,498,cs),
(339,498,o),
(401,475,o),
(440,419,c),
(440,470,o),
(396,548,o),
(357,579,c),
(247,517,l)
);
},
{
closed = 1;
nodes = (
(375,128,o),
(416,173,o),
(416,241,cs),
(416,312,o),
(370,351,o),
(301,351,cs),
(233,351,o),
(191,309,o),
(191,242,cs),
(191,173,o),
(236,128,o),
(307,128,cs)
);
}
);
width = 617;
}
);
unicode = 240;
},
{
glyphname = thorn;
layers = (
{
associatedMasterId = "421C3252-9543-41E3-AA96-2937FA2B9555";
layerId = "A269494A-BFFB-4006-B6A8-EFEC4CB0D00A";
name = img;
width = 642;
},
{
layerId = "421C3252-9543-41E3-AA96-2937FA2B9555";
shapes = (
{
closed = 1;
nodes = (
(212,466,l),
(253,516,o),
(311,538,o),
(375,538,cs),
(531,538,o),
(608,414,o),
(608,269,cs),
(608,124,o),
(537,-8,o),
(377,-8,cs),
(307,-8,o),
(252,12,o),
(212,52,c),
(212,-210,l),
(55,-210,l),
(55,708,l),
(212,708,l)
);
},
{
closed = 1;
nodes = (
(259,394,o),
(212,337,o),
(212,267,cs),
(212,190,o),
(256,136,o),
(335,134,c),
(416,134,o),
(450,191,o),
(450,266,cs),
(450,339,o),
(408,394,o),
(332,394,cs)
);
}
);
width = 642;
}
);
unicode = 254;
},
{
glyphname = ae;
layers = (
{
associatedMasterId = "421C3252-9543-41E3-AA96-2937FA2B9555";
layerId = "A269494A-BFFB-4006-B6A8-EFEC4CB0D00A";
name = img;
width = 914;
},
{
layerId = "421C3252-9543-41E3-AA96-2937FA2B9555";
shapes = (
{
closed = 1;
nodes = (
(376,2,o),
(300,-8,o),
(242,-8,cs),
(186,-8,o),
(134,4,o),
(98,31,cs),
(63,58,o),
(36,98,o),
(36,158,cs),
(36,297,o),
(169,322,o),
(281,322,cs),
(375,322,l),
(375,375,o),
(342,404,o),
(290,404,cs),
(258,404,o),
(214,395,o),
(206,359,c),
(46,359,l),
(62,487,o),
(169,538,o),
(288,538,cs),
(351,538,o),
(414,522,o),
(461,473,c),
(508,520,o),
(576,538,o),
(632,538,cs),
(789,538,o),
(880,434,o),
(880,278,cs),
(880,257,o),
(877,237,o),
(874,216,c),
(524,216,l),
(528,153,o),
(572,124,o),
(632,123,c),
(664,123,o),
(699,132,o),
(715,163,c),
(875,163,l),
(845,42,o),
(750,-8,o),
(633,-8,cs),
(560,-8,o),
(493,11,o),
(442,70,c)
);
},
{
closed = 1;
nodes = (
(729,322,l),
(729,379,o),
(682,407,o),
(630,407,cs),
(574,407,o),
(531,381,o),
(526,322,c)
);
},
{
closed = 1;
nodes = (
(284,216,ls),
(248,216,o),
(194,215,o),
(194,168,cs),
(194,128,o),
(232,114,o),
(267,114,cs),
(327,114,o),
(376,149,o),
(376,216,c)
);
}
);
width = 914;
}
);
unicode = 230;
},
{
glyphname = OE;
kernLeft = _kern3;
layers = (
{
associatedMasterId = "421C3252-9543-41E3-AA96-2937FA2B9555";
layerId = "A269494A-BFFB-4006-B6A8-EFEC4CB0D00A";
name = img;
width = 1126;
},
{
layerId = "421C3252-9543-41E3-AA96-2937FA2B9555";
shapes = (
{
closed = 1;
nodes = (
(1091,708,l),
(1091,559,l),
(734,559,l),
(734,423,l),
(1037,423,l),
(1037,278,l),
(734,278,l),
(734,147,l),
(1091,147,l),
(1091,0,l),
(571,0,l),
(571,42,l),
(534,2,o),
(441,-7,o),
(390,-7,cs),
(172,-7,o),
(35,139,o),
(35,355,cs),
(35,570,o),
(176,717,o),
(392,717,cs),
(443,717,o),
(526,708,o),
(571,668,c),
(571,708,l)
);
},
{
closed = 1;
nodes = (
(202,233,o),
(266,143,o),
(394,143,cs),
(516,143,o),
(580,241,o),
(580,354,cs),
(580,470,o),
(515,567,o),
(392,567,cs),
(269,567,o),
(202,472,o),
(202,356,cs)
);
}
);
width = 1126;
}
);
unicode = 338;
},
{
glyphname = oe;
kernLeft = _kern5;
kernRight = _kern6;
layers = (
{
associatedMasterId = "421C3252-9543-41E3-AA96-2937FA2B9555";
layerId = "A269494A-BFFB-4006-B6A8-EFEC4CB0D00A";
name = img;
width = 957;
},
{
layerId = "421C3252-9543-41E3-AA96-2937FA2B9555";
shapes = (
{
closed = 1;
nodes = (
(135,-8,o),
(34,99,o),
(34,266,cs),
(34,430,o),
(145,538,o),
(308,538,cs),
(376,538,o),
(441,517,o),
(492,470,c),
(541,517,o),
(603,538,o),
(671,538,cs),
(829,538,o),
(923,434,o),
(923,278,cs),
(923,257,o),
(920,237,o),
(917,216,c),
(567,216,l),
(574,153,o),
(615,124,o),
(675,123,c),
(707,123,o),
(741,132,o),
(758,163,c),
(918,163,l),
(888,42,o),
(790,-8,o),
(673,-8,cs),
(594,-8,o),
(535,15,o),
(487,56,c),
(435,11,o),
(370,-8,o),
(303,-8,cs)
);
},
{
closed = 1;
nodes = (
(772,322,l),
(772,379,o),
(725,407,o),
(673,407,cs),
(617,407,o),
(574,381,o),
(569,322,c)
);
},
{
closed = 1;
nodes = (
(229,392,o),
(190,334,o),
(190,265,cs),
(190,193,o),
(227,136,o),
(304,136,cs),
(381,136,o),
(416,193,o),
(416,265,cs),
(416,336,o),
(380,392,o),
(304,392,cs)
);
}
);
width = 957;
}
);
unicode = 339;
},
{
glyphname = Agrave;
kernLeft = _kern30;
kernRight = _kern30;
layers = (
{
associatedMasterId = "421C3252-9543-41E3-AA96-2937FA2B9555";
layerId = "A269494A-BFFB-4006-B6A8-EFEC4CB0D00A";
name = img;
width = 730;
},
{
layerId = "421C3252-9543-41E3-AA96-2937FA2B9555";
shapes = (
{
closed = 1;
nodes = (
(269,263,l),
(459,263,l),
(365,530,l)
);
},
{
closed = 1;
nodes = (
(219,117,l),
(176,0,l),
(0,0,l),
(279,708,l),
(453,708,l),
(728,0,l),
(551,0,l),
(509,117,l)
);
},
{
closed = 1;
nodes = (
(336,765,l),
(183,950,l),
(346,950,l),
(466,765,l)
);
}
);
width = 730;
}
);
unicode = 192;
},
{
glyphname = Aacute;
kernLeft = _kern30;
kernRight = _kern30;
layers = (
{
associatedMasterId = "421C3252-9543-41E3-AA96-2937FA2B9555";
layerId = "A269494A-BFFB-4006-B6A8-EFEC4CB0D00A";
name = img;
width = 730;
},
{
layerId = "421C3252-9543-41E3-AA96-2937FA2B9555";
shapes = (
{
closed = 1;
nodes = (
(269,263,l),
(459,263,l),
(365,530,l)
);
},
{
closed = 1;
nodes = (
(219,117,l),
(176,0,l),
(0,0,l),
(279,708,l),
(453,708,l),
(728,0,l),
(551,0,l),
(509,117,l)
);
},
{
closed = 1;
nodes = (
(282,765,l),
(402,950,l),
(565,950,l),
(412,765,l)
);
}
);
width = 730;
}
);
unicode = 193;
},
{
glyphname = Acircumflex;
kernLeft = _kern30;
kernRight = _kern30;
layers = (
{
associatedMasterId = "421C3252-9543-41E3-AA96-2937FA2B9555";
layerId = "A269494A-BFFB-4006-B6A8-EFEC4CB0D00A";
name = img;
width = 730;
},
{
layerId = "421C3252-9543-41E3-AA96-2937FA2B9555";
shapes = (
{
closed = 1;
nodes = (
(269,263,l),
(459,263,l),
(365,530,l)
);
},
{
closed = 1;
nodes = (
(219,117,l),
(176,0,l),
(0,0,l),
(279,708,l),
(453,708,l),
(728,0,l),
(551,0,l),
(509,117,l)
);
},
{
closed = 1;
nodes = (
(578,765,l),
(432,765,l),
(367,852,l),
(304,765,l),
(158,765,l),
(316,950,l),
(418,950,l)
);
}
);
width = 730;
}
);
unicode = 194;
},
{
glyphname = Atilde;
kernLeft = _kern30;
kernRight = _kern30;
layers = (
{
associatedMasterId = "421C3252-9543-41E3-AA96-2937FA2B9555";
layerId = "A269494A-BFFB-4006-B6A8-EFEC4CB0D00A";
name = img;
width = 730;
},
{
layerId = "421C3252-9543-41E3-AA96-2937FA2B9555";
shapes = (
{
closed = 1;
nodes = (
(269,263,l),
(459,263,l),
(365,530,l)
);
},
{
closed = 1;
nodes = (
(219,117,l),
(176,0,l),
(0,0,l),
(279,708,l),
(453,708,l),
(728,0,l),
(551,0,l),
(509,117,l)
);
},
{
closed = 1;
nodes = (
(175,772,l),
(174,779,o),
(173,785,o),
(173,805,c),
(176,884,o),
(214,945,o),
(299,945,cs),
(368,945,o),
(399,880,o),
(434,880,cs),
(464,880,o),
(465,914,o),
(462,939,c),
(565,939,l),
(565,932,o),
(565,925,o),
(565,918,cs),
(565,842,o),
(538,767,o),
(450,767,cs),
(380,767,o),
(337,836,o),
(305,836,cs),
(277,836,o),
(271,793,o),
(276,772,c)
);
}
);
width = 730;
}
);
unicode = 195;
},
{
glyphname = Adieresis;
kernLeft = _kern30;
kernRight = _kern30;
layers = (
{
associatedMasterId = "421C3252-9543-41E3-AA96-2937FA2B9555";
layerId = "A269494A-BFFB-4006-B6A8-EFEC4CB0D00A";
name = img;
width = 730;
},
{
layerId = "421C3252-9543-41E3-AA96-2937FA2B9555";
shapes = (
{
closed = 1;
nodes = (
(269,263,l),
(459,263,l),
(365,530,l)
);
},
{
closed = 1;
nodes = (
(219,117,l),
(176,0,l),
(0,0,l),
(279,708,l),
(453,708,l),
(728,0,l),
(551,0,l),
(509,117,l)
);
},
{
closed = 1;
nodes = (
(285,941,o),
(324,909,o),
(324,853,cs),
(324,796,o),
(285,764,o),
(234,764,cs),
(183,764,o),
(144,796,o),
(144,853,cs),
(144,908,o),
(183,941,o),
(234,941,cs)
);
},
{
closed = 1;
nodes = (
(553,941,o),
(593,909,o),
(593,853,cs),
(593,796,o),
(553,764,o),
(502,764,cs),
(451,764,o),
(412,796,o),
(412,853,cs),
(412,908,o),
(453,941,o),
(502,941,cs)
);
}
);
width = 730;
}
);
unicode = 196;
},
{
glyphname = Aring;
kernLeft = _kern30;
kernRight = _kern30;
layers = (
{
associatedMasterId = "421C3252-9543-41E3-AA96-2937FA2B9555";
layerId = "A269494A-BFFB-4006-B6A8-EFEC4CB0D00A";
name = img;
width = 730;
},
{
layerId = "421C3252-9543-41E3-AA96-2937FA2B9555";
shapes = (
{
closed = 1;
nodes = (
(269,263,l),
(459,263,l),
(365,530,l)
);
},
{
closed = 1;
nodes = (
(219,117,l),
(176,0,l),
(0,0,l),
(279,708,l),
(453,708,l),
(728,0,l),
(551,0,l),
(509,117,l)
);
},
{
closed = 1;
nodes = (
(435,969,o),
(489,922,o),
(489,850,cs),
(489,775,o),
(436,732,o),
(364,732,cs),
(293,732,o),
(240,777,o),
(240,850,cs),
(240,921,o),
(295,969,o),
(364,969,cs)
);
},
{
closed = 1;
nodes = (
(341,889,o),
(324,873,o),
(324,850,cs),
(324,826,o),
(340,811,o),
(364,811,cs),
(387,811,o),
(405,826,o),
(405,850,cs),
(405,874,o),
(387,889,o),
(364,889,cs)
);
}
);
width = 730;
}
);
unicode = 197;
},
{
glyphname = Egrave;
layers = (
{
associatedMasterId = "421C3252-9543-41E3-AA96-2937FA2B9555";
layerId = "A269494A-BFFB-4006-B6A8-EFEC4CB0D00A";
name = img;
width = 629;
},
{
layerId = "421C3252-9543-41E3-AA96-2937FA2B9555";
shapes = (
{
closed = 1;
nodes = (
(594,708,l),
(594,559,l),
(237,559,l),
(237,423,l),
(540,423,l),
(540,278,l),
(237,278,l),
(237,147,l),
(594,147,l),
(594,0,l),
(74,0,l),
(74,708,l)
);
},
{
closed = 1;
nodes = (
(308,765,l),
(155,950,l),
(318,950,l),
(438,765,l)
);
}
);
width = 629;
}
);
unicode = 200;
},
{
glyphname = Eacute;
layers = (
{
associatedMasterId = "421C3252-9543-41E3-AA96-2937FA2B9555";
layerId = "A269494A-BFFB-4006-B6A8-EFEC4CB0D00A";
name = img;
width = 629;
},
{
layerId = "421C3252-9543-41E3-AA96-2937FA2B9555";
shapes = (
{
closed = 1;
nodes = (
(594,708,l),
(594,559,l),
(237,559,l),
(237,423,l),
(540,423,l),
(540,278,l),
(237,278,l),
(237,147,l),
(594,147,l),
(594,0,l),
(74,0,l),
(74,708,l)
);
},
{
closed = 1;
nodes = (
(253,765,l),
(373,950,l),
(536,950,l),
(383,765,l)
);
}
);
width = 629;
}
);
unicode = 201;
},
{
glyphname = Ecircumflex;
layers = (
{
associatedMasterId = "421C3252-9543-41E3-AA96-2937FA2B9555";
layerId = "A269494A-BFFB-4006-B6A8-EFEC4CB0D00A";
name = img;
width = 629;
},
{
layerId = "421C3252-9543-41E3-AA96-2937FA2B9555";
shapes = (
{
closed = 1;
nodes = (
(594,708,l),
(594,559,l),
(237,559,l),
(237,423,l),
(540,423,l),
(540,278,l),
(237,278,l),
(237,147,l),
(594,147,l),
(594,0,l),
(74,0,l),
(74,708,l)
);
},
{
closed = 1;
nodes = (
(543,765,l),
(397,765,l),
(332,852,l),
(269,765,l),
(123,765,l),
(281,950,l),
(383,950,l)
);
}
);
width = 629;
}
);
unicode = 202;
},
{
glyphname = Edieresis;
layers = (
{
associatedMasterId = "421C3252-9543-41E3-AA96-2937FA2B9555";
layerId = "A269494A-BFFB-4006-B6A8-EFEC4CB0D00A";
name = img;
width = 629;
},
{
layerId = "421C3252-9543-41E3-AA96-2937FA2B9555";
shapes = (
{
closed = 1;
nodes = (
(594,708,l),
(594,559,l),
(237,559,l),
(237,423,l),
(540,423,l),
(540,278,l),
(237,278,l),
(237,147,l),
(594,147,l),
(594,0,l),
(74,0,l),
(74,708,l)
);
},
{
closed = 1;
nodes = (
(252,941,o),
(291,909,o),
(291,853,cs),
(291,796,o),
(252,764,o),
(201,764,cs),
(150,764,o),
(111,796,o),
(111,853,cs),
(111,908,o),
(150,941,o),
(201,941,cs)
);
},
{
closed = 1;
nodes = (
(520,941,o),
(560,909,o),
(560,853,cs),
(560,796,o),
(520,764,o),
(469,764,cs),
(418,764,o),
(379,796,o),
(379,853,cs),
(379,908,o),
(420,941,o),
(469,941,cs)
);
}
);
width = 629;
}
);
unicode = 203;
},
{
glyphname = Igrave;
kernLeft = _kern1;
kernRight = _kern2;
layers = (
{
associatedMasterId = "421C3252-9543-41E3-AA96-2937FA2B9555";
layerId = "A269494A-BFFB-4006-B6A8-EFEC4CB0D00A";
name = img;
width = 311;
},
{
layerId = "421C3252-9543-41E3-AA96-2937FA2B9555";
shapes = (
{
closed = 1;
nodes = (
(237,0,l),
(74,0,l),
(74,708,l),
(237,708,l)
);
},
{
closed = 1;
nodes = (
(118,765,l),
(-35,950,l),
(128,950,l),
(248,765,l)
);
}
);
width = 311;
}
);
unicode = 204;
},
{
glyphname = Iacute;
kernLeft = _kern1;
kernRight = _kern2;
layers = (
{
associatedMasterId = "421C3252-9543-41E3-AA96-2937FA2B9555";
layerId = "A269494A-BFFB-4006-B6A8-EFEC4CB0D00A";
name = img;
width = 311;
},
{
layerId = "421C3252-9543-41E3-AA96-2937FA2B9555";
shapes = (
{
closed = 1;
nodes = (
(237,0,l),
(74,0,l),
(74,708,l),
(237,708,l)
);
},
{
closed = 1;
nodes = (
(64,765,l),
(184,950,l),
(347,950,l),
(194,765,l)
);
}
);
width = 311;
}
);
unicode = 205;
},
{
glyphname = Icircumflex;
kernLeft = _kern1;
kernRight = _kern2;
layers = (
{
associatedMasterId = "421C3252-9543-41E3-AA96-2937FA2B9555";
layerId = "A269494A-BFFB-4006-B6A8-EFEC4CB0D00A";
name = img;
width = 311;
},
{
layerId = "421C3252-9543-41E3-AA96-2937FA2B9555";
shapes = (
{
closed = 1;
nodes = (
(237,0,l),
(74,0,l),
(74,708,l),
(237,708,l)
);
},
{
closed = 1;
nodes = (
(370,765,l),
(224,765,l),
(159,852,l),
(96,765,l),
(-50,765,l),
(108,950,l),
(210,950,l)
);
}
);
width = 311;
}
);
unicode = 206;
},
{
glyphname = Idieresis;
kernLeft = _kern1;
kernRight = _kern2;
layers = (
{
associatedMasterId = "421C3252-9543-41E3-AA96-2937FA2B9555";
layerId = "A269494A-BFFB-4006-B6A8-EFEC4CB0D00A";
name = img;
width = 311;
},
{
layerId = "421C3252-9543-41E3-AA96-2937FA2B9555";
shapes = (
{
closed = 1;
nodes = (
(237,0,l),
(74,0,l),
(74,708,l),
(237,708,l)
);
},
{
closed = 1;
nodes = (
(82,941,o),
(121,909,o),
(121,853,cs),
(121,796,o),
(82,764,o),
(31,764,cs),
(-20,764,o),
(-59,796,o),
(-59,853,cs),
(-59,908,o),
(-20,941,o),
(31,941,cs)
);
},
{
closed = 1;
nodes = (
(330,941,o),
(370,909,o),
(370,853,cs),
(370,796,o),
(330,764,o),
(279,764,cs),
(228,764,o),
(189,796,o),
(189,853,cs),
(189,908,o),
(230,941,o),
(279,941,cs)
);
}
);
width = 311;
}
);
unicode = 207;
},
{
glyphname = Ntilde;
kernLeft = _kern1;
kernRight = _kern2;
layers = (
{
associatedMasterId = "421C3252-9543-41E3-AA96-2937FA2B9555";
layerId = "A269494A-BFFB-4006-B6A8-EFEC4CB0D00A";
name = img;
width = 784;
},
{
layerId = "421C3252-9543-41E3-AA96-2937FA2B9555";
shapes = (
{
closed = 1;
nodes = (
(230,708,l),
(547,270,l),
(547,708,l),
(710,708,l),
(710,0,l),
(557,0,l),
(237,435,l),
(237,0,l),
(74,0,l),
(74,708,l)
);
},
{
closed = 1;
nodes = (
(204,772,l),
(203,779,o),
(202,785,o),
(202,805,c),
(205,884,o),
(243,945,o),
(328,945,cs),
(397,945,o),
(428,880,o),
(463,880,cs),
(493,880,o),
(494,914,o),
(491,939,c),
(594,939,l),
(594,932,o),
(594,925,o),
(594,918,cs),
(594,842,o),
(567,767,o),
(479,767,cs),
(409,767,o),
(366,836,o),
(334,836,cs),
(306,836,o),
(300,793,o),
(305,772,c)
);
}
);
width = 784;
}
);
unicode = 209;
},
{
glyphname = Ograve;
kernLeft = _kern3;
kernRight = _kern4;
layers = (
{
associatedMasterId = "421C3252-9543-41E3-AA96-2937FA2B9555";
layerId = "A269494A-BFFB-4006-B6A8-EFEC4CB0D00A";
name = img;
width = 782;
},
{
layerId = "421C3252-9543-41E3-AA96-2937FA2B9555";
shapes = (
{
closed = 1;
nodes = (
(608,717,o),
(747,574,o),
(747,358,cs),
(747,146,o),
(609,-8,o),
(390,-7,cs),
(170,-5,o),
(35,142,o),
(35,355,cs),
(35,571,o),
(176,717,o),
(392,717,cs)
);
},
{
closed = 1;
nodes = (
(202,247,o),
(262,145,o),
(394,143,cs),
(522,142,o),
(580,249,o),
(580,354,cs),
(580,457,o),
(525,567,o),
(392,567,cs),
(261,567,o),
(202,463,o),
(202,356,cs)
);
},
{
closed = 1;
nodes = (
(347,765,l),
(194,950,l),
(357,950,l),
(477,765,l)
);
}
);
width = 782;
}
);
unicode = 210;
},
{
glyphname = Oacute;
kernLeft = _kern3;
kernRight = _kern4;
layers = (
{
associatedMasterId = "421C3252-9543-41E3-AA96-2937FA2B9555";
layerId = "A269494A-BFFB-4006-B6A8-EFEC4CB0D00A";
name = img;
width = 782;
},
{
layerId = "421C3252-9543-41E3-AA96-2937FA2B9555";
shapes = (
{
closed = 1;
nodes = (
(608,717,o),
(747,574,o),
(747,358,cs),
(747,146,o),
(609,-8,o),
(390,-7,cs),
(170,-5,o),
(35,142,o),
(35,355,cs),
(35,571,o),
(176,717,o),
(392,717,cs)
);
},
{
closed = 1;
nodes = (
(202,247,o),
(262,145,o),
(394,143,cs),
(522,142,o),
(580,249,o),
(580,354,cs),
(580,457,o),
(525,567,o),
(392,567,cs),
(261,567,o),
(202,463,o),
(202,356,cs)
);
},
{
closed = 1;
nodes = (
(299,765,l),
(419,950,l),
(582,950,l),
(429,765,l)
);
}
);
width = 782;
}
);
unicode = 211;
},
{
glyphname = Ocircumflex;
kernLeft = _kern3;
kernRight = _kern4;
layers = (
{
associatedMasterId = "421C3252-9543-41E3-AA96-2937FA2B9555";
layerId = "A269494A-BFFB-4006-B6A8-EFEC4CB0D00A";
name = img;
width = 782;
},
{
layerId = "421C3252-9543-41E3-AA96-2937FA2B9555";
shapes = (
{
closed = 1;
nodes = (
(608,717,o),
(747,574,o),
(747,358,cs),
(747,146,o),
(609,-10,o),
(390,-7,c),
(170,-7,o),
(35,142,o),
(35,355,cs),
(35,571,o),
(176,717,o),
(392,717,cs)
);
},
{
closed = 1;
nodes = (
(202,247,o),
(262,146,o),
(394,143,c),
(522,143,o),
(580,249,o),
(580,354,cs),
(580,457,o),
(525,567,o),
(392,567,cs),
(261,567,o),
(202,463,o),
(202,356,cs)
);
},
{
closed = 1;
nodes = (
(603,765,l),
(457,765,l),
(392,852,l),
(329,765,l),
(183,765,l),
(341,950,l),
(443,950,l)
);
}
);
width = 782;
}
);
unicode = 212;
},
